<?xml version="1.0" encoding="UTF-8"?><svg id="a" xmlns="http://www.w3.org/2000/svg" viewBox="0 0 250 399"><defs><style>.b{fill:#2056ad;}.c{fill:#275bb0;}.d{fill:#3467b9;}.e{fill:#688dcc;}.f{fill:#96a0d9;}.g{fill:#2d61b6;}.h{fill:#fbfcfd;}.i{fill:#5577c0;}.j{fill:#5376c0;}.k{fill:#2c60b5;}.l{fill:#2460c1;}.m{fill:#527ec4;}.n{fill:#2460c3;}.o{fill:#97b0da;}.p{fill:#4374c2;}.q{fill:#4a79c6;}.r{fill:#235ebd;}.s{fill:#2f63b7;}.t{fill:#97a0d9;}.u{fill:#7597ce;}.v{fill:#3d6dbe;}.w{fill:#5e7dc4;}.x{fill:#97a1d9;}.y{fill:#3b6dbe;}.a`{fill:#3367bc;}.aa{fill:#4573c0;}.ab{fill:#3367ba;}.ac{fill:#2f62b7;}.ad{fill:#2c60b4;}.ae{fill:#2459b0;}.af{fill:#3769bc;}.ag{fill:#1851aa;}.ah{fill:#c4d2e8;}.ai{fill:#99b2d9;}.aj{fill:#eaeff7;}.ak{fill:#3b6cbb;}.al{fill:#919dd7;}.am{fill:#2b5fb2;}.an{fill:#3e70c0;}.ao{fill:#7f9fd2;}.ap{fill:#1b53ab;}.aq{fill:#2f64b8;}.ar{fill:#fdfdfe;}.as{fill:#2a5db1;}.at{fill:#3567b9;}.au{fill:#3064b9;}.av{fill:#bacbe6;}.aw{fill:#5477c1;}.ax{fill:#fafbfd;}.ay{fill:#1d54ac;}.b`{fill:#2562c8;}.ba{fill:#285db3;}.bb{fill:#2461c4;}.bc{fill:#3164b8;}.bd{fill:#2e63b9;}.be{fill:#1a52ab;}.bf{fill:#8e9bd6;}.bg{fill:#e0e8f3;}.bh{fill:#2257ae;}.bi{fill:#698fcc;}.bj{fill:#5d7cc4;}.bk{fill:#7c9cd1;}.bl{fill:#2e62b6;}.bm{fill:#96afd9;}.bn{fill:#4574c1;}.bo{fill:#3d6ebd;}.bp{fill:#3366ba;}.bq{fill:#5276c0;}.br{fill:#4979c8;}.bs{fill:#4d7ac5;}.bt{fill:#1e54ad;}.bu{fill:#fefefe;}.bv{fill:#3466b9;}</style></defs><path class="bu" d="M72.13,398.9c-22.41,0-44.82-.08-67.23,.09-3.53,.03-4.71-.47-4.71-4.47,.15-82.19,.11-164.37,.11-246.56,2.39-.08,2.45,2,2.81,3.43,2.77,10.98,9.41,19.16,18.13,25.99,9.52,7.46,18.71,15.34,28.33,22.66,5.27,4.01,6.9,8.51,5.15,14.63-.34,17.82-.1,35.64-.13,53.45-.05,28.47,0,56.93-.02,85.4,0,11.98,.14,23.96-.41,35.92,0,.28,0,.58,0,.88-.01,.45,.02,.9-.13,1.33,.34-.45,.04-.96,.15-1.45,0-.99,0-1.95,0-2.92,0-7.84,1.77-15.38,3.7-22.9,6.02-22.1,15.18-42.75,28.17-61.66,4.14-6.02,8.8-11.62,13.33-17.33,6.47-6.46,12.68-13.19,19.48-19.3,5.52-4.96,6.76-4.98,12.22-.07,20.98,18.89,38.14,40.6,49.74,66.62,7.33,16.44,12.39,33.45,15.14,51.12-.57-3.03-.52-6.02-.53-9.01-.05-53.58,.12-107.16-.09-160.72-.09-.53-.21-1.07-.37-1.59-1.21-4.94,.52-8.47,4.59-11.58,9.9-7.57,19.28-15.81,29.16-23.42,8.81-6.78,15.5-14.96,18.19-26.04,.35-1.42,.39-3.52,2.8-3.44,0,82.31-.03,164.63,.1,246.94,0,3.42-.67,4.1-4.09,4.1-56.86-.14-113.73-.1-170.59-.1-.6-2.75,1.72-4.18,2.78-6.18,4.57-.88,8.34-3.39,12.07-5.96,.99-.31,1.96-.67,2.69-1.39-.08-.1,.44-.18,.05-.25-.21-.04-.52,.34-.81,.51-1,.49-2.01,.91-3.02,1.34-6.08,3.26-8.05,2.29-8.75-4.28-.15,3.41,.04,6.89-2.22,9.82-.88,1.43-1.87,2.86-3.63,3.08-2.18,.28-1.65,2.08-2.16,3.31Z"/><path class="bu" d="M1.3,0H248.7c.51,1.71-.68,2.66-1.65,3.72-33.35,26.64-66.66,53.34-99.87,80.16-6.57,5.31-12.82,11.07-20.08,15.5-1.47,.25-2.86-.17-4.27-.47-5.39-2.11-9.28-6.36-13.61-9.89C75.12,61.27,40.59,34.06,6.42,6.4c-1.54-1.25-3.47-2-4.7-3.65-.38-.88-.83-1.75-.42-2.75Z"/><path class="bh" d="M2.12,2.05c1.87,1.29,3.83,2.47,5.6,3.89,37.28,29.92,74.54,59.87,111.81,89.8,1.03,.83,2.13,1.56,3.2,2.34,2.07,1.74,1.83,4.18,1.83,6.48,.04,26.48-.03,52.95,.08,79.43,.02,4.89-2.73,8.86-3.46,13.44-.2,.59-.53,1.12-.95,1.57-3.95-.55-4.38-3.28-3.24-6.21,1.5-3.87,1.52-7.8,1.52-11.8,0-22.49,0-44.97,0-67.46,0-2.66-.2-5.34,.88-7.89,.25-.6,0,.17,.14-.48-.18,.12-.16,.35-.27,.53-2.29,1.2-2.1-.94-2.26-1.92-.45-2.66-1.91-4.43-3.96-6.06C77.5,69.37,42.24,40.67,6.72,12.32c-.43-.33-.82-.71-1.27-.99-.66-.04-.75,.44-.82,.96,.15,8.97-.24,17.91,.21,26.83,.31,.36,.6,.73,.89,1.11,1.7,3.46,1.95,7.38,3.52,10.9,3.41,7.65,8.87,13.51,15.38,18.63,13.84,10.89,27.49,22.03,41.27,33.01,1.56,1.24,3.13,2.49,4.49,3.95,3.21,3.42,3.63,7.18,1.24,10.37-2.36,3.16-7.01,4.07-10.76,1.72-4.94-3.09-9.19-7.11-13.76-10.71-13.71-10.8-27.05-22.05-40.76-32.81-.59-.4-1.11-.98-1.91-.85-.02,5.72,.65,11.41-.33,17.07-.07,.43,.03,.69,.13,.63,.13-.08,.2-.25,.31-.38,.48,.06,.89,.26,1.21,.62,1.19,2.07,1.44,4.42,2.06,6.66,2.56,9.3,8.82,15.89,15.98,21.77,6.55,5.38,13.22,10.62,19.84,15.93,.91,.73,1.85,1.41,2.66,2.26,3.4,3.58,3.9,8.04,1.27,11.29-2.65,3.27-7.09,3.77-11.19,.77-10.2-7.47-19.74-15.79-29.6-23.67-.44-.34-.85-.74-1.28-1.06-.59-.19-.81,.15-.92,.69-.29,5.37,.66,10.76-.58,16.07-.15,.65-.2,1.02-.06,.37,0-.02,.3,.02,.49,.03,.45,.12,.83,.34,1.16,.66,1.49,2.85,1.74,6.06,2.65,9.07,3.24,10.74,11.52,17.25,19.62,23.89,6.68,5.48,13.47,10.84,20.23,16.22,2.45,1.95,4.57,4.79,8.4,3.89,.18-.04,.44,.82,.55,1.33-.18,2.66-.47,5.29,1.01,7.75,.6,1,.83,2.28,.43,3.39-1.81,5.03-.88,10.22-.88,15.33-.06,44.41-.07,88.83-.01,133.24,0,1.16-.01,2.33,.31,3.46,.31,.78,.77,1.49,1.23,2.2-1.25,7.95-3.71,15.68-4.14,23.77-2.5-.93-1.22-3.07-1.23-4.55-.11-20.31-.07-40.62-.07-60.93,0-34.63,0-69.25,.01-103.88,0-1.82-.28-3.66,.3-5.45,1.32-5.37-.99-8.74-5.29-11.97-9.8-7.35-19.08-15.38-28.75-22.91-9.36-7.29-15.82-16.36-18.52-28-.18-.79-.19-1.67-1.13-2.02v-3c.83-6,.83-12,0-18v-12c2.01-.67,3.01,.98,4.24,1.94,10.96,8.59,21.72,17.42,32.66,26.04,1.24,.98,2.3,2.34,4.58,2.44-.95-2.35-2.67-3.4-4.16-4.57-6.39-5.02-12.52-10.35-18.94-15.32C8.58,117.7,1.86,107.91,.3,94.98v-30.99c2.43-1.49,3.66,.68,5.09,1.81,18.11,14.35,36.08,28.88,54.12,43.31,1.55,1.24,3.02,2.59,5.08,3.43,.42-2.54-1.65-3.1-2.87-4.09-14.4-11.53-28.5-23.44-43.07-34.76C8.47,65.79,1.96,55.89,.3,42.99v-3C1.46,28.91,.44,17.79,.88,6.7c.06-1.53-1.27-3.68,1.24-4.65Z"/><path class="bh" d="M120,198.95l.1-1.21c.99-.29,1.97,0,2.96,.07,4.51,.27,5.9-1.44,4.12-5.64-1.42-3.34-1.73-6.71-1.73-10.23,0-25.12-.02-50.24,.04-75.36,0-2.59-.57-5.38,1.48-7.61,14.81-12.03,29.58-24.11,44.43-36.09,23.91-19.28,47.87-38.5,71.82-57.73,1.02-.82,2.16-1.51,3.25-2.25,3.81-1.07,2.66,1.94,2.67,3.53,.1,9.57,.03,19.15,.07,28.72,0,1.61-.44,3.31,.49,4.84v3c-1.66,12.9-8.23,22.73-18.33,30.71-14.47,11.44-28.71,23.17-43.1,34.71-1.26,1.01-2.78,1.82-3.45,4.02,2.62-.41,4.06-2.06,5.67-3.34,18.05-14.42,36.02-28.95,54.12-43.3,1.43-1.13,2.66-3.3,5.09-1.81v30.99c-1.56,14.22-9.78,24.18-20.63,32.5-5.65,4.34-11.12,8.92-16.7,13.36-1.48,1.18-3.21,2.22-4.05,4.3,2.3,.4,3.25-1.24,4.47-2.19,10.95-8.6,21.71-17.44,32.67-26.03,1.23-.96,2.23-2.61,4.24-1.94v32.99c-1.48,.73-1.16,2.31-1.47,3.49-2.69,10.14-8.18,18.41-16.32,24.97-10.21,8.22-20.28,16.61-30.68,24.57-3.85,2.95-6.49,5.91-5.48,11-.38,1.06-1.14,1.49-2.23,1.4-1.54-.61-1.77-1.96-1.57-3.29,.65-4.37,2.25-8.62,1.66-13.15,1.24-.9,1.73,1.94,3.61,.33,11.09-9.46,22.82-18.13,33.78-27.75,7.19-6.32,10.9-14.45,12.8-23.61,.18-.43,.44-.81,.77-1.13,.44-.17,.88-.17,1.32-.03-.65-2.88-.45-5.79-.47-8.69-.02-3.15,0-6.29,.07-9.4-.21-.27-.48-.37-.83-.25-.51,.28-.92,.67-1.36,1.04-8.41,6.81-16.86,13.53-25.27,20.3-2.06,1.66-4.08,3.46-6.54,4.53-3.22,1.4-6.28,.94-8.69-1.63-2.42-2.56-2.65-5.63-1.16-8.8,.95-2.01,2.57-3.43,4.27-4.79,5.97-4.77,11.79-9.75,17.93-14.3,10.41-7.73,17.64-17.46,20.32-30.31,.29-.37,.67-.6,1.13-.71,.33-5.75,0-11.51,.14-17.22-.85-.24-1.3,.43-1.87,.8-16.78,13.63-33.62,27.15-50.47,40.65-1.69,1.35-3.31,2.87-5.38,3.56-3.63,1.22-7.01,.66-9.38-2.56-2.4-3.26-1.91-6.58,.67-9.58,1.74-2.03,3.89-3.62,5.95-5.29,14.48-11.68,29.09-23.21,43.51-34.98,7.5-6.12,12.35-13.78,14.52-23.21,.3-1.29,.58-2.61,1.36-3.73,.31-.34,.65-.65,1-.94,.1-9.03-.02-18.05-.02-27.03-.08-.47-.15-.96-.83-.88-.47,.3-.86,.68-1.29,1.03-35.6,28.44-70.89,57.22-106.53,85.58-1.92,1.53-3.21,3.25-3.64,5.71-.18,1.02,.03,3.06-2.23,2.1-.18-.29-.29-.63-.14-.91,.32-.59,.02-.95-.12-.3,0,.05-.34,.06-.34,.07,2.88,25.01,.49,50.11,1.25,75.15,.13,4.48-.08,8.91,1.61,13.27,1.37,3.54-2.03,8.56-6.21,10.05-3.2,1.14-5.33-.15-6.85-4.15Z"/><path class="h" d="M.3,42.99c1.57,.91,1.19,2.66,1.56,4,2.72,9.97,8.09,18.15,16.11,24.6,15.15,12.19,30.32,24.35,45.47,36.53,1.16,.94,2.39,1.84,3.38,2.94,.86,.96,.83,2.13-.2,3.1-.9,.85-1.81,.65-2.69,0-1.2-.89-2.37-1.82-3.54-2.75-18.66-14.98-37.3-29.98-55.99-44.93-1.24-.99-2.17-2.61-4.1-2.5v-20.99Z"/><path class="h" d="M249.7,63.98c-1.92-.09-2.86,1.52-4.1,2.51-18.68,14.95-37.33,29.95-55.98,44.93-1.17,.94-2.34,1.86-3.54,2.75-.87,.65-1.79,.86-2.68,0-1.02-.98-1.05-2.15-.2-3.11,.99-1.1,2.22-2,3.38-2.94,14.5-11.66,28.92-23.43,43.56-34.92,9.51-7.47,16.02-16.72,18.6-28.63,.12-.57,.64-1.06,.97-1.59v20.99Z"/><path class="h" d="M.3,94.98c1.11,.53,.94,1.65,1.17,2.57,2.73,10.89,8.57,19.7,17.4,26.61,7.2,5.64,14.32,11.37,21.35,17.21,1.55,1.28,5.13,2.39,2.78,5.21-2,2.4-3.83-.47-5.35-1.68-12.49-9.93-24.91-19.94-37.35-29.93v-20Z"/><path class="h" d="M249.7,114.97c-12.31,9.88-24.62,19.76-36.92,29.65-.78,.62-1.53,1.28-2.33,1.87-1.13,.84-2.41,1.48-3.53,.18-1.34-1.55-.33-2.77,.92-3.77,5.56-4.49,10.91-9.27,16.75-13.37,12.35-8.69,21.34-19.68,25.12-34.55v20Z"/><path class="as" d="M249.7,39.99c-1.64-1.46-.95-3.4-.97-5.14-.07-9.09,0-18.18-.06-27.28-.01-1.83,.78-4.2-2.22-4.68,.41-1.23,2.17-1.4,2.24-2.9,2.21,.08,.92,1.75,.93,2.5,.1,12.5,.07,24.99,.07,37.49Z"/><path class="am" d="M2.12,2.05c-1.65,2.44-.74,5.18-.78,7.77-.13,8.5-.02,16.99-.07,25.49,0,1.59,.58,3.38-.97,4.68,0-12.5-.03-24.99,.07-37.49C.37,1.75-.92,.08,1.3,0l.82,2.05Z"/><path class="bo" d="M72.13,398.9c-1.63-2.48-4.01-5.2,2-4.12,.95,.17,2.16-1.18,3.25-1.82l.56-.1c.46,2.67-2.07,3.94-2.83,6.05h-2.99Z"/><path class="c" d="M.3,126.97c1.64,6,1.64,12,0,18v-18Z"/><path class="bh" d="M193.84,212.95c.64-.32,1.28-.64,1.92-.95l.22-.12c.61,1.62,.32,3.3,.32,4.95,.02,55.26,.03,110.52-.07,165.78,0,1.64,1.44,3.94-1.2,5.07-4.88-39.12-20.88-73.18-46.69-102.75-6.35-7.27-13.34-13.9-20.66-20.19-2.07-1.78-3.3-1.69-5.36,.02-7.93,6.61-14.95,14.14-22.16,21.47-1.73-2.33,.4-3.55,1.46-5.05,5.32-7.47,12.72-12.8,19.36-18.91,2.71-3.21,6.4-.95,9.56-1.73,6.65,4.44,12.52,9.81,17.83,15.74,11.56,12.92,21.97,26.66,30.3,41.96,4.23,7.77,7.48,15.95,11.12,23.98,.88,2.82,2.31,5.52,1.76,8.63-.39,3.55,1.49,6.82,1.24,9.88,.09,1.14,.91,.33,.29,.58-.1,.04-.15-.12-.19-.45-.63-4.3-.45-8.62-.45-12.94,.02-42.45,0-84.89,.04-127.34,0-2.59-.68-5.38,1.37-7.64Z"/><path class="bh" d="M122.01,262.93c-6.97,6.4-14.63,12.1-20.32,19.83-.8,1.08-1.72,1.99-1.52,3.46-13.83,16.92-25.63,35.08-33.45,55.61-2.77,7.27-5.07,14.72-7.59,22.08h-1.96c-.76-2.36,.18-4.53,.99-6.6,1.02-2.6,1.18-5.09,.29-7.7-.11-2.49,.99-4.65,1.84-6.88,10.11-27.45,26.16-51.06,46.59-71.76,3.81-3.86,7.76-7.69,12.58-10.39,1.5,.07,2.04,1.2,2.55,2.36Z"/><path class="ae" d="M135.96,362.02c2.34-.25,4.71-.77,8.1,.91-6.99,2.35-13.17,2.54-19.2,3.44-15.07,2.25-30.15,4.35-45.46,3.62-3.49-.17-6.96-.5-10.18-1.91-2.26-.99-4.17-2.35-2.36-5.26,1.01-.49,1.68-2.22,3.2-.89,9.07,3.48,18.5,2.93,27.91,2.48,9.91-.47,19.81-1.07,29.71-1.62,2.7-.98,5.6,.28,8.29-.77Z"/><path class="ai" d="M54,212.87c.08,2.32,.22,4.64,.22,6.96,.02,54.35,.02,108.71,.04,163.06,0,1.62-.48,3.34,.72,4.79,0,1.06,0,2.12,0,3.18-.38,.65-.6,1.59-1.7,.96-.02-58.21-.04-116.42-.04-174.63,0-1.47-.26-3.02,.75-4.33Z"/><path class="bm" d="M195.03,387.68c1.24-1.63,.71-3.52,.71-5.3,.02-55.84,0-111.69,.01-167.53,0-.99,.15-1.98,.22-2.97,1.35,2.32,.78,4.88,.78,7.33,.05,55.74,.05,111.47,.06,167.21,0,.67,.08,1.34-.02,1.99-.13,.83,.3,2.41-1.27,1.93-1.06-.32-.68-1.69-.5-2.66Z"/><path class="ax" d="M51.31,392.57V213.27h.5v179.5l-.5-.21Z"/><path class="au" d="M170.75,381.28c-2.08,5.61-7.6,5.24-11.96,6.52-1.65,.48-2.79,.92-3.69,2.24-.2-.11-.4-.22-.6-.32-2.28-3.14-4.42-3.25-6.4,.3-.46,.2-.91,.18-1.35-.04-1.14-1.19,.42-2.9-.8-4.07-.04-2.14-.28-4.3,.84-6.28,.63,.17,.69,.79,.95,1.24,0,1.75,.7,2.02,2.02,.94,1.08-.26,1.49,.15,1.25,1.23,5.31,2.53,10.53,2.9,15.74-.38,1.21-.76,2.54-1.59,4.14-1.32l-.14-.08Z"/><path class="ad" d="M77.94,392.86c-.2-.01-.38,.02-.56,.1,1.85-4.69,1.06-9.94,2.61-15.34,1.51,1.45,1.26,2.55,1.26,3.59,0,7.26,1.07,7.91,7.54,4.59,1.69-.45,3.14-.63,2.28,1.93-.93,.31-2.32,.33-2.71,.97-2.48,4.05-6.2,4.66-10.41,4.17Z"/><path class="ba" d="M148.08,350.96c-4.03,5.99-10.52,4.77-16.59,5.57,1.46-3.4,3.62-5.27,7.45-4.71,2.89,.42,5.43-.93,8.04-1.84,.58,.09,.96,.41,1.1,.98Z"/><path class="bl" d="M146.95,389.91c.25,0,.5,0,.74,0,2.4,.86,4.79-.43,7.19-.05l.22,.18c.02,2.11-.98,3.86-2.22,5.4-2.72,3.39-5.2,2.83-7.01-1.47,.22-1.39-.29-2.97,1.06-4.07Z"/><path class="s" d="M158.88,352.88c2.07,.09,3.77,.91,3.3,3.21-.33,1.61-1.11,3.85-3.69,2.14-.96-.63-1.55-.12-2.04,.58-1.06,1.49-2.09,1.17-3.3,.18-1-.82-.97-1.68-.29-2.55,.81-1.04,1.11-3.29,3.15-2.07,2.15,1.28,2.57,.07,2.96-1.57l-.08,.1Z"/><path class="g" d="M75.14,355.08c1.9-3.13,1.28-7.45,5.85-7.34,1.38,.03,2.89,1.11,2.51,2.51-1.04,3.87-4.29,4.55-8.37,4.83Z"/><path class="ac" d="M184.72,392.87c.74-1.25,1.96-2.59,.31-3.89-3.04-2.41-1.4-4.48,.2-6.67,4.59,3.52,4.7,6,.57,11.45-.56-.05-.93-.33-1.09-.88Z"/><path class="bl" d="M109.09,391.93c.32-1.65-.34-2.91-1.58-3.91-1.88-1.52-.53-2.96,.12-4.38,.3-.67,.62-1.7,1.73-1.08,1.36,.76,2.29,1.96,2.55,3.49,.38,2.2-.05,4.26-1.63,5.96-.42,.35-.82,.3-1.19-.08Z"/><path class="ba" d="M135.9,387.78c.41-2.06,1.06-4.16,3.71-3.47,2.31,.6,2.7,2.76,2.4,4.85-.18,1.27-.78,2.48-1.19,3.72-.32,.34-.68,.4-1.09,.18-.92-.85-1.56-1.96-2.57-2.73-.65-.74-1.93-1.18-1.26-2.56Z"/><path class="af" d="M135.9,387.78c.69,.66,1.39,1.33,2.08,1.99-.78,1.77,.16,2.58,1.7,3.06,.38,.02,.76,.04,1.14,.05-.12,1.39-.89,2.46-1.81,3.38-.93,.94-2.06,1.69-3.48,.92-1.36-.74-1.68-2.04-1.37-3.38,.47-2.04,1.14-4.02,1.73-6.03Z"/><path class="an" d="M73,387.5c-.15-3.93,.09-7.76,3.44-12.31-.65,6.21-1.05,11.01-2.47,15.67-2.34-.53-1.03-2.13-.98-3.36Z"/><path class="at" d="M177.93,355.13c-.41,1.34-.73,3.02-2.69,2.79-1.09-.13-2.47-.83-2.23-2.2,.26-1.54,.67-3.58,2.7-3.57,1.34,0,2.16,1.37,2.23,2.98Z"/><path class="bn" d="M122.96,389.85c-.19,4.59-2.54,6.56-7.56,6.39,2.91-2.46,5.24-4.43,7.56-6.39Z"/><path class="d" d="M122.18,354.12c-.33,1.66-.82,3.35-2.49,3.39-1.08,.03-2.78-.81-2.47-2.48,.27-1.4,.83-3.21,2.46-3.4,1.4-.16,2.21,1.19,2.5,2.49Z"/><path class="ak" d="M178.97,383.19c.54,2.39-1.05,4.38-1.27,6.63-.91,.17-1.43-.02-.97-1.08,.1-1.29,.19-2.58,.29-3.86,.81-1.72-.04-3.66,.71-5.38-.5-2.32,.65-4.31,1.28-6.41,1.79-.12,1.32,.95,1,1.93l-.33,2.94c-.81,1.67,.12,3.58-.72,5.24Z"/><path class="bp" d="M119.16,376.06c-.1,1.29-.2,2.58-.29,3.86-.87,1.64,.13,3.55-.75,5.18,.01,1.42,.24,3.08-1.62,3.44-.56,.11-.39-1.04-.32-1.66,.81-1.68-.09-3.58,.7-5.26-.28-2.96,.24-5.79,1.41-8.51,2.14,.43,.97,1.84,.87,2.94Z"/><path class="bv" d="M100.98,378.75c-.02-1.67,.12-3.28,2.29-4.47-1.38,5.69-.68,11.26-2.38,16.54-.91,.19-1.41,0-.98-1.06l.29-4.87c.92-1.96-.23-4.18,.77-6.13Z"/><path class="aq" d="M130.87,379.67c-.21-2.3,.12-4.43,1.99-7,.53,5.02-.21,9.12-.98,13.22-1.12,.16-1.31-.58-1.37-1.44,.1-1.59-.3-3.23,.36-4.78Z"/><path class="ab" d="M158.96,352.79c-1.35,1.47-2.63,.9-3.64-.32-1.12-1.36,.21-2.41,.8-3.47,.4-.72,1.07-1.15,2.01-.51,1.78,1.24,1.05,2.84,.75,4.4l.08-.1Z"/><path class="a`" d="M151.01,383.06l-1.25-1.23c2.1-2.33,4.21-4.66,6.31-6.99-.32,3.86-3.24,5.64-5.07,8.22Z"/><path class="r" d="M170.75,381.28l.14,.08c-.51-2.58,.04-5.02,1.06-7.39,2.44,.28,1.17,1.87,1.07,3.05-.27,1.68-.27,3.5-2.27,4.26Z"/><path class="l" d="M70.06,361.93c-1.07,.3-2.13,.59-3.2,.89,.83-2.85,2.78-4.77,5.21-6.3,.47,.44,.48,.89,.05,1.36-1.09,1.14-2.71,2.01-2.06,4.04Z"/><path class="ah" d="M159.97,369.98c.25-.94,.4-1.92,.79-2.79,.44-.98,1.39-1.65,2.39-1.05,1.68,1.01-.09,1.9-.3,2.86-.95,.37-1.63,1.51-2.88,.98Z"/><path class="bc" d="M135.96,362.02c-2.62,1.73-5.51,.68-8.28,.77,2.68-1.11,5.49-.84,8.28-.77Z"/><path class="y" d="M159.97,369.98c.92-.44,1.68-1.38,2.88-.98-.51,.82-.97,1.69-1.55,2.46-.46,.61-1.07,1.67-1.89,1.02-1.15-.91,.31-1.66,.55-2.5Z"/><path class="at" d="M130.97,384.88l.91,1.01c.09,1.7-.35,3.13-2.54,4.91,.37-2.6,.61-4.24,.84-5.88,.23-.48,.5-.47,.79-.05Z"/><path class="bb" d="M146.95,389.91c-.13,1.41,.44,3.01-1.06,4.07h.02c-.72-2.11-.62-4.24-.05-6.37l.11-1.69c1.46,1.05,.81,2.62,.99,3.99Z"/><path class="v" d="M92.01,384.87c.8-1.52,2.12-2.25,3.83-2.65,.2,2.24-1.24,3.01-2.76,3.72-.59-.12-.95-.48-1.08-1.07Z"/><path class="bk" d="M173.02,377.02c-.48-.97,.26-2.38-1.07-3.05,.08-1,.38-1.87,1.74-2.43,.42,1.99,.43,3.77-.66,5.48Z"/><path class="bd" d="M92.01,384.87l1.08,1.07c-.48,.82-1.02,1.55-2.02,1.78-.11-1.42-1.06-1.83-2.28-1.93,.79-1.3,2.11-.75,3.22-.92Z"/><path class="bn" d="M184.72,392.87l1.09,.88c-.63,1.48-1.92,1.81-3.75,2.37,.35-2.01,1.57-2.58,2.67-3.25Z"/><path class="b`" d="M109.09,391.93c.4,.03,.79,.06,1.19,.08-.4,1.31-.93,2.53-2.52,2.7-.15,.02-.51-.47-.5-.7,.05-1.15,.87-1.68,1.82-2.08Z"/><path class="n" d="M148.08,350.96c-.37-.33-.74-.66-1.1-.98,.7-.7,1.39-2.1,2.45-1.05,.49,.49-.49,1.59-1.35,2.04Z"/><path class="u" d="M119.16,376.06l-.87-2.94c.3-.57,.49-1.51,.91-1.62,.97-.26,.89,.71,.79,1.26-.19,1.12-.55,2.2-.83,3.3Z"/><path class="ao" d="M147.09,376.02c0-1.19,.57-2,1.58-2.79,.54,1.9,.42,3.42-.6,4.81-.91-.39-.4-1.47-.99-2.02Z"/><path class="q" d="M100.98,378.75c-.04,2.07,.74,4.25-.77,6.13-.1-2.09-.29-4.19,.77-6.13Z"/><path class="aa" d="M73,387.5c.21,1.15-.15,2.47,.98,3.36-.14,.81-.4,1.79-1.29,1.74-1.26-.08-.68-1.23-.57-1.87,.17-1.1,.58-2.15,.89-3.23Z"/><path class="bl" d="M145.85,387.61c.02,2.12,.03,4.25,.05,6.37-1.13-2.12-1-4.24-.05-6.37Z"/><path class="e" d="M176.74,388.74l.97,1.08c-.25,.9-.08,2.02-1.34,2.41-.89-1.28-.25-2.38,.38-3.49Z"/><path class="bi" d="M99.92,389.75c.33,.35,.65,.71,.98,1.06-.18,1.01-.03,2.23-1.51,2.49-.55-1.31-.2-2.46,.53-3.55Z"/><path class="m" d="M72.11,357.89c-.02-.45-.03-.91-.05-1.36,.57-.75,1.6-1.84,2.14-.79,.88,1.73-1.19,1.59-2.09,2.15Z"/><path class="o" d="M180.03,375.01c-.33-.64-.67-1.29-1-1.93,.12-.86,.82-2.01,1.35-1.53,1.11,.99,.4,2.35-.35,3.46Z"/><path class="bs" d="M116.88,381.63c.11,1.8,.69,3.66-.7,5.26-.16-1.81-.2-3.6,.7-5.26Z"/><path class="p" d="M178.97,383.19c.03-1.78-.69-3.66,.72-5.24,.16,1.8,.13,3.58-.72,5.24Z"/><path class="p" d="M177.74,379.49c-.01,1.82,.74,3.75-.71,5.38-.13-1.84-.2-3.68,.71-5.38Z"/><path class="bs" d="M118.12,385.11c-.06-1.77-.65-3.62,.75-5.18,.17,1.79,.19,3.56-.75,5.18Z"/><path class="k" d="M147.09,376.02c.33,.67,.66,1.35,.99,2.02l-.33,2.84-.95-1.24c.1-1.21,.2-2.41,.3-3.62Z"/><path class="av" d="M53.29,391.82c.57-.32,1.13-.64,1.7-.96,.06,1.31-.11,2.52-1.39,3.25l-.3-2.29Z"/><path class="br" d="M130.97,384.88c-.26,.03-.53,.04-.79,.05-.18-1.81-.2-3.59,.69-5.26,.03,1.73,.07,3.47,.1,5.21Z"/><path class="ar" d="M126.97,98.97c.06,28.32,.12,56.64,.19,84.95,0,2.93-.32,5.74,2.18,8.32,1.83,1.89,1.37,4.86-.88,6.69-3.07,2.5-5.86,1.28-8.35-1.19-.38-2.5-.73-5.01,1.57-6.88,1.19-.96,1.19-2.27,1.19-3.62-.05-29.72-.09-59.45-.13-89.17,1.53-.28,2.92,.14,4.24,.89Z"/><path class="b" d="M59.16,349.91c3.06,5.2-1.45,9.31-2,14-1.72-1.65-.96-3.78-.96-5.68-.04-45.79-.06-91.58,.02-137.37,0-3.78-1.49-7.79,1.13-11.38,.31-.42,.32-1.61,.01-1.85-4.14-3.22-2.06-7.09-1.27-10.84-1.86-2.13-.79-4.43-.27-6.63,7.13-30.22,22.94-54.9,47.29-74.09,3.26-2.57,6.42-5.26,9.74-7.74,1.5-1.13,2.81-2.98,5.16-2.36,1.85-1.19,.24-3.51,1.99-5.45v6.27c0,26.27,0,52.54,0,78.81,0,2.15,.49,4.56-1.03,6.26-2.67,2.96-1.09,4.99,1.03,7.08,4.48,4.4,10.83,2.77,12.44-3.24,.15-.56,.15-1.45-.19-1.82-3.22-3.52-2.23-7.83-2.24-11.89-.06-25.41-.03-50.81-.03-76.22v-5.26c1.74,1.96,.14,4.27,2,5.46,1.3-.56,2.24,.24,3.17,.89,29.69,20.85,51.09,47.58,59.14,83.77,.46,2.06,1.36,4.2-.38,6.15,2.42,4.56,.52,8.79-.9,13.09-.36,1.1-.32,2.28,.82,3.07v152.15c-1.14-5.1-5.62-9.56-3-15.18,.5-.3,.79-.74,.87-1.32-.32-2.66-.27-5.32-.28-7.98-.06-40.9,.13-81.8-.1-122.69-.95-1.67,.49-4.22-1.95-5.33-11.58,8.44-22.43,17.75-33.55,26.73-7.38,5.96-14.83,11.82-22.16,17.84-1.4,1.15-2.99,2.14-3.7,3.95-.78,1.63-1.95,1.5-3.25,.7-1.95-1.19-3.41-.35-4.72,1.12-.66-.61-1.32-1.21-1.98-1.82-2.54-4.05-6.71-6.32-10.27-9.22-15.42-12.54-30.84-25.09-46.38-37.49-.91-.72-1.77-1.5-2.92-1.79-2.16,1.6-.73,4.22-1.76,6.13-.27,40.63-.04,81.24-.11,121.86,0,2.66,.05,5.33-.27,7.97,.09,.57,.37,1.02,.86,1.34Z"/><path class="bf" d="M118.02,105.98c-18.27,13.52-35.4,28.14-46.79,48.36-7.49,13.29-13.14,27.22-15.14,42.47-.87,2.53-1.86,3.25-4.34,1.19-10.34-8.58-20.92-16.87-31.29-25.42-8.98-7.4-14.33-16.86-15.36-28.6-.04-.29-.07-.58-.11-.87-.18-4.08-.07-8.16-.05-12.25,0-1.77-.17-3.64,1.39-5,9.89,7.82,19.77,15.65,29.68,23.44,4.4,3.46,8.34,3.45,10.88,.05,2.52-3.38,1.53-7.29-2.77-10.72-7.27-5.8-14.57-11.54-21.82-17.36-9.42-7.56-15.92-16.87-17.13-29.27-.04-.27-.07-.53-.11-.8-.04-5.38-.43-10.77,.26-16.14,.18-.53,.49-.98,.92-1.34,17.23,13.82,34.46,27.65,51.7,41.47,.91,.73,1.84,1.41,2.76,2.13,3.43,2.67,6.84,2.53,9.8-.56,2.76-2.88,2.09-6.84-1.72-9.94-14.84-12.03-29.64-24.11-44.69-35.87C13.82,62.93,6.59,53.3,5.15,40c-.05-.3-.09-.61-.14-.91-.25-7.74-.08-15.48-.09-23.23,0-1.78-.17-3.68,1.43-5.04,13.11,10.4,26.26,20.74,39.31,31.2,22.76,18.24,45.4,36.63,68.25,54.75,3.24,2.57,4.96,5.13,4.12,9.2Z"/><path class="be" d="M4.32,39.92c-.28,0-.8-.01-.8-.02-.04-9.91-.06-19.82-.01-29.73,0-.38,.57-.75,.88-1.13,1.89,7.32,.57,14.78,.83,22.17,.1,2.89,.84,5.96-.89,8.71Z"/><path class="j" d="M4.32,39.92c.02-10.29,.04-20.59,.06-30.88,.3,.33,.6,.65,.9,.98,.93,9.97,.54,19.94,.2,29.91l-.33,.07c-.28-.02-.55-.04-.83-.07Z"/><path class="f" d="M5.48,39.93c-.07-9.97-.13-19.94-.2-29.91,.35,.27,.71,.54,1.06,.8-.02,8.12-.02,16.23-.09,24.35-.01,1.6,.5,3.34-.78,4.76Z"/><path class="bt" d="M4.34,91.87c-.03,.16-.01,.36-.1,.47-.16,.21-.38,.37-.58,.56-.88-2.5-.29-5.08-.34-7.62-.08-4.07,.08-8.14,.16-12.21,0-.08,.22-.22,.35-.22,.15,0,.31,.09,.46,.15,1.63,6.29,1.53,12.58,.05,18.87Z"/><path class="ag" d="M4.3,143.94c-1.01-2.14-1.23-2.16-.96-4.95,.48-4.98-1.41-10.14,1.06-14.97,1.33,6.64,1.55,13.28-.1,19.91Z"/><path class="bj" d="M4.34,91.87c-.02-6.29-.03-12.58-.05-18.87,.75-.04,1.48-.03,1.94,.72l.08,.43c-1.35,5.87,.13,11.87-.83,17.76l-.32,.09c-.27-.03-.55-.08-.82-.13Z"/><path class="bq" d="M4.3,143.94c.03-6.64,.07-13.28,.1-19.91,.3,.35,.59,.69,.89,1.04,.86,6.28,.58,12.57,.16,18.86l-.35,.05c-.26,0-.53-.02-.79-.04Z"/><path class="f" d="M5.45,143.93c-.05-6.29-.1-12.58-.16-18.86,.34,.26,.69,.53,1.03,.79-.59,6.01,1.03,12.13-.88,18.07Z"/><path class="bf" d="M193.91,196.78c-2.57-18.5-9.95-35.05-20.21-50.47-10.97-16.51-26.15-28.62-41.72-40.34-.84-4.07,.89-6.61,4.12-9.19,34.45-27.49,68.76-55.16,103.12-82.77,1.42-1.14,2.95-2.13,4.42-3.19,1.59,1.36,1.43,3.25,1.43,5.04,0,7.74,.16,15.48-.07,23.23-.05,.3-.09,.61-.14,.91-1.45,13.3-8.67,22.92-18.93,30.94-14.79,11.55-29.32,23.44-43.9,35.24-4.52,3.66-5.3,7.33-2.56,10.6,2.6,3.11,6.81,3.08,11.06-.31,17.77-14.21,35.49-28.48,53.23-42.73,.19,.21,.38,.42,.58,.63,1.46,5.55,.5,11.2,.63,16.81-.04,.28-.08,.56-.12,.84-1.25,12.59-7.92,21.95-17.52,29.57-7.28,5.78-14.57,11.54-21.8,17.37-4,3.23-4.84,7.12-2.41,10.39,2.53,3.41,6.48,3.43,10.88-.03,9.91-7.8,19.79-15.62,29.68-23.44,2.76,6.22,1.25,12.65,.95,19.02-.73,11.56-6.46,20.48-15.06,27.65-10.33,8.62-20.96,16.88-31.32,25.47-2.5,2.08-3.48,1.29-4.34-1.22Z"/><path class="ap" d="M245.6,9.05c.35,.53,.99,1.07,.99,1.6,.02,9.75-.04,19.5-.09,29.25,0,.07-.24,.21-.37,.2-.15,0-.3-.12-.46-.18-1.17-1.41-1.02-3.12-.94-4.74,.44-8.71-1.06-17.48,.86-26.13Z"/><path class="aw" d="M245.6,9.05c.03,10.29,.05,20.58,.08,30.87-.27,.03-.54,.06-.82,.07l-.34-.06c-.37-9.97-.74-19.94,.19-29.9l.89-.98Z"/><path class="f" d="M244.71,10.04c-.06,9.97-.12,19.93-.19,29.9-1.72-5.49-.5-11.12-.77-16.69-.21-4.13-.08-8.28-.1-12.42,.35-.26,.71-.53,1.06-.79Z"/><path class="ay" d="M245.72,124.96c2.28,1.26,.83,3.34,.9,4.95,.24,5.23,.08,10.47,.05,15.71,0,.09-.21,.18-.32,.26l-.68-1.01c-1.52-6.64-1.59-13.28,.05-19.92Z"/><path class="ay" d="M245.71,72.99q1,2.14,1,4.92c0,4.91-.02,9.82-.04,14.73,0,.08-.22,.17-.33,.25l-.68-1.02c-1.48-6.3-1.58-12.59,.05-18.88Z"/><path class="f" d="M244.63,144.88c-2.02-6.25-.36-12.69-.95-19.02,.32-.28,.64-.55,.96-.83,1.02,6.65,.72,13.32,.15,19.98l-.16-.14Z"/><path class="i" d="M244.79,145.02c-.05-6.66-.1-13.32-.15-19.98,.36-.03,.72-.05,1.07-.08-.02,6.64-.03,13.28-.05,19.92-.29,.05-.58,.09-.87,.15Z"/><path class="w" d="M245.71,72.99c-.02,6.29-.03,12.59-.05,18.88-.27,.06-.54,.1-.81,.13l-.32-.09c-.97-5.89,.51-11.89-.84-17.76l.07-.42c.45-.76,1.19-.77,1.94-.74Z"/><path class="bf" d="M129.98,261.11c-1.16-1.09-.79-1.98,.31-2.86,19.84-15.83,39.67-31.66,59.5-47.49,1.8,3.03,1.4,6.44,1.41,9.68,.09,38.25,.08,76.51,.02,114.76,0,2.56,.57,5.49-2.54,6.98-6.07-13.68-12.4-27.22-20.96-39.57-10.75-15.5-22.84-29.79-37.74-41.5Z"/><path class="al" d="M188.68,342.18c1-1.62,1.19-3.38,1.19-5.26-.04-42.06-.05-84.11-.07-126.17,1.18-1.06,1.73-.43,1.87,.79,.17,1.47,.18,2.96,.27,4.44,.71,1.6,.38,3.29,.38,4.93,.02,41.64,.04,83.29-.06,124.93,0,1.52,1.31,3.79-1.35,4.67,.08-.21,.06-.41-.06-.61-.72-2.58-1.44-5.16-2.16-7.74Z"/><path class="bf" d="M60.21,210.74c13.36,10.65,26.73,21.29,40.09,31.94,6.1,4.86,12.2,9.73,18.23,14.67,1.09,.89,3.43,1.56,1.49,3.77-19.1,15.37-34.11,34.15-46.25,55.37-4.87,8.51-8.55,17.55-12.62,26.42-2.32-1.48-2.37-3.87-2.37-6.21-.06-38.93-.1-77.86,.09-116.79,.01-3.02-.56-6.35,1.35-9.18Z"/><path class="al" d="M60.21,210.74c-.02,42.11-.05,84.22-.02,126.32,0,1.95,.62,3.9,.95,5.85-.66,2.33-1.32,4.67-1.99,7-.12,.19-.14,.4-.06,.61-2.97-.53-1.34-2.83-1.35-4.17-.12-19.32-.08-38.65-.08-57.97,0-21.99-.01-43.98,.02-65.97,0-1.81-.37-3.67,.38-5.43,.08-1.81,.1-3.62,.27-5.42,.11-1.21,.68-1.85,1.87-.82Z"/><path class="aj" d="M154.88,389.86c-2.39,1.02-4.77,3.96-7.19,.05,.01-2.05-.14-4.11,2.93-4.06,2.75,.04,4.54,.85,4.26,4.01Z"/><path class="bg" d="M139.69,392.83c-1.27,.44-2.74,2.03-3.71-.17-.74-1.69-.05-2.89,2-2.89,.99,.78,2.1,1.5,1.7,3.06Z"/><path class="bh" d="M190.9,350.52c1.71-1.47,.87-3.43,.87-5.15,.09-43.13,.12-86.26,.16-129.39,1.18,1.02,.9,2.42,.9,3.72,0,42.72,.02,85.44-.1,128.16,0,.73,1.93,4.06-1.83,2.66Z"/><path class="bh" d="M58.07,216.98c.04,42.8,.08,85.6,.17,128.4,0,1.72-.83,3.68,.87,5.15-.44,.84-1.24,1.51-1.63,.27-.44-1.37-.3-2.94-.3-4.43-.01-41.39-.02-82.78,.02-124.17,0-1.75-.64-3.69,.88-5.22Z"/><path class="t" d="M5.48,91.9c.21-5.93-1.31-11.93,.83-17.76-.51,5.91,.95,11.91-.83,17.76Z"/><path class="x" d="M243.7,74.15c2.14,5.83,.61,11.84,.84,17.76-1.8-5.85-.33-11.85-.84-17.76Z"/></svg>