<svg width="250" height="397" viewBox="0 0 250 397" fill="none" xmlns="http://www.w3.org/2000/svg">
<path d="M1.93011 0C3.80011 1.29 5.76011 2.47 7.53011 3.89C44.8101 33.81 82.0701 63.76 119.34 93.69C120.37 94.52 121.47 95.25 122.54 96.03C124.61 97.77 124.37 100.21 124.37 102.51C124.41 128.99 124.34 155.46 124.45 181.94C124.47 186.83 121.72 190.8 120.99 195.38C120.79 195.97 120.46 196.5 120.04 196.95C116.09 196.4 115.66 193.67 116.8 190.74C118.3 186.87 118.32 182.94 118.32 178.94C118.32 156.45 118.32 133.97 118.32 111.48C118.32 108.82 118.12 106.14 119.2 103.59C119.45 102.99 119.2 103.76 119.34 103.11C119.16 103.23 119.18 103.46 119.07 103.64C116.78 104.84 116.97 102.7 116.81 101.72C116.36 99.06 114.9 97.29 112.85 95.66C77.3101 67.32 42.0501 38.62 6.53011 10.27C6.10011 9.94 5.71011 9.56 5.26011 9.28C4.60011 9.24 4.51011 9.72 4.44011 10.24C4.59011 19.21 4.20011 28.15 4.65011 37.07C4.96011 37.43 5.25011 37.8 5.54011 38.18C7.24011 41.64 7.49011 45.56 9.06011 49.08C12.4701 56.73 17.9301 62.59 24.4401 67.71C38.2801 78.6 51.9301 89.74 65.7101 100.72C67.2701 101.96 68.8401 103.21 70.2001 104.67C73.4101 108.09 73.8301 111.85 71.4401 115.04C69.0801 118.2 64.4301 119.11 60.6801 116.76C55.7401 113.67 51.4901 109.65 46.9201 106.05C33.2101 95.25 19.8701 84 6.16011 73.24C5.57011 72.84 5.05011 72.26 4.25011 72.39C4.23011 78.11 4.90011 83.8 3.92011 89.46C3.85011 89.89 3.95011 90.15 4.05011 90.09C4.18011 90.01 4.25011 89.84 4.36011 89.71C4.84011 89.77 5.25011 89.97 5.57011 90.33C6.76011 92.4 7.01011 94.75 7.63011 96.99C10.1901 106.29 16.4501 112.88 23.6101 118.76C30.1601 124.14 36.8301 129.38 43.4501 134.69C44.3601 135.42 45.3001 136.1 46.1101 136.95C49.5101 140.53 50.0101 144.99 47.3801 148.24C44.7301 151.51 40.2901 152.01 36.1901 149.01C25.9901 141.54 16.4501 133.22 6.59011 125.34C6.15011 125 5.74011 124.6 5.31011 124.28C4.72011 124.09 4.50011 124.43 4.39011 124.97C4.10011 130.34 5.05011 135.73 3.81011 141.04C3.66011 141.69 3.61011 142.06 3.75011 141.41C3.75011 141.39 4.05011 141.43 4.24011 141.44C4.69011 141.56 5.07011 141.78 5.40011 142.1C6.89011 144.95 7.14011 148.16 8.05011 151.17C11.2901 161.91 19.5701 168.42 27.6701 175.06C34.3501 180.54 41.1401 185.9 47.9001 191.28C50.3501 193.23 52.4701 196.07 56.3001 195.17C56.4801 195.13 56.7401 195.99 56.8501 196.5C56.6701 199.16 56.3801 201.79 57.8601 204.25C58.4601 205.25 58.6901 206.53 58.2901 207.64C56.4801 212.67 57.4101 217.86 57.4101 222.97C57.3501 267.38 57.3401 311.8 57.4001 356.21C57.4001 357.37 57.3901 358.54 57.7101 359.67C58.0201 360.45 58.4801 361.16 58.9401 361.87C57.6901 369.82 55.2301 377.55 54.8001 385.64C52.3001 384.71 53.5801 382.57 53.5701 381.09C53.4601 360.78 53.5001 340.47 53.5001 320.16C53.5001 285.53 53.5001 250.91 53.5101 216.28C53.5101 214.46 53.2301 212.62 53.8101 210.83C55.1301 205.46 52.8201 202.09 48.5201 198.86C38.7201 191.51 29.4401 183.48 19.7701 175.95C10.4101 168.66 3.95011 159.59 1.25011 147.95C1.07011 147.16 1.06011 146.28 0.120107 145.93V142.93C0.950107 136.93 0.950107 130.93 0.120107 124.93V112.93C2.13011 112.26 3.13011 113.91 4.36011 114.87C15.3201 123.46 26.0801 132.29 37.0201 140.91C38.2601 141.89 39.3201 143.25 41.6001 143.35C40.6501 141 38.9301 139.95 37.4401 138.78C31.0501 133.76 24.9201 128.43 18.5001 123.46C8.39011 115.65 1.67011 105.86 0.110107 92.93V61.94C2.54011 60.45 3.77011 62.62 5.20011 63.75C23.3101 78.1 41.2801 92.63 59.3201 107.06C60.8701 108.3 62.3401 109.65 64.4001 110.49C64.8201 107.95 62.7501 107.39 61.5301 106.4C47.1301 94.87 33.0301 82.96 18.4601 71.64C8.28011 63.74 1.77011 53.84 0.110107 40.94V37.94C1.27011 26.86 0.250107 15.74 0.690107 4.65C0.750107 3.12 -0.579893 0.97 1.93011 0Z" fill="#2257AE"/>
<path d="M119.81 196.9L119.91 195.69C120.9 195.4 121.88 195.69 122.87 195.76C127.38 196.03 128.77 194.32 126.99 190.12C125.57 186.78 125.26 183.41 125.26 179.89C125.26 154.77 125.24 129.65 125.3 104.53C125.3 101.94 124.73 99.15 126.78 96.92C141.59 84.89 156.36 72.81 171.21 60.83C195.12 41.55 219.08 22.33 243.03 3.09999C244.05 2.27999 245.19 1.58999 246.28 0.849995C250.09 -0.220005 248.94 2.78999 248.95 4.37999C249.05 13.95 248.98 23.53 249.02 33.1C249.02 34.71 248.58 36.41 249.51 37.94V40.94C247.85 53.84 241.28 63.67 231.18 71.65C216.71 83.09 202.47 94.82 188.08 106.36C186.82 107.37 185.3 108.18 184.63 110.38C187.25 109.97 188.69 108.32 190.3 107.04C208.35 92.62 226.32 78.09 244.42 63.74C245.85 62.61 247.08 60.44 249.51 61.93V92.92C247.95 107.14 239.73 117.1 228.88 125.42C223.23 129.76 217.76 134.34 212.18 138.78C210.7 139.96 208.97 141 208.13 143.08C210.43 143.48 211.38 141.84 212.6 140.89C223.55 132.29 234.31 123.45 245.27 114.86C246.5 113.9 247.5 112.25 249.51 112.92V145.91C248.03 146.64 248.35 148.22 248.04 149.4C245.35 159.54 239.86 167.81 231.72 174.37C221.51 182.59 211.44 190.98 201.04 198.94C197.19 201.89 194.55 204.85 195.56 209.94C195.18 211 194.42 211.43 193.33 211.34C191.79 210.73 191.56 209.38 191.76 208.05C192.41 203.68 194.01 199.43 193.42 194.9C194.66 194 195.15 196.84 197.03 195.23C208.12 185.77 219.85 177.1 230.81 167.48C238 161.16 241.71 153.03 243.61 143.87C243.79 143.44 244.05 143.06 244.38 142.74C244.82 142.57 245.26 142.57 245.7 142.71C245.05 139.83 245.25 136.92 245.23 134.02C245.21 130.87 245.23 127.73 245.3 124.62C245.09 124.35 244.82 124.25 244.47 124.37C243.96 124.65 243.55 125.04 243.11 125.41C234.7 132.22 226.25 138.94 217.84 145.71C215.78 147.37 213.76 149.17 211.3 150.24C208.08 151.64 205.02 151.18 202.61 148.61C200.19 146.05 199.96 142.98 201.45 139.81C202.4 137.8 204.02 136.38 205.72 135.02C211.69 130.25 217.51 125.27 223.65 120.72C234.06 112.99 241.29 103.26 243.97 90.41C244.26 90.04 244.64 89.81 245.1 89.7C245.43 83.95 245.1 78.19 245.24 72.48C244.39 72.24 243.94 72.91 243.37 73.28C226.59 86.91 209.75 100.43 192.9 113.93C191.21 115.28 189.59 116.8 187.52 117.49C183.89 118.71 180.51 118.15 178.14 114.93C175.74 111.67 176.23 108.35 178.81 105.35C180.55 103.32 182.7 101.73 184.76 100.06C199.24 88.38 213.85 76.85 228.27 65.08C235.77 58.96 240.62 51.3 242.79 41.87C243.09 40.58 243.37 39.26 244.15 38.14C244.46 37.8 244.8 37.49 245.15 37.2C245.25 28.17 245.13 19.15 245.13 10.17C245.05 9.7 244.98 9.21 244.3 9.29C243.83 9.59 243.44 9.96999 243.01 10.32C207.41 38.76 172.12 67.54 136.48 95.9C134.56 97.43 133.27 99.15 132.84 101.61C132.66 102.63 132.87 104.67 130.61 103.71C130.43 103.42 130.32 103.08 130.47 102.8C130.79 102.21 130.49 101.85 130.35 102.5C130.35 102.55 130.01 102.56 130.01 102.57C132.89 127.58 130.5 152.68 131.26 177.72C131.39 182.2 131.18 186.63 132.87 190.99C134.24 194.53 130.84 199.55 126.66 201.04C123.46 202.18 121.33 200.89 119.81 196.89V196.9Z" fill="#2257AE"/>
<path d="M0.110107 124.92C1.75011 130.92 1.75011 136.92 0.110107 142.92V124.92Z" fill="#275BB0"/>
<path d="M193.65 210.9C194.29 210.58 194.93 210.26 195.57 209.95L195.79 209.83C196.4 211.45 196.11 213.13 196.11 214.78C196.13 270.04 196.14 325.3 196.04 380.56C196.04 382.2 197.48 384.5 194.84 385.63C189.96 346.51 173.96 312.45 148.15 282.88C141.8 275.61 134.81 268.98 127.49 262.69C125.42 260.91 124.19 261 122.13 262.71C114.2 269.32 107.18 276.85 99.9701 284.18C98.2401 281.85 100.37 280.63 101.43 279.13C106.75 271.66 114.15 266.33 120.79 260.22C123.5 257.01 127.19 259.27 130.35 258.49C137 262.93 142.87 268.3 148.18 274.23C159.74 287.15 170.15 300.89 178.48 316.19C182.71 323.96 185.96 332.14 189.6 340.17C190.48 342.99 191.91 345.69 191.36 348.8C190.97 352.35 192.85 355.62 192.6 358.68C192.69 359.82 193.51 359.01 192.89 359.26C192.79 359.3 192.74 359.14 192.7 358.81C192.07 354.51 192.25 350.19 192.25 345.87C192.27 303.42 192.25 260.98 192.29 218.53C192.29 215.94 191.61 213.15 193.66 210.89L193.65 210.9Z" fill="#2257AE"/>
<path d="M121.82 260.88C114.85 267.28 107.19 272.98 101.5 280.71C100.7 281.79 99.78 282.7 99.98 284.17C86.15 301.09 74.35 319.25 66.53 339.78C63.76 347.05 61.46 354.5 58.94 361.86H56.98C56.22 359.5 57.16 357.33 57.97 355.26C58.99 352.66 59.15 350.17 58.26 347.56C58.15 345.07 59.25 342.91 60.1 340.68C70.21 313.23 86.26 289.62 106.69 268.92C110.5 265.06 114.45 261.23 119.27 258.53C120.77 258.6 121.31 259.73 121.82 260.89V260.88Z" fill="#2257AE"/>
<path d="M58.9701 347.86C62.0301 353.06 57.5201 357.17 56.9701 361.86C55.2501 360.21 56.0101 358.08 56.0101 356.18C55.9701 310.39 55.9501 264.6 56.0301 218.81C56.0301 215.03 54.5401 211.02 57.1601 207.43C57.4701 207.01 57.4801 205.82 57.1701 205.58C53.0301 202.36 55.1101 198.49 55.9001 194.74C54.0401 192.61 55.1101 190.31 55.6301 188.11C62.7601 157.89 78.5701 133.21 102.92 114.02C106.18 111.45 109.34 108.76 112.66 106.28C114.16 105.15 115.47 103.3 117.82 103.92C119.67 102.73 118.06 100.41 119.81 98.47V104.74C119.81 131.01 119.81 157.28 119.81 183.55C119.81 185.7 120.3 188.11 118.78 189.81C116.11 192.77 117.69 194.8 119.81 196.89C124.29 201.29 130.64 199.66 132.25 193.65C132.4 193.09 132.4 192.2 132.06 191.83C128.84 188.31 129.83 184 129.82 179.94C129.76 154.53 129.79 129.13 129.79 103.72V98.46C131.53 100.42 129.93 102.73 131.79 103.92C133.09 103.36 134.03 104.16 134.96 104.81C164.65 125.66 186.05 152.39 194.1 188.58C194.56 190.64 195.46 192.78 193.72 194.73C196.14 199.29 194.24 203.52 192.82 207.82C192.46 208.92 192.5 210.1 193.64 210.89V363.04C192.5 357.94 188.02 353.48 190.64 347.86C191.14 347.56 191.43 347.12 191.51 346.54C191.19 343.88 191.24 341.22 191.23 338.56C191.17 297.66 191.36 256.76 191.13 215.87C190.18 214.2 191.62 211.65 189.18 210.54C177.6 218.98 166.75 228.29 155.63 237.27C148.25 243.23 140.8 249.09 133.47 255.11C132.07 256.26 130.48 257.25 129.77 259.06C128.99 260.69 127.82 260.56 126.52 259.76C124.57 258.57 123.11 259.41 121.8 260.88C121.14 260.27 120.48 259.67 119.82 259.06C117.28 255.01 113.11 252.74 109.55 249.84C94.1301 237.3 78.7101 224.75 63.1701 212.35C62.2601 211.63 61.4001 210.85 60.2501 210.56C58.0901 212.16 59.5201 214.78 58.4901 216.69C58.2201 257.32 58.4501 297.93 58.3801 338.55C58.3801 341.21 58.4301 343.88 58.1101 346.52C58.2001 347.09 58.4801 347.54 58.9701 347.86Z" fill="#2056AD"/>
<path d="M117.83 103.93C99.5601 117.45 82.4301 132.07 71.0401 152.29C63.5501 165.58 57.9001 179.51 55.9001 194.76C55.0301 197.29 54.0401 198.01 51.5601 195.95C41.2201 187.37 30.6401 179.08 20.2701 170.53C11.2901 163.13 5.94009 153.67 4.91009 141.93C4.87009 141.64 4.84009 141.35 4.80009 141.06C4.62009 136.98 4.73009 132.9 4.75009 128.81C4.75009 127.04 4.58009 125.17 6.14009 123.81C16.0301 131.63 25.9101 139.46 35.8201 147.25C40.2201 150.71 44.1601 150.7 46.7001 147.3C49.2201 143.92 48.2301 140.01 43.9301 136.58C36.6601 130.78 29.3601 125.04 22.1101 119.22C12.6901 111.66 6.19009 102.35 4.98009 89.9499C4.94009 89.6799 4.91009 89.4199 4.87009 89.1499C4.83009 83.7699 4.44009 78.3799 5.13009 73.0099C5.31009 72.4799 5.62009 72.0299 6.05009 71.6699C23.2801 85.4899 40.5101 99.3199 57.7501 113.14C58.6601 113.87 59.5901 114.55 60.5101 115.27C63.9401 117.94 67.3501 117.8 70.3101 114.71C73.0701 111.83 72.4001 107.87 68.5901 104.77C53.7501 92.7399 38.9501 80.6599 23.9001 68.8999C13.6301 60.8799 6.40009 51.2499 4.96009 37.9499C4.91009 37.6499 4.87009 37.3399 4.82009 37.0399C4.57009 29.2999 4.74009 21.5599 4.73009 13.8099C4.73009 12.0299 4.56009 10.1299 6.16009 8.7699C19.2701 19.1699 32.4201 29.5099 45.4701 39.9699C68.2301 58.2099 90.8701 76.5999 113.72 94.7199C116.96 97.2899 118.68 99.8499 117.84 103.92L117.83 103.93Z" fill="#8E9BD6"/>
<path d="M4.11001 141.89C3.10001 139.75 2.88001 139.73 3.15001 136.94C3.63001 131.96 1.74001 126.8 4.21001 121.97C5.54001 128.61 5.76001 135.25 4.11001 141.88V141.89Z" fill="#1851AA"/>
<path d="M4.11011 141.89C4.14011 135.25 4.18011 128.61 4.21011 121.98C4.51011 122.33 4.80011 122.67 5.10011 123.02C5.96011 129.3 5.68011 135.59 5.26011 141.88L4.91011 141.93C4.65011 141.93 4.38011 141.91 4.12011 141.89H4.11011Z" fill="#5276C0"/>
<path d="M5.2601 141.88C5.2101 135.59 5.1601 129.3 5.1001 123.02C5.4401 123.28 5.7901 123.55 6.1301 123.81C5.5401 129.82 7.1601 135.94 5.2501 141.88H5.2601Z" fill="#96A0D9"/>
<path d="M193.72 194.73C191.15 176.23 183.77 159.68 173.51 144.26C162.54 127.75 147.36 115.64 131.79 103.92C130.95 99.8499 132.68 97.3099 135.91 94.7299C170.36 67.2399 204.67 39.5699 239.03 11.9599C240.45 10.8199 241.98 9.8299 243.45 8.7699C245.04 10.1299 244.88 12.0199 244.88 13.8099C244.88 21.5499 245.04 29.2899 244.81 37.0399C244.76 37.3399 244.72 37.6499 244.67 37.9499C243.22 51.2499 236 60.8699 225.74 68.8899C210.95 80.4399 196.42 92.3299 181.84 104.13C177.32 107.79 176.54 111.46 179.28 114.73C181.88 117.84 186.09 117.81 190.34 114.42C208.11 100.21 225.83 85.9399 243.57 71.6899C243.76 71.8999 243.95 72.1099 244.15 72.3199C245.61 77.8699 244.65 83.5199 244.78 89.1299C244.74 89.4099 244.7 89.6899 244.66 89.9699C243.41 102.56 236.74 111.92 227.14 119.54C219.86 125.32 212.57 131.08 205.34 136.91C201.34 140.14 200.5 144.03 202.93 147.3C205.46 150.71 209.41 150.73 213.81 147.27C223.72 139.47 233.6 131.65 243.49 123.83C246.25 130.05 244.74 136.48 244.44 142.85C243.71 154.41 237.98 163.33 229.38 170.5C219.05 179.12 208.42 187.38 198.06 195.97C195.56 198.05 194.58 197.26 193.72 194.75V194.73Z" fill="#8E9BD6"/>
<path d="M245.53 122.91C247.81 124.17 246.36 126.25 246.43 127.86C246.67 133.09 246.51 138.33 246.48 143.57C246.48 143.66 246.27 143.75 246.16 143.83L245.48 142.82C243.96 136.18 243.89 129.54 245.53 122.9V122.91Z" fill="#1D54AC"/>
<path d="M244.44 142.83C242.42 136.58 244.08 130.14 243.49 123.81C243.81 123.53 244.13 123.26 244.45 122.98C245.47 129.63 245.17 136.3 244.6 142.96L244.44 142.82V142.83Z" fill="#96A0D9"/>
<path d="M244.6 142.97C244.55 136.31 244.5 129.65 244.45 122.99C244.81 122.96 245.17 122.94 245.52 122.91C245.5 129.55 245.49 136.19 245.47 142.83C245.18 142.88 244.89 142.92 244.6 142.98V142.97Z" fill="#5577C0"/>
<path d="M129.79 259.06C128.63 257.97 129 257.08 130.1 256.2C149.94 240.37 169.77 224.54 189.6 208.71C191.4 211.74 191 215.15 191.01 218.39C191.1 256.64 191.09 294.9 191.03 333.15C191.03 335.71 191.6 338.64 188.49 340.13C182.42 326.45 176.09 312.91 167.53 300.56C156.78 285.06 144.69 270.77 129.79 259.06Z" fill="#8E9BD6"/>
<path d="M188.49 340.13C189.49 338.51 189.68 336.75 189.68 334.87C189.64 292.81 189.63 250.76 189.61 208.7C190.79 207.64 191.34 208.27 191.48 209.49C191.65 210.96 191.66 212.45 191.75 213.93C192.46 215.53 192.13 217.22 192.13 218.86C192.15 260.5 192.17 302.15 192.07 343.79C192.07 345.31 193.38 347.58 190.72 348.46C190.8 348.25 190.78 348.05 190.66 347.85C189.94 345.27 189.22 342.69 188.5 340.11L188.49 340.13Z" fill="#919DD7"/>
<path d="M60.02 208.69C73.38 219.34 86.75 229.98 100.11 240.63C106.21 245.49 112.31 250.36 118.34 255.3C119.43 256.19 121.77 256.86 119.83 259.07C100.73 274.44 85.72 293.22 73.58 314.44C68.71 322.95 65.03 331.99 60.96 340.86C58.64 339.38 58.59 336.99 58.59 334.65C58.53 295.72 58.49 256.79 58.68 217.86C58.69 214.84 58.12 211.51 60.03 208.68L60.02 208.69Z" fill="#8E9BD6"/>
<path d="M60.0201 208.69C60.0001 250.8 59.9701 292.91 60.0001 335.01C60.0001 336.96 60.6201 338.91 60.9501 340.86C60.2901 343.19 59.6301 345.53 58.9601 347.86C58.8401 348.05 58.8201 348.26 58.9001 348.47C55.9301 347.94 57.5601 345.64 57.5501 344.3C57.4301 324.98 57.4701 305.65 57.4701 286.33C57.4701 264.34 57.4601 242.35 57.4901 220.36C57.4901 218.55 57.1201 216.69 57.8701 214.93C57.9501 213.12 57.9701 211.31 58.1401 209.51C58.2501 208.3 58.8201 207.66 60.0101 208.69H60.0201Z" fill="#919DD7"/>
<path d="M190.71 348.47C192.42 347 191.58 345.04 191.58 343.32C191.67 300.19 191.7 257.06 191.74 213.93C192.92 214.95 192.64 216.35 192.64 217.65C192.64 260.37 192.66 303.09 192.54 345.81C192.54 346.54 194.47 349.87 190.71 348.47Z" fill="#2257AE"/>
<path d="M57.8801 214.93C57.9201 257.73 57.9601 300.53 58.0501 343.33C58.0501 345.05 57.2201 347.01 58.9201 348.48C58.4801 349.32 57.6801 349.99 57.2901 348.75C56.8501 347.38 56.9901 345.81 56.9901 344.32C56.9801 302.93 56.9701 261.54 57.0101 220.15C57.0101 218.4 56.3701 216.46 57.8901 214.93H57.8801Z" fill="#2257AE"/>
</svg>
