<svg width="800" height="800" viewBox="0 0 800 800" fill="none" xmlns="http://www.w3.org/2000/svg">
<path d="M385.2 740C384.8 741.2 384.4 741.8 383.9 741.8C383.4 741.8 383.1 741.1 383.1 739.8C382.6 730.2 381.1 721.8 378.6 714.5C376.6 708.7 373.5 702.7 369.3 696.6L373.3 688.8C373.8 687.7 374.2 687.2 374.5 687.2C374.8 687.2 375.3 687.7 376 688.8C379.4 693.7 382.1 699.8 384 707.3C385.8 714.2 386.8 720.9 386.8 727.4C386.9 732 386.3 736.3 385.2 740Z" fill="#1836D2"/>
<path d="M439.9 691.3C439.9 695.1 439.4 698.4 438.4 701C436.9 704.8 434.6 706.7 431.4 706.7C427.8 706.7 425 705.5 422.8 703C420.7 706.4 417.9 708.1 414.5 708.1C416.4 713.7 417.3 719.9 417.3 726.5C417.3 732 416.5 736.6 414.9 740.4C414.6 741.1 414.3 741.4 413.9 741.4C413.5 741.4 413.4 741.1 413.3 740.4C412.8 723.9 408.5 709.9 400.2 698.4C400.9 695.5 402 692.1 403.3 688.2C403.8 687.5 404.2 687.4 404.8 688C405.9 689.3 407.9 691.6 410.7 695C411.8 696.3 413.4 696.9 415.6 696.9C419 696.9 421.8 694.7 423.8 690.2C425 687.6 425.9 686.3 426.4 686.3C427.4 686.3 427.7 687.7 427.3 690.4C427.1 691.9 427.8 693.1 429.5 694C430.9 694.7 432.3 695.1 434 695.1C435.1 695.1 436.2 693.9 437.1 691.5C438 689.1 438.6 687.9 438.6 687.9C439.5 687.9 439.9 689 439.9 691.3Z" fill="#1836D2"/>
<path d="M480.9 691.3C480.9 695.1 480.4 698.4 479.4 701C477.9 704.8 475.6 706.7 472.4 706.7C468.8 706.7 466 705.5 463.8 703C461.7 706.4 458.9 708.1 455.5 708.1C457.4 713.7 458.3 719.9 458.3 726.5C458.3 732 457.5 736.6 455.9 740.4C455.6 741.1 455.3 741.4 454.9 741.4C454.5 741.4 454.4 741.1 454.3 740.4C453.8 723.9 449.5 709.9 441.2 698.4C441.9 695.5 443 692.1 444.3 688.2C444.8 687.5 445.2 687.4 445.8 688C446.9 689.3 448.9 691.6 451.7 695C452.8 696.3 454.4 696.9 456.6 696.9C460 696.9 462.8 694.7 464.8 690.2C466 687.6 466.9 686.3 467.4 686.3C468.4 686.3 468.7 687.7 468.3 690.4C468.1 691.9 468.8 693.1 470.5 694C471.9 694.7 473.3 695.1 475 695.1C476.1 695.1 477.2 693.9 478.1 691.5C479 689.1 479.6 687.9 479.6 687.9C480.4 687.9 480.9 689 480.9 691.3Z" fill="#1836D2"/>
<path d="M482.1 732.1C486.6 726.5 490.6 719 493.9 709.6C494.6 707.5 496.3 701.9 498.9 692.7C499.8 689.7 500.5 688.1 501 688.1C501.6 688.1 502.3 689.6 503.1 692.7C507.4 708.8 513.4 721.5 521.2 730.7C520.8 732 519.9 734.8 518.4 739C518 740 517.8 740.6 517.5 740.6C517.2 740.6 516.7 740.2 516.1 739.3C508.5 729.5 503.6 718.5 501.1 706.3C500.9 705.5 500.8 705.1 500.6 705.1C500.4 705.1 500.2 705.6 500 706.5C496.3 721.7 491 733.2 484.1 740.8C483.6 741.4 483.1 741.7 482.9 741.7C482.4 741.7 482.2 738.5 482.1 732.1Z" fill="#1836D2"/>
<path d="M767.9 32.1H32.1V767.9H767.9V32.1ZM755.6 755.6H44.4V44.4H755.5V755.6H755.6Z" fill="#1836D2"/>
<path d="M800 0H0V800H800V0ZM780.2 780.2H19.8V19.8H780.3V780.2H780.2Z" fill="#1836D2"/>
<path d="M610.4 193.1C610.4 193.1 591.6 217.8 614.8 246.9C635.5 273.1 678.5 304.7 691.3 313.1C716 330.4 610.8 391.1 575.7 391.1C543.6 391.1 564.8 332.3 560.9 332.3C554 332.3 534.2 414.3 554.5 427.6C591.5 452.3 717.5 366.4 720.4 312C721.9 286.3 677.4 266.1 657.7 246.3L657.2 233.5C627.2 216.8 610.4 193.1 610.4 193.1Z" fill="#1836D2"/>
<path d="M624.2 133.3C624.2 133.3 606.4 150.1 599 163.9C616.8 169.8 626.7 189.6 626.7 189.6C626.7 189.6 646.9 170.3 646.9 160.5C646.4 147.7 624.2 133.3 624.2 133.3Z" fill="#1836D2"/>
<path d="M669.1 128.4C669.1 128.4 652.8 145.2 645.4 159C663.2 164.9 671.6 184.7 671.6 184.7C671.6 184.7 691.8 165.4 691.8 155.6C691.9 142.7 669.1 128.4 669.1 128.4Z" fill="#1836D2"/>
<path d="M642.5 86.8999C642.5 86.8999 633.6 86.8999 617.3 121C635.1 126.9 646.9 145.2 646.9 145.2C646.9 145.2 665.2 124.5 665.2 114.1C664.7 101.7 642.5 86.8999 642.5 86.8999Z" fill="#1836D2"/>
<path d="M430.1 191.6C430.1 191.6 412.3 208.4 404.9 222.2C422.7 228.1 432.6 247.9 432.6 247.9C432.6 247.9 452.8 228.6 452.8 218.8C452.8 205.9 430.1 191.6 430.1 191.6Z" fill="#1836D2"/>
<path d="M475.6 186.7C475.6 186.7 459.3 203.5 451.9 217.3C469.6 223.2 478 243 478 243C478 243 498.2 223.7 498.2 213.9C498.3 201.5 475.6 186.7 475.6 186.7Z" fill="#1836D2"/>
<path d="M448.4 145.7C448.4 145.7 439.5 145.7 423.2 179.8C441 185.7 452.8 204 452.8 204C452.8 204 471.1 183.3 471.1 172.9C471.1 160 448.4 145.7 448.4 145.7Z" fill="#1836D2"/>
<path d="M503.7 124.4C503.7 124.4 490.4 143.2 478.5 155C496.3 160.9 508.1 182.7 508.1 182.7C508.1 182.7 528.3 162 528.3 151.6C528.4 138.8 503.7 124.4 503.7 124.4Z" fill="#1836D2"/>
<path d="M668.1 681.5C668.1 681.5 651.8 698.3 644.4 712.1C662.2 718 672.1 737.8 672.1 737.8C672.1 737.8 690.4 718.5 690.4 708.7C690.9 695.8 668.1 681.5 668.1 681.5Z" fill="#1836D2"/>
<path d="M331.4 686.9C331.4 686.9 315.1 703.7 307.7 717.5C325.5 723.4 335.4 743.2 335.4 743.2C335.4 743.2 353.7 723.9 353.7 714.1C354.1 701.2 331.4 686.9 331.4 686.9Z" fill="#1836D2"/>
<path d="M389.1 546.7C389.1 546.7 373.3 563 365.9 576.8C383.7 582.7 394 597 394 597C394 597 410.8 579.7 410.8 569.8C410.9 557.5 389.1 546.7 389.1 546.7Z" fill="#1836D2"/>
<path d="M344.2 551.1C344.2 551.1 329.4 566.4 322.5 579.2C339.3 584.6 349.2 598.5 349.2 598.5C349.2 598.5 365.5 585.2 365.5 575.8C365.4 564.4 344.2 551.1 344.2 551.1Z" fill="#1836D2"/>
<path d="M362 515.6C362 515.6 347.7 529.9 341.3 542.3C357.1 547.7 365.5 562.1 365.5 562.1C365.5 562.1 381.3 545.3 381.3 536.4C381.7 524.9 362 515.6 362 515.6Z" fill="#1836D2"/>
<path d="M284.9 688.9C284.9 688.9 268.6 705.7 261.2 719.5C279 725.4 288.9 745.2 288.9 745.2C288.9 745.2 307.2 725.9 307.2 716.1C307.7 703.2 284.9 688.9 284.9 688.9Z" fill="#1836D2"/>
<path d="M155.6 108.1C155.6 108.1 139.3 124.9 131.9 138.7C149.7 144.6 159.6 164.4 159.6 164.4C159.6 164.4 177.9 145.1 177.9 135.3C177.8 122.5 155.6 108.1 155.6 108.1Z" fill="#1836D2"/>
<path d="M159 162C159 162 142.7 178.8 135.3 192.6C153.1 198.5 163 218.3 163 218.3C163 218.3 181.3 199 181.3 189.2C181.2 176.3 159 162 159 162Z" fill="#1836D2"/>
<path d="M571.9 192.6C571.9 183.7 579.8 174.3 579.8 160.5C579.8 121.5 563.5 147.7 563.5 57.3C556.6 57.3 546.2 88.4001 544.7 99.3001C535.3 173.9 570.9 272.1 572.4 366.5C572.9 379.8 588.7 343.3 589.2 316.1C590.1 283.5 571.9 208.4 571.9 192.6Z" fill="#1836D2"/>
<path d="M523.5 232.1C497.3 284.9 527.9 331.9 527.9 342.2C527.9 358.5 502.2 364.9 499.3 337.8C459.8 382.7 465.7 340.8 465.7 340.8C391.1 395.1 402.5 341.8 402.5 341.8C307.7 388.7 279.5 383.3 269.7 380.3C260.8 377.3 263.3 363 263.3 363C386.8 363 395.2 297.8 395.2 271.6C395.2 235.6 317.2 220.7 281.6 184.7C263.3 166.9 417.4 94.3 459.4 93.8C487.1 93.3 472.7 107.6 465.3 140.2C503.8 91.2999 490 61.7 464.8 61.7C460.4 61.7 263.8 105.2 263.8 194.5C263.8 241.4 376.9 275.5 376.9 288.3C376.9 302.1 314.2 323.4 287.5 323.4C252.4 323.4 254.9 279.9 250.5 227.1C245.1 159 236.2 69.0999 227.3 67.0999C199.2 118.5 233.2 176.2 233.2 315C233.2 337.2 239.6 349.1 246.5 355.5C246 407.8 261.8 423.2 281.6 423.2C328 423.2 379.9 388.1 379.9 388.1C402.1 429.1 439.2 386.1 439.2 386.1C463.4 413.8 489.6 378.2 489.6 378.2C522.2 421.2 556.3 346.6 536 300.7C533 293.3 541.4 278 541.4 276C539.8 264.2 535.8 271.1 523.5 232.1Z" fill="#1836D2"/>
<path d="M499.8 426.7C493.9 426.7 473.1 480 477.1 483.5C520 468.1 509.6 436 499.8 426.7ZM514.6 553.6C513.6 544.7 495.8 512.6 471.1 525C473.1 547.2 482 554.6 514.6 553.6ZM642 512.6C621.3 526.4 578.3 545.7 581.3 494.8C576.9 494.8 546.7 503.7 522 509.1C534.8 546.6 514.1 584.2 509.7 584.7C500.8 585.7 455.9 591.1 457.4 529.4C453.4 529.4 441.1 532.4 431.7 532.4C421.8 532.4 405.5 525 407.5 499.8C372.4 511.7 319.6 528.4 285 528.4C263.8 528.4 229.2 531.4 217.8 476.1C213.4 497.8 169.9 551.7 115.1 551.7C71.1 551.7 82.5 464.8 110.7 432.2C55.4 585.3 209 471.2 209 440.1C209 415.9 206.5 396.6 192.2 350.2C189.2 340.8 192.2 316.1 202.6 298.3C237 401 229.6 488.4 269.6 488.4C277 488.4 297.3 497.3 418.2 456.8C418.2 456.8 414.2 510.1 465.1 487.9C470.5 468.6 489.8 410.4 508.1 376.8C508.1 376.8 531.3 426.7 513 477.5C521.9 476 547.6 471.1 594.5 454.3C594.5 458.7 590.5 523.4 657.7 471.1C653.7 498.3 676.5 487.4 686.3 481C696.1 474.6 679.9 453.8 679.9 446.4C679.9 437 693.7 409.9 693.7 409.9C739.8 507.7 637 552.6 642 512.6Z" fill="#1836D2"/>
<path d="M267.2 132.3C267.2 96.7001 374.9 52.8 383.7 52.8C403 52.8 388.1 99.7 388.1 99.7C388.1 99.7 387.6 72 379.2 72C374.3 72.1 310.1 97.3 267.2 132.3Z" fill="#1836D2"/>
<path d="M586.7 695.3C583.2 675.1 565 662.7 541.3 662.7C541.2 662.7 547.2 697.3 586.7 695.3ZM573.3 556.5C571.3 553.5 553.5 591.6 549.6 615.8C590.1 605.4 580.2 567.4 573.3 556.5ZM597.5 646.4C610.3 696.8 594.5 725.9 564.9 725.9C510.1 725.9 529.3 662.7 529.3 662.7C529.3 662.7 502.1 666.7 489.8 647.4C489.8 647.4 440.4 681 434 648.4C434 648.4 386.6 688.4 378.2 639.5C378.2 639.5 326.3 680 295.2 658.8C270 641.5 279.9 591.1 273 588.7C242.9 578.3 220.7 618.8 220.7 621.3C220.7 630.7 280.5 631.7 280.5 656.4C280.5 710.2 171.4 746.8 132.4 746.8C47 746.8 98.8 568.5 122 562.1C65.7 699.9 132.9 704.8 135.8 704.8C186.7 704.8 248.4 675.2 248.4 672.7C248.4 662.8 206.4 669.7 206.4 647.5C206.4 580.8 255.8 548.7 275 548.7C286.9 548.7 295.2 563 295.2 563C287.8 687 393.5 595.6 393.5 595.6C383.6 656.8 452.8 602.5 452.8 602.5C457.7 647.9 506.1 600.5 506.1 600.5C500.7 630.6 536.2 620.3 536.2 620.3C549.5 576.8 579.7 503.3 583.1 508.2C585.6 512.2 600.9 580.8 585.1 610.4L582.6 614.4C632.5 610.4 686.8 598.6 701.6 586.3C705.1 583.3 700.6 572 700.6 563.6C700.6 550.8 713.9 535 718.4 535C739.3 648.9 643 636 597.5 646.4Z" fill="#1836D2"/>
<path d="M125.9 382.2C133.8 390.1 161 382.2 161.9 378.2C164.9 365.9 138.2 344.1 127.3 335.2C122 344.7 117 373.3 125.9 382.2ZM141.7 305.2C155.5 316.6 179.7 334.3 179.7 354.1C179.7 365.5 175.3 421.3 121.9 421.3C98.7 421.3 103.1 371.4 119.9 329.9C95.2 310.6 85.3 308.7 79.9 289.9C77.9 282 76.9 260.3 79.9 260.3C84.8 262.3 134.2 300.3 134.2 300.3C141.1 286 151 270.7 157.4 270.2C162.5 269.6 145.7 295.8 141.7 305.2Z" fill="#1836D2"/>
</svg>
