<svg width="511" height="513" viewBox="0 0 511 513" fill="none" xmlns="http://www.w3.org/2000/svg">
<path fill-rule="evenodd" clip-rule="evenodd" d="M510.37 258.19V255.92C509.65 255.062 508.733 254.453 507.816 253.844C507.6 253.7 507.384 253.557 507.17 253.41C503.259 250.717 499.363 247.998 495.467 245.279C492.1 242.93 488.734 240.582 485.36 238.25C479.777 234.392 474.21 230.513 468.643 226.634C464.658 223.857 460.672 221.08 456.68 218.31C453.426 216.05 450.176 213.785 446.926 211.52C440.426 206.992 433.926 202.463 427.4 197.97C427.254 197.871 427.106 197.75 426.956 197.628C426.438 197.205 425.89 196.757 425.27 197.09C424.651 197.423 424.715 198.127 424.775 198.795C424.793 198.99 424.81 199.181 424.81 199.36C424.8 208.21 424.8 217.07 424.8 225.92C424.8 227.367 424.083 228.09 422.65 228.09H328.38C328.271 228.09 328.158 228.099 328.044 228.107C327.638 228.139 327.211 228.171 326.82 227.82C327.53 226.783 328.474 225.992 329.415 225.204C329.945 224.76 330.474 224.316 330.96 223.83C352.44 202.3 373.95 180.8 395.46 159.3C396.86 157.9 396.92 157.9 398.31 159.29C404.6 165.59 410.89 171.89 417.2 178.17C417.309 178.281 417.416 178.408 417.526 178.539C417.942 179.032 418.389 179.562 419.03 179.34C419.569 179.155 419.634 178.519 419.694 177.921C419.712 177.743 419.73 177.568 419.76 177.41C422.09 164.63 424.38 151.85 426.67 139.06C427.341 135.327 428.012 131.594 428.683 127.861C431.144 114.17 433.606 100.475 436.05 86.78C436.235 85.7303 436.431 84.6817 436.626 83.6328C437.021 81.5139 437.416 79.3937 437.73 77.26C437.97 75.66 437.76 75.48 436.14 75.73C435.99 75.75 435.85 75.78 435.71 75.81C430.261 76.7695 424.816 77.7574 419.37 78.7453C415.111 79.518 410.851 80.2907 406.59 81.05C391.187 83.7982 375.792 86.5722 360.394 89.3466C352.261 90.8122 344.127 92.2779 335.99 93.74C335.832 93.7678 335.662 93.7837 335.489 93.7998C334.853 93.8592 334.185 93.9215 333.98 94.59C333.776 95.2493 334.293 95.6868 334.776 96.0959C334.908 96.2081 335.038 96.3181 335.15 96.43C340.118 101.422 345.099 106.401 350.082 111.383C351.328 112.628 352.574 113.874 353.82 115.12C354.09 115.39 354.36 115.67 354.63 115.94C355.1 116.42 355.07 116.86 354.61 117.32C354.34 117.59 354.07 117.87 353.8 118.14L353.699 118.241C331.583 140.357 309.466 162.474 287.34 184.59C287.265 184.667 287.194 184.75 287.123 184.833C286.888 185.106 286.648 185.385 286.25 185.5C286.033 185.119 286.062 184.727 286.091 184.34C286.1 184.209 286.11 184.079 286.11 183.95V90.4V88.81C286.14 87.22 286.23 87.12 287.87 87.12H295.81C297.977 87.12 300.143 87.1222 302.309 87.1244C306.639 87.1289 310.967 87.1333 315.3 87.12C315.425 87.12 315.558 87.1282 315.693 87.1365C316.259 87.1714 316.868 87.2088 317.15 86.66C317.395 86.1708 317.034 85.7082 316.703 85.2831C316.628 85.1868 316.555 85.0924 316.49 85C312.732 79.624 308.998 74.2345 305.263 68.8452C302.558 64.9416 299.854 61.0382 297.14 57.14C291.46 48.9796 285.788 40.8102 280.117 32.6409C277.282 28.5569 274.446 24.4729 271.61 20.39C270.05 18.1389 268.487 15.8903 266.924 13.6421C264.12 9.60826 261.317 5.57531 258.53 1.52998C257.17 -0.440018 256.75 -0.450018 255.35 1.56998C253.13 4.76998 250.91 7.96998 248.68 11.17C243.152 19.0926 237.643 27.0298 232.134 34.9661C228.534 40.1525 224.934 45.3386 221.33 50.52C217.345 56.2449 213.37 61.9772 209.395 67.7096C205.42 73.4422 201.445 79.1749 197.46 84.9C197.365 85.0377 197.25 85.1784 197.133 85.3217C196.723 85.8236 196.288 86.3577 196.56 86.91C196.871 87.5474 197.587 87.4839 198.261 87.424C198.454 87.4068 198.644 87.39 198.82 87.39C207.82 87.4 216.82 87.4 225.82 87.4C227.187 87.4067 227.87 88.11 227.87 89.51V182.91C227.87 183.032 227.88 183.155 227.889 183.28C227.92 183.677 227.952 184.08 227.67 184.43C227.259 184.406 227.029 184.145 226.808 183.894C226.749 183.827 226.691 183.761 226.63 183.7C219.155 176.225 211.679 168.75 204.203 161.275C189.255 146.329 174.305 131.382 159.36 116.43C158.14 115.22 158.13 115.1 159.36 113.9C162.656 110.702 165.843 107.395 169.029 104.089C172.02 100.985 175.01 97.8818 178.09 94.87C178.115 94.8453 178.141 94.8207 178.167 94.796C178.452 94.5203 178.741 94.2412 178.98 93.92C179.51 93.22 179.47 92.68 178.53 92.42C178.26 92.35 177.97 92.28 177.69 92.23C165.8 90.08 153.92 87.94 142.03 85.81C135.666 84.6694 129.304 83.5231 122.942 82.377C114.579 80.8703 106.216 79.3637 97.85 77.87C95.2898 77.4135 92.731 76.9526 90.1725 76.4918C86.0057 75.7414 81.8398 74.9911 77.67 74.26C75.53 73.88 75.27 74.19 75.68 76.35C75.986 77.97 76.2704 79.59 76.5548 81.2101C76.7444 82.29 76.934 83.37 77.13 84.45C79.4994 97.5988 81.8613 110.755 84.2221 123.906C84.5814 125.907 84.9407 127.909 85.3 129.91C88.06 145.3 90.83 160.69 93.62 176.08C93.6515 176.26 93.6657 176.457 93.6803 176.659C93.7307 177.356 93.7845 178.101 94.56 178.31C95.2353 178.488 95.6937 177.944 96.1269 177.43C96.2518 177.281 96.3747 177.135 96.5 177.01C100.4 173.129 104.292 169.236 108.184 165.344C110.519 163.008 112.854 160.673 115.19 158.34C116.61 156.91 116.71 156.91 118.17 158.37C125.465 165.665 132.76 172.957 140.056 180.249C154.644 194.83 169.231 209.411 183.81 224.01C183.969 224.172 184.134 224.328 184.303 224.486C184.696 224.856 185.105 225.242 185.49 225.76C183.96 225.85 182.59 225.83 181.22 225.73C180.5 225.7 179.78 225.704 179.06 225.707C178.82 225.709 178.58 225.71 178.34 225.71H90.11C89.9422 225.71 89.7736 225.715 89.6047 225.719C88.9579 225.738 88.3064 225.756 87.68 225.51C87.1411 225.104 87.1659 224.539 87.1901 223.988C87.1951 223.874 87.2 223.761 87.2 223.65C87.19 214.887 87.19 206.113 87.19 197.35V197.33C87.19 197.188 87.194 197.046 87.198 196.903C87.214 196.33 87.2302 195.752 86.99 195.2C86.3031 194.451 85.7197 194.879 85.1758 195.278C85.11 195.327 85.0448 195.375 84.98 195.42L54.77 216.42C47.0866 221.762 39.4056 227.107 31.7247 232.452C24.0506 237.792 16.3766 243.132 8.70002 248.47C8.03789 248.929 7.37448 249.386 6.71124 249.842C4.76012 251.185 2.81058 252.527 0.90002 253.93C-0.26998 254.79 -0.23998 255.04 0.77002 256.01C2.94909 257.342 5.0306 258.821 7.11032 260.299C7.85565 260.828 8.60075 261.358 9.35002 261.88C15.4375 266.123 21.5318 270.357 27.6253 274.59C34.4145 279.307 41.2028 284.023 47.98 288.75C53.3649 292.505 58.7598 296.252 64.1546 300C69.5498 303.747 74.9449 307.495 80.33 311.25C80.7999 311.579 81.266 311.914 81.7324 312.249C82.9836 313.149 84.237 314.051 85.57 314.83C86.64 315.46 87.03 315.23 87.16 314.01C87.1901 313.687 87.1863 313.359 87.1825 313.033C87.1813 312.925 87.18 312.817 87.18 312.71V295.96C87.18 294.922 87.1827 293.884 87.1854 292.845C87.1917 290.42 87.198 287.992 87.17 285.57C87.16 284.48 87.52 283.92 88.67 284.03C88.8634 284.043 89.0567 284.039 89.25 284.034C89.3467 284.032 89.4434 284.03 89.54 284.03H183.81C183.913 284.03 184.017 284.02 184.122 284.01C184.428 283.981 184.743 283.952 185.04 284.16C184.854 284.533 184.561 284.8 184.272 285.065C184.173 285.156 184.074 285.246 183.98 285.34C167.282 302.143 150.454 318.828 133.627 335.512C129.644 339.461 125.661 343.41 121.68 347.36C120.397 348.628 119.119 349.908 117.843 351.186C117.418 351.611 116.994 352.036 116.57 352.46L116.57 352.46C115.09 353.93 115.07 353.95 113.62 352.46C110.191 348.926 106.653 345.506 103.114 342.085C100.253 339.32 97.3926 336.555 94.59 333.73C94.32 333.46 94.04 333.19 93.73 332.96C93.08 332.48 92.68 332.65 92.48 333.41C92.4 333.74 92.32 334.07 92.26 334.4C91.1123 340.866 89.9476 347.333 88.783 353.799C88.3951 355.953 88.0073 358.106 87.62 360.26C86.7934 364.862 85.9659 369.465 85.1383 374.068C83.1226 385.28 81.1063 396.495 79.1 407.71C78.5932 410.541 78.0825 413.371 77.5719 416.201C76.4502 422.417 75.3289 428.631 74.25 434.85C73.97 436.46 74.19 436.7 75.77 436.46C77.4318 436.205 79.08 435.897 80.7268 435.589C81.5378 435.437 82.3484 435.285 83.16 435.14C89.5019 434.006 95.8438 432.862 102.187 431.717C108.816 430.522 115.447 429.326 122.08 428.14C129.284 426.854 136.486 425.555 143.688 424.256C154.573 422.293 165.458 420.33 176.35 418.41C176.483 418.385 176.624 418.367 176.767 418.349C177.379 418.27 178.029 418.186 178.24 417.57C178.479 416.885 177.97 416.448 177.49 416.035C177.367 415.93 177.246 415.826 177.14 415.72C172.454 411.019 167.757 406.324 163.061 401.63C161.494 400.063 159.927 398.497 158.36 396.93C158.241 396.811 158.121 396.688 158.001 396.565C157.82 396.378 157.637 396.191 157.45 396.01C156.89 395.46 156.92 394.94 157.47 394.4C157.676 394.2 157.878 393.996 158.082 393.791C158.184 393.687 158.286 393.584 158.39 393.48L158.491 393.379C180.547 371.323 202.594 349.276 224.65 327.23C224.734 327.146 224.813 327.054 224.892 326.962C225.121 326.695 225.351 326.427 225.73 326.33C225.919 326.648 225.896 326.978 225.874 327.297C225.867 327.399 225.86 327.501 225.86 327.6V422.88C225.86 424.98 225.85 424.99 223.79 424.99H197.08C196.988 424.99 196.897 424.989 196.805 424.988C196.317 424.984 195.83 424.98 195.35 425.09C194.82 425.22 194.64 425.53 194.85 426.05C195 426.41 195.2 426.73 195.42 427.05C199.467 432.843 203.495 438.651 207.523 444.46C209.308 447.033 211.093 449.607 212.88 452.18C217.535 458.875 222.185 465.575 226.835 472.275C231.485 478.975 236.135 485.675 240.79 492.37C242.905 495.41 245.018 498.452 247.13 501.495C249.243 504.537 251.355 507.58 253.47 510.62C253.541 510.722 253.61 510.829 253.679 510.937C254.016 511.467 254.368 512.018 255.14 512.06C255.534 511.917 255.751 511.598 255.972 511.274C255.998 511.236 256.024 511.198 256.05 511.16C258.944 506.98 261.844 502.804 264.743 498.629C266.894 495.532 269.044 492.436 271.19 489.34C277.85 479.73 284.52 470.13 291.19 460.53C297.365 451.647 303.527 442.771 309.692 433.89C311.155 431.784 312.617 429.677 314.08 427.57C314.166 427.448 314.265 427.324 314.367 427.198C314.773 426.692 315.21 426.148 314.93 425.54C314.606 424.845 313.89 424.905 313.218 424.96C313.04 424.975 312.864 424.99 312.7 424.99C303.777 424.98 294.854 424.98 285.931 424.98H285.85C283.92 424.98 283.82 424.88 283.82 422.94V398.54C283.82 390.827 283.819 383.113 283.818 375.398C283.816 359.968 283.813 344.537 283.82 329.11C283.82 328.973 283.809 328.833 283.798 328.691C283.761 328.234 283.724 327.765 284.06 327.36C284.473 327.489 284.722 327.756 284.96 328.012C285.017 328.073 285.073 328.133 285.13 328.19C292.636 335.696 300.144 343.203 307.652 350.709C322.668 365.724 337.686 380.74 352.7 395.76C354.12 397.19 354.12 397.29 352.66 398.75C350.39 401.023 348.118 403.295 345.845 405.567C342.06 409.352 338.274 413.137 334.5 416.93C334.337 417.093 334.138 417.255 333.936 417.419C333.32 417.919 332.669 418.448 332.88 419.14C333.108 419.921 333.974 419.983 334.794 420.042C335.055 420.061 335.311 420.079 335.54 420.12C345.72 421.95 355.9 423.78 366.08 425.62C375.196 427.267 384.315 428.904 393.435 430.541C406.855 432.95 420.276 435.359 433.69 437.8C436.49 438.31 436.62 438.16 436.1 435.36C434.22 425.14 432.39 414.91 430.56 404.68C428.49 393.073 426.402 381.472 424.314 369.872C422.277 358.554 420.24 347.238 418.22 335.92C418.195 335.781 418.178 335.632 418.16 335.481C418.084 334.836 418.002 334.139 417.33 333.92C416.665 333.706 416.226 334.219 415.814 334.7C415.705 334.827 415.599 334.951 415.49 335.06C410.842 339.693 406.2 344.337 401.559 348.979C400.009 350.53 398.46 352.08 396.91 353.63C396.61 353.93 396.3 354.23 395.99 354.54C395.46 355.07 394.93 355.13 394.37 354.57C394.1 354.3 393.82 354.03 393.55 353.76C371.47 331.68 349.39 309.6 327.31 287.51C327.232 287.432 327.145 287.358 327.059 287.284C326.791 287.055 326.516 286.82 326.44 286.42C326.835 286.264 327.23 286.285 327.621 286.306C327.754 286.313 327.887 286.32 328.02 286.32H422.14C423.913 286.32 424.8 287.207 424.8 288.98C424.8 291.947 424.799 294.913 424.798 297.88C424.796 303.813 424.793 309.747 424.8 315.68C424.8 315.774 424.796 315.872 424.792 315.972C424.772 316.47 424.75 317.014 425.2 317.28C425.721 317.581 426.162 317.233 426.572 316.91C426.666 316.836 426.759 316.763 426.85 316.7C428.026 315.884 429.202 315.068 430.378 314.252C433.551 312.051 436.723 309.851 439.89 307.64C448.064 301.939 456.243 296.251 464.423 290.562C468.842 287.489 473.261 284.416 477.68 281.34L479.83 279.841C489.612 273.021 499.389 266.204 509.21 259.44C509.7 259.1 510.09 258.71 510.37 258.19ZM314 258.99C315.62 225.81 289.68 198.61 257.16 197.92C225.37 197.38 199.37 222.02 197.97 253.33C196.5 286.3 221.96 313.01 253.88 314.13C286.38 315.27 312.49 290.15 314 258.99Z" fill="#ECECEC"/>
<path d="M256.356 214.006C280.152 214.511 299.133 234.398 297.947 258.657C296.842 281.44 277.737 299.806 253.956 298.973C230.599 298.154 211.969 278.625 213.044 254.519C214.069 231.627 233.094 213.612 256.356 214.006Z" fill="#ECECEC"/>
</svg>
