<svg width="512" height="512" viewBox="0 0 512 512" fill="none" xmlns="http://www.w3.org/2000/svg">
<circle cx="256" cy="256" r="256" fill="url(#paint0_linear_20_12)"/>
<mask id="path-2-outside-1_20_12" maskUnits="userSpaceOnUse" x="26" y="47" width="460" height="419" fill="black">
<rect fill="white" x="26" y="47" width="460" height="419"/>
<path d="M352.504 51.0098C348.851 50.8108 345.722 53.6579 345.589 57.3062C345.39 60.9545 348.254 64.0773 351.907 64.2763H352.232C355.752 64.2763 358.676 61.4841 358.809 57.9022C359.009 54.2539 356.158 51.1425 352.504 51.0098ZM169.643 51.6706C165.989 51.2726 162.659 53.8652 162.261 57.5135C161.796 61.1618 164.458 64.408 168.112 64.8723H168.838C172.159 64.8723 175.017 62.4252 175.416 59.0423C175.881 55.394 173.23 52.0686 169.643 51.6706ZM326.492 55.9329C325.625 55.9039 324.735 56.0547 323.872 56.3864C320.484 57.713 318.755 61.5525 320.083 65.0018C321.146 67.5888 323.68 69.2513 326.337 69.2513C327.134 69.2513 327.927 69.1165 328.724 68.7849C332.111 67.4582 333.84 63.6171 332.512 60.2342C331.516 57.6472 329.095 56.02 326.492 55.9329ZM142.23 56.6973C141.374 56.8362 140.532 57.1456 139.752 57.6431C136.63 59.5667 135.696 63.685 137.689 66.8027C138.885 68.7926 141.075 69.912 143.267 69.912C144.463 69.912 145.721 69.5793 146.783 68.8496C149.905 66.926 150.837 62.8206 148.911 59.703C147.466 57.4145 144.795 56.2807 142.23 56.6973ZM194.383 59.4569C191.805 59.348 189.3 60.7763 188.104 63.214C186.51 66.5306 187.974 70.5095 191.295 72.1015C192.159 72.4995 193.155 72.6974 194.085 72.6974C196.609 72.6974 199.001 71.3024 200.13 68.9144C201.658 65.5978 200.26 61.6837 196.939 60.0917C196.109 59.6937 195.242 59.4931 194.383 59.4569ZM376.051 61.2447C374.357 61.2281 372.663 61.8557 371.368 63.1492C368.711 65.7362 368.712 69.9161 371.303 72.5031C372.565 73.8298 374.285 74.4853 376.012 74.4853C377.673 74.4853 379.408 73.8945 380.67 72.5679C383.26 70.0473 383.325 65.8009 380.735 63.214C379.439 61.9205 377.745 61.2613 376.051 61.2447ZM301.648 68.2925C300.792 68.4377 299.951 68.7538 299.17 69.2513C296.115 71.2412 295.179 75.358 297.172 78.4756C298.434 80.3993 300.624 81.4554 302.816 81.4554C304.011 81.4554 305.28 81.1227 306.409 80.3931C309.465 78.4694 310.321 74.364 308.394 71.2464C306.9 68.9579 304.217 67.8572 301.648 68.2925ZM217.035 72.9436C215.6 72.901 214.191 73.3233 213.017 74.1474C211.843 74.9715 210.968 76.1531 210.522 77.5153C210.077 78.8775 210.085 80.3471 210.546 81.7043C211.006 83.0614 211.895 84.2332 213.078 85.0441H213.091L213.104 85.057C224.024 92.7294 235.477 102.658 247.069 114.142C233.706 128.361 220.41 144.66 207.512 162.648C182.037 164.893 158.315 168.918 136.872 174.308C132.814 158.377 130.081 143.409 129.113 130.129C129.015 128.454 128.284 126.878 127.068 125.719C125.853 124.561 124.242 123.905 122.562 123.885C121.634 123.872 120.714 124.054 119.861 124.419C119.007 124.783 118.24 125.322 117.608 126.001C116.976 126.679 116.494 127.483 116.192 128.359C115.89 129.235 115.775 130.165 115.854 131.088C116.894 145.35 119.753 161.11 123.976 177.728C110.872 181.552 98.7724 185.909 87.9874 190.787C87.3963 191.043 86.8457 191.384 86.3527 191.798C85.9495 191.903 85.5362 191.909 85.1462 192.096C81.825 193.622 80.427 197.602 81.9547 200.919C83.0839 203.307 85.4763 204.702 88.0004 204.702C88.9303 204.702 89.9262 204.504 90.7897 204.106C91.1553 203.93 91.4048 203.634 91.7238 203.406C92.3249 203.309 92.9099 203.131 93.4622 202.875C103.504 198.333 114.912 194.23 127.375 190.593C133.526 211.56 141.968 233.832 152.595 256.679C143.239 276.806 135.483 296.519 129.58 315.251C116.28 311.468 104.087 307.16 93.4752 302.361H93.4622C93.4579 302.356 93.4536 302.352 93.4492 302.348C93.4363 302.342 93.4233 302.341 93.4103 302.335C92.6226 301.975 91.772 301.773 90.9064 301.739C89.5897 301.691 88.2885 302.036 87.1684 302.729C86.0483 303.422 85.1599 304.432 84.6161 305.631C84.0724 306.829 83.8978 308.162 84.1146 309.46C84.3314 310.758 84.9299 311.962 85.8338 312.919V312.932C86.4134 313.545 87.1047 314.042 87.8706 314.396C87.9201 314.42 87.9501 314.464 88.0004 314.487C88.1131 314.539 88.2358 314.548 88.3507 314.591C99.5458 319.631 112.175 324.106 125.844 328.013C123.942 334.853 122.205 341.596 120.81 348.107C120.605 348.967 120.573 349.859 120.717 350.731C120.862 351.603 121.179 352.438 121.651 353.186C122.123 353.934 122.74 354.58 123.466 355.087C124.191 355.593 125.011 355.95 125.876 356.135C126.742 356.321 127.636 356.332 128.506 356.168C129.376 356.003 130.204 355.667 130.942 355.179C131.68 354.69 132.312 354.059 132.803 353.323C133.293 352.587 133.631 351.761 133.797 350.892C135.141 344.615 136.835 338.077 138.688 331.433C157.869 336.152 178.938 339.68 201.337 341.927C216.138 363.439 231.602 382.621 247.12 399.126C240.438 405.755 233.799 411.966 227.284 417.367C226.602 417.92 226.036 418.603 225.62 419.375C225.204 420.148 224.945 420.995 224.859 421.868C224.773 422.741 224.861 423.623 225.119 424.461C225.376 425.3 225.797 426.08 226.358 426.755C226.919 427.43 227.609 427.987 228.387 428.394C229.165 428.801 230.017 429.05 230.892 429.127C231.767 429.203 232.649 429.106 233.486 428.839C234.323 428.573 235.099 428.144 235.769 427.576C242.572 421.936 249.46 415.517 256.358 408.687C266.137 418.387 275.879 427.01 285.431 434.287C285.478 434.325 285.5 434.38 285.548 434.417V434.378C286.239 434.93 287.034 435.338 287.886 435.579C288.737 435.821 289.629 435.889 290.507 435.781C291.386 435.674 292.234 435.391 293.002 434.952C293.77 434.512 294.442 433.923 294.979 433.221C295.515 432.518 295.906 431.715 296.128 430.859C296.35 430.004 296.398 429.112 296.27 428.238C296.142 427.363 295.84 426.523 295.383 425.766C294.925 425.01 294.32 424.352 293.604 423.832C284.516 416.916 275.13 408.594 265.647 399.165C281.17 382.676 296.652 363.512 311.469 342.005C333.968 339.779 355.08 336.2 374.352 331.485C377.517 342.808 379.984 353.658 381.669 363.848C381.954 365.585 382.919 367.137 384.351 368.164C385.06 368.672 385.862 369.036 386.712 369.234C387.562 369.433 388.442 369.463 389.304 369.321C390.165 369.18 390.99 368.871 391.731 368.411C392.473 367.952 393.116 367.351 393.625 366.643C394.134 365.935 394.499 365.134 394.698 364.285C394.897 363.437 394.926 362.557 394.785 361.697C393.025 351.051 390.491 339.811 387.247 328.155C398.523 324.952 409.118 321.381 418.747 317.402C419.565 317.077 420.31 316.593 420.939 315.978C421.567 315.363 422.068 314.629 422.41 313.819C422.752 313.009 422.93 312.14 422.933 311.261C422.936 310.382 422.764 309.511 422.427 308.699C422.09 307.887 421.595 307.15 420.97 306.531C420.346 305.911 419.604 305.422 418.788 305.092C417.973 304.761 417.099 304.596 416.219 304.605C415.339 304.614 414.47 304.798 413.661 305.146C404.499 308.933 394.307 312.36 383.381 315.446C377.448 296.601 369.731 276.829 360.301 256.576C370.951 233.7 379.363 211.458 385.535 190.464C393.127 192.667 400.466 194.982 407.2 197.537C408.014 197.852 408.882 198.004 409.754 197.984C410.626 197.963 411.486 197.772 412.284 197.42C413.082 197.068 413.803 196.563 414.405 195.933C415.008 195.303 415.48 194.56 415.795 193.748C416.111 192.935 416.262 192.069 416.242 191.198C416.222 190.327 416.031 189.468 415.678 188.671C415.326 187.874 414.82 187.154 414.189 186.553C413.558 185.951 412.814 185.479 412.001 185.165C411.982 185.157 411.967 185.146 411.949 185.139C411.94 185.136 411.931 185.142 411.923 185.139C404.784 182.43 397.065 179.989 389.102 177.676C392.028 166.23 394.312 155.194 395.745 144.808V144.795V144.782C395.887 143.85 395.828 142.897 395.573 141.989C395.317 141.081 394.871 140.238 394.263 139.516C393.655 138.793 392.9 138.209 392.048 137.801C391.197 137.394 390.267 137.172 389.323 137.151C387.689 137.118 386.1 137.688 384.86 138.752C383.62 139.816 382.816 141.298 382.603 142.917C382.601 142.926 382.591 142.933 382.59 142.942V142.955C382.59 142.96 382.59 142.964 382.59 142.968C381.243 152.734 379.08 163.23 376.285 174.165C354.794 168.793 330.902 164.872 305.384 162.648C292.447 144.628 279.113 128.236 265.711 114.013C275.314 104.468 284.812 96.0485 294.007 89.0862C295.128 88.2595 295.961 87.1013 296.387 85.7758C296.813 84.4502 296.81 83.0245 296.38 81.7004C295.949 80.3763 295.113 79.221 293.988 78.3982C292.864 77.5753 291.509 77.1265 290.115 77.1153C288.621 77.1053 287.168 77.5982 285.989 78.5145C276.254 85.8861 266.308 94.6834 256.332 104.581C244.325 92.7143 232.371 82.3591 220.758 74.2003C219.672 73.4159 218.374 72.9779 217.035 72.9436ZM127.128 77.2578C124.553 77.3542 122.144 78.9332 121.148 81.5202C119.819 84.9031 121.547 88.7572 125.001 90.0838C125.798 90.4155 126.592 90.5502 127.323 90.5502C130.046 90.5502 132.567 88.8893 133.563 86.236C134.892 82.853 133.164 78.999 129.71 77.6724C128.863 77.3573 127.987 77.2257 127.128 77.2578ZM389.128 84.5647C388.282 84.4352 387.388 84.4751 386.508 84.7072C382.921 85.6359 380.805 89.2111 381.669 92.7267C382.466 95.778 385.181 97.7794 388.103 97.7794C388.635 97.7794 389.233 97.7048 389.764 97.5721C393.285 96.6435 395.481 93.0698 394.551 89.4878C393.854 86.8511 391.666 84.9534 389.128 84.5647ZM122.679 103.208C119.025 103.009 115.833 105.738 115.634 109.452C115.368 113.101 118.154 116.211 121.874 116.41C122.007 116.476 122.144 116.474 122.276 116.474C125.73 116.474 128.653 113.758 128.919 110.243C129.118 106.594 126.332 103.407 122.679 103.208ZM391.035 110.774C387.382 110.774 384.458 113.757 384.458 117.472C384.458 121.12 387.447 124.04 391.1 124.04C394.754 124.04 397.743 121.055 397.743 117.407C397.743 113.759 394.755 110.774 391.035 110.774ZM256.409 123.613C266.972 134.867 277.558 147.599 287.974 161.443C277.755 160.882 267.396 160.497 256.786 160.497C245.897 160.497 235.28 160.907 224.806 161.495C235.232 147.597 245.829 134.915 256.409 123.613ZM256.786 173.764C270.959 173.764 284.789 174.327 298.197 175.344C307.432 188.5 316.435 202.559 325.013 217.398C332.589 230.505 339.481 243.599 345.667 256.511C339.434 269.539 332.531 282.737 324.884 295.961C324.853 296.016 324.822 296.072 324.793 296.129C324.757 296.189 324.723 296.249 324.689 296.31C317.998 307.87 311.029 318.882 303.918 329.438C288.74 330.76 272.989 331.485 256.786 331.485C240.359 331.485 224.364 330.759 208.991 329.399C201.859 318.805 194.849 307.809 188.143 296.207C180.448 282.893 173.604 269.625 167.346 256.511C173.578 243.496 180.448 230.315 188.091 217.1C188.104 217.079 188.117 217.057 188.13 217.035C188.152 217.001 188.173 216.966 188.195 216.932C196.655 202.304 205.538 188.468 214.635 175.474C228.291 174.414 242.332 173.764 256.786 173.764ZM315.283 176.977C335.866 179.233 355.17 182.615 372.691 186.966C367.626 204.12 360.961 222.261 352.725 240.99C347.677 230.964 342.365 220.889 336.521 210.778C329.69 198.961 322.543 187.787 315.283 176.977ZM197.484 177.119C190.37 187.733 183.386 198.718 176.687 210.298C176.657 210.35 176.625 210.404 176.596 210.454C176.589 210.467 176.591 210.48 176.583 210.493C170.698 220.67 165.303 230.819 160.224 240.912C152.073 222.313 145.32 204.196 140.297 187.16C157.74 182.797 176.976 179.408 197.484 177.119ZM434.393 195.581C431.799 195.342 429.188 196.628 427.893 199.066C426.166 202.316 427.428 206.294 430.683 208.018C431.679 208.549 432.746 208.809 433.809 208.809C436.134 208.809 438.452 207.553 439.647 205.298C441.374 202.114 440.111 198.07 436.923 196.345C436.109 195.914 435.257 195.661 434.393 195.581ZM66.1011 204.715C64.4239 204.424 62.6211 204.767 61.0933 205.829C58.1042 207.951 57.385 212.068 59.5106 215.053C60.839 216.91 62.8873 217.903 64.9465 217.903C66.2749 217.903 67.6055 217.509 68.7347 216.647L68.7996 216.711C71.7887 214.589 72.5209 210.407 70.3953 207.422C69.3325 205.93 67.7783 205.005 66.1011 204.715ZM455.345 210.221C453.651 210.353 452.013 211.134 450.817 212.527C448.426 215.313 448.819 219.493 451.609 221.881C452.871 222.942 454.403 223.474 455.864 223.474C457.79 223.474 459.647 222.682 460.976 221.09C463.3 218.304 462.961 214.123 460.171 211.801C458.776 210.607 457.039 210.088 455.345 210.221ZM44.6948 222.865C43.0093 223.131 41.4374 224.042 40.3746 225.534C38.2491 228.519 38.9164 232.701 41.9055 234.823C43.0347 235.619 44.4302 236.08 45.7586 236.08C47.8178 236.08 49.8676 235.086 51.1297 233.295C53.3217 230.31 52.5993 226.193 49.6766 224.07C48.1821 222.976 46.3803 222.6 44.6948 222.865ZM472.237 230.665C471.377 230.7 470.511 230.901 469.681 231.299C466.36 232.825 464.897 236.741 466.424 240.057C467.554 242.512 469.946 243.905 472.47 243.905C473.4 243.905 474.33 243.707 475.259 243.309C478.581 241.784 480.044 237.803 478.516 234.487C477.32 231.999 474.815 230.559 472.237 230.665ZM37.3259 247.481C33.6857 247.679 30.8312 250.716 31.0078 254.412C31.1539 257.981 34.0721 260.747 37.6502 260.747H37.9226C41.576 260.615 44.427 257.503 44.2278 253.855C44.0949 250.14 40.9792 247.348 37.3259 247.481ZM473.716 256.485C471.144 256.731 468.817 258.497 468.02 261.084V261.149C466.957 264.598 468.885 268.313 472.405 269.441C473.003 269.64 473.728 269.713 474.325 269.713C477.182 269.713 479.778 267.914 480.708 265.062C481.771 261.612 479.844 257.898 476.323 256.77C475.46 256.488 474.573 256.403 473.716 256.485ZM48.3144 271.617C46.6206 271.435 44.8645 271.902 43.4364 273.029C40.5801 275.351 40.1126 279.531 42.4374 282.383C43.6995 283.975 45.6211 284.832 47.6139 284.832C49.0752 284.832 50.5438 284.363 51.7394 283.368C54.5957 281.113 55.0487 276.944 52.7903 274.092C51.6279 272.632 50.0082 271.8 48.3144 271.617ZM160.172 272.058C165.3 282.266 170.682 292.526 176.635 302.827C176.635 302.831 176.635 302.836 176.635 302.84C181.546 311.336 186.617 319.51 191.762 327.494C174.229 325.33 157.67 322.367 142.45 318.659C147.185 303.722 153.117 288.089 160.172 272.058ZM352.751 272.058C359.83 288.136 365.723 303.787 370.472 318.762C355.156 322.468 338.617 325.495 320.979 327.637C326.143 319.638 331.242 311.471 336.171 302.957C336.336 302.693 336.447 302.495 336.573 302.244C342.407 292.14 347.71 282.076 352.751 272.058ZM459.925 278.302C458.231 278.261 456.518 278.856 455.189 280.116C452.532 282.637 452.472 286.894 454.93 289.548C456.258 290.874 457.989 291.53 459.782 291.53C461.443 291.53 463.1 290.936 464.362 289.742C467.019 287.221 467.08 282.977 464.556 280.323C463.294 279.03 461.619 278.344 459.925 278.302ZM66.14 289.185C64.4711 289.508 62.9273 290.471 61.8977 291.996C59.8385 295.048 60.6974 299.164 63.7529 301.221C64.8821 301.95 66.1494 302.348 67.4114 302.348C69.6034 302.348 71.6631 301.279 72.9252 299.355C74.9843 296.304 74.1903 292.198 71.1348 290.208C69.6071 289.18 67.8089 288.862 66.14 289.185ZM437.52 293.94C436.657 294.045 435.8 294.317 435.003 294.782C431.881 296.573 430.756 300.681 432.616 303.799C433.811 305.988 436.065 307.115 438.324 307.115C439.453 307.115 440.649 306.857 441.645 306.26C444.833 304.403 445.957 300.348 444.097 297.23C442.752 294.842 440.107 293.622 437.52 293.94ZM218.695 343.352C231.109 344.189 243.765 344.751 256.786 344.751C269.543 344.751 281.959 344.222 294.136 343.417C281.768 360.585 269.072 376.072 256.409 389.578C243.756 376.06 231.053 360.521 218.695 343.352ZM123.742 369.069C120.089 368.671 116.759 371.328 116.36 374.977C116.028 378.625 118.623 381.873 122.276 382.271C122.542 382.271 122.737 382.335 123.003 382.335C126.324 382.335 129.248 379.825 129.58 376.376C129.979 372.728 127.396 369.467 123.742 369.069ZM390.426 378.889C386.772 379.088 383.986 382.211 384.185 385.859C384.385 389.375 387.307 392.091 390.828 392.091H391.23C394.883 391.892 397.67 388.771 397.47 385.056C397.271 381.408 394.079 378.624 390.426 378.889ZM121.744 395.537C118.025 395.736 115.24 398.859 115.439 402.507C115.572 406.023 118.561 408.804 122.082 408.804H122.406C126.059 408.605 128.859 405.495 128.659 401.846C128.526 398.198 125.398 395.338 121.744 395.537ZM391.035 405.357C387.382 404.893 383.989 407.476 383.524 411.058C383.059 414.706 385.579 418.028 389.232 418.559C389.498 418.559 389.836 418.624 390.101 418.624C393.356 418.624 396.28 416.175 396.679 412.859C397.21 409.21 394.622 405.888 391.035 405.357ZM127.141 421.552C126.282 421.506 125.397 421.625 124.534 421.941C121.08 423.134 119.29 426.977 120.486 430.426C121.482 433.146 124.003 434.805 126.726 434.805C127.457 434.805 128.253 434.682 128.984 434.417C132.438 433.223 134.229 429.366 132.967 425.983C132.07 423.346 129.72 421.689 127.141 421.552ZM216.814 428.043C215.137 427.744 213.347 428.077 211.819 429.105C208.83 431.228 208.1 435.344 210.159 438.329C211.487 440.187 213.549 441.18 215.608 441.18C216.936 441.18 218.265 440.848 219.461 440.052C222.45 437.93 223.181 433.815 221.121 430.763C220.059 429.271 218.491 428.341 216.814 428.043ZM383.083 430.569C380.511 430.233 377.874 431.433 376.479 433.821C374.686 437.005 375.756 441.045 378.944 442.903C380.007 443.5 381.136 443.771 382.265 443.771C384.59 443.771 386.777 442.577 388.039 440.454C389.832 437.27 388.775 433.215 385.587 431.424C384.79 430.96 383.94 430.681 383.083 430.569ZM312.403 437.124C309.834 436.854 307.222 438.131 305.877 440.519C304.15 443.703 305.271 447.745 308.459 449.536C309.522 450.067 310.586 450.326 311.715 450.326C314.04 450.326 316.306 449.134 317.502 446.945C319.295 443.761 318.162 439.719 314.907 437.928C314.11 437.48 313.259 437.215 312.403 437.124ZM192.463 441.244C191.598 441.27 190.725 441.459 189.894 441.84C186.573 443.366 185.11 447.346 186.638 450.663C187.767 453.117 190.159 454.511 192.684 454.511C193.614 454.511 194.543 454.313 195.473 453.915C198.794 452.389 200.257 448.409 198.729 445.092C197.583 442.605 195.057 441.167 192.463 441.244ZM140.764 442.864C139.086 443.179 137.525 444.131 136.495 445.623C134.436 448.608 135.165 452.791 138.221 454.848C139.35 455.644 140.682 456.04 141.944 456.04C144.07 456.04 146.116 455.035 147.445 453.112C149.504 450.127 148.709 446.023 145.719 443.9C144.225 442.872 142.441 442.549 140.764 442.864ZM362.974 447.217C362.112 447.149 361.22 447.242 360.34 447.541C356.886 448.668 354.956 452.381 356.085 455.897C357.015 458.683 359.613 460.483 362.403 460.483C363.067 460.483 363.801 460.345 364.466 460.146C367.986 459.019 369.837 455.239 368.708 451.79C367.861 449.153 365.558 447.419 362.974 447.217ZM335.172 447.243C332.609 447.659 330.435 449.555 329.788 452.192C328.858 455.774 331.054 459.347 334.575 460.276V460.211C335.106 460.41 335.704 460.483 336.235 460.483C339.158 460.483 341.873 458.429 342.67 455.444C343.534 451.862 341.405 448.275 337.818 447.346C336.921 447.131 336.026 447.104 335.172 447.243ZM166.711 448.668C163.057 449 160.333 452.184 160.665 455.832C160.997 459.282 163.92 461.87 167.307 461.87H167.904C171.558 461.538 174.284 458.289 173.885 454.64C173.619 450.992 170.364 448.336 166.711 448.668Z"/>
<path d="M294.693 310.395C295.992 309.611 296.288 307.87 295.359 306.67L287.445 295.734C279.178 283.225 261.789 257.744 249.482 239.082C237.174 220.42 226.887 204.928 226.609 204.631C225.627 203.556 224.996 203.408 221.215 203.408C218.008 203.408 217.712 203.445 216.952 203.816C216.507 204.057 215.877 204.557 215.58 204.946L215.006 205.669L214.913 280L215.302 280.834C215.58 281.372 215.988 281.835 216.544 282.187L217.397 282.725H220.603C223.402 282.725 223.921 282.669 224.514 282.372C225.293 281.965 225.664 281.594 226.146 280.686C226.479 280.056 226.498 278.981 226.553 252.277C226.59 237.025 226.665 224.534 226.739 224.553C226.813 224.553 235.413 237.192 245.867 252.647L264.866 280.76L279.469 301.238C287.81 312.505 287.715 312.44 287.863 312.552C287.909 312.589 290.874 312.58 290.926 312.552C292.199 311.861 293.455 311.141 294.693 310.395Z"/>
<path d="M284.977 203.371C284.718 202.482 283.995 201.629 283.105 201.184C282.493 200.851 282.011 200.814 279.268 200.814C276.358 200.814 276.08 200.851 275.32 201.24C274.43 201.722 273.782 202.537 273.485 203.575C273.374 204.001 273.3 212.804 273.3 228.463V251.851C273.3 252.395 273.458 252.927 273.756 253.382L279.194 261.691L279.949 262.849C281.467 265.175 285.081 264.104 285.085 261.326L285.125 237.377C285.162 214.157 285.125 203.853 284.977 203.371Z"/>
</mask>
<path d="M352.504 51.0098C348.851 50.8108 345.722 53.6579 345.589 57.3062C345.39 60.9545 348.254 64.0773 351.907 64.2763H352.232C355.752 64.2763 358.676 61.4841 358.809 57.9022C359.009 54.2539 356.158 51.1425 352.504 51.0098ZM169.643 51.6706C165.989 51.2726 162.659 53.8652 162.261 57.5135C161.796 61.1618 164.458 64.408 168.112 64.8723H168.838C172.159 64.8723 175.017 62.4252 175.416 59.0423C175.881 55.394 173.23 52.0686 169.643 51.6706ZM326.492 55.9329C325.625 55.9039 324.735 56.0547 323.872 56.3864C320.484 57.713 318.755 61.5525 320.083 65.0018C321.146 67.5888 323.68 69.2513 326.337 69.2513C327.134 69.2513 327.927 69.1165 328.724 68.7849C332.111 67.4582 333.84 63.6171 332.512 60.2342C331.516 57.6472 329.095 56.02 326.492 55.9329ZM142.23 56.6973C141.374 56.8362 140.532 57.1456 139.752 57.6431C136.63 59.5667 135.696 63.685 137.689 66.8027C138.885 68.7926 141.075 69.912 143.267 69.912C144.463 69.912 145.721 69.5793 146.783 68.8496C149.905 66.926 150.837 62.8206 148.911 59.703C147.466 57.4145 144.795 56.2807 142.23 56.6973ZM194.383 59.4569C191.805 59.348 189.3 60.7763 188.104 63.214C186.51 66.5306 187.974 70.5095 191.295 72.1015C192.159 72.4995 193.155 72.6974 194.085 72.6974C196.609 72.6974 199.001 71.3024 200.13 68.9144C201.658 65.5978 200.26 61.6837 196.939 60.0917C196.109 59.6937 195.242 59.4931 194.383 59.4569ZM376.051 61.2447C374.357 61.2281 372.663 61.8557 371.368 63.1492C368.711 65.7362 368.712 69.9161 371.303 72.5031C372.565 73.8298 374.285 74.4853 376.012 74.4853C377.673 74.4853 379.408 73.8945 380.67 72.5679C383.26 70.0473 383.325 65.8009 380.735 63.214C379.439 61.9205 377.745 61.2613 376.051 61.2447ZM301.648 68.2925C300.792 68.4377 299.951 68.7538 299.17 69.2513C296.115 71.2412 295.179 75.358 297.172 78.4756C298.434 80.3993 300.624 81.4554 302.816 81.4554C304.011 81.4554 305.28 81.1227 306.409 80.3931C309.465 78.4694 310.321 74.364 308.394 71.2464C306.9 68.9579 304.217 67.8572 301.648 68.2925ZM217.035 72.9436C215.6 72.901 214.191 73.3233 213.017 74.1474C211.843 74.9715 210.968 76.1531 210.522 77.5153C210.077 78.8775 210.085 80.3471 210.546 81.7043C211.006 83.0614 211.895 84.2332 213.078 85.0441H213.091L213.104 85.057C224.024 92.7294 235.477 102.658 247.069 114.142C233.706 128.361 220.41 144.66 207.512 162.648C182.037 164.893 158.315 168.918 136.872 174.308C132.814 158.377 130.081 143.409 129.113 130.129C129.015 128.454 128.284 126.878 127.068 125.719C125.853 124.561 124.242 123.905 122.562 123.885C121.634 123.872 120.714 124.054 119.861 124.419C119.007 124.783 118.24 125.322 117.608 126.001C116.976 126.679 116.494 127.483 116.192 128.359C115.89 129.235 115.775 130.165 115.854 131.088C116.894 145.35 119.753 161.11 123.976 177.728C110.872 181.552 98.7724 185.909 87.9874 190.787C87.3963 191.043 86.8457 191.384 86.3527 191.798C85.9495 191.903 85.5362 191.909 85.1462 192.096C81.825 193.622 80.427 197.602 81.9547 200.919C83.0839 203.307 85.4763 204.702 88.0004 204.702C88.9303 204.702 89.9262 204.504 90.7897 204.106C91.1553 203.93 91.4048 203.634 91.7238 203.406C92.3249 203.309 92.9099 203.131 93.4622 202.875C103.504 198.333 114.912 194.23 127.375 190.593C133.526 211.56 141.968 233.832 152.595 256.679C143.239 276.806 135.483 296.519 129.58 315.251C116.28 311.468 104.087 307.16 93.4752 302.361H93.4622C93.4579 302.356 93.4536 302.352 93.4492 302.348C93.4363 302.342 93.4233 302.341 93.4103 302.335C92.6226 301.975 91.772 301.773 90.9064 301.739C89.5897 301.691 88.2885 302.036 87.1684 302.729C86.0483 303.422 85.1599 304.432 84.6161 305.631C84.0724 306.829 83.8978 308.162 84.1146 309.46C84.3314 310.758 84.9299 311.962 85.8338 312.919V312.932C86.4134 313.545 87.1047 314.042 87.8706 314.396C87.9201 314.42 87.9501 314.464 88.0004 314.487C88.1131 314.539 88.2358 314.548 88.3507 314.591C99.5458 319.631 112.175 324.106 125.844 328.013C123.942 334.853 122.205 341.596 120.81 348.107C120.605 348.967 120.573 349.859 120.717 350.731C120.862 351.603 121.179 352.438 121.651 353.186C122.123 353.934 122.74 354.58 123.466 355.087C124.191 355.593 125.011 355.95 125.876 356.135C126.742 356.321 127.636 356.332 128.506 356.168C129.376 356.003 130.204 355.667 130.942 355.179C131.68 354.69 132.312 354.059 132.803 353.323C133.293 352.587 133.631 351.761 133.797 350.892C135.141 344.615 136.835 338.077 138.688 331.433C157.869 336.152 178.938 339.68 201.337 341.927C216.138 363.439 231.602 382.621 247.12 399.126C240.438 405.755 233.799 411.966 227.284 417.367C226.602 417.92 226.036 418.603 225.62 419.375C225.204 420.148 224.945 420.995 224.859 421.868C224.773 422.741 224.861 423.623 225.119 424.461C225.376 425.3 225.797 426.08 226.358 426.755C226.919 427.43 227.609 427.987 228.387 428.394C229.165 428.801 230.017 429.05 230.892 429.127C231.767 429.203 232.649 429.106 233.486 428.839C234.323 428.573 235.099 428.144 235.769 427.576C242.572 421.936 249.46 415.517 256.358 408.687C266.137 418.387 275.879 427.01 285.431 434.287C285.478 434.325 285.5 434.38 285.548 434.417V434.378C286.239 434.93 287.034 435.338 287.886 435.579C288.737 435.821 289.629 435.889 290.507 435.781C291.386 435.674 292.234 435.391 293.002 434.952C293.77 434.512 294.442 433.923 294.979 433.221C295.515 432.518 295.906 431.715 296.128 430.859C296.35 430.004 296.398 429.112 296.27 428.238C296.142 427.363 295.84 426.523 295.383 425.766C294.925 425.01 294.32 424.352 293.604 423.832C284.516 416.916 275.13 408.594 265.647 399.165C281.17 382.676 296.652 363.512 311.469 342.005C333.968 339.779 355.08 336.2 374.352 331.485C377.517 342.808 379.984 353.658 381.669 363.848C381.954 365.585 382.919 367.137 384.351 368.164C385.06 368.672 385.862 369.036 386.712 369.234C387.562 369.433 388.442 369.463 389.304 369.321C390.165 369.18 390.99 368.871 391.731 368.411C392.473 367.952 393.116 367.351 393.625 366.643C394.134 365.935 394.499 365.134 394.698 364.285C394.897 363.437 394.926 362.557 394.785 361.697C393.025 351.051 390.491 339.811 387.247 328.155C398.523 324.952 409.118 321.381 418.747 317.402C419.565 317.077 420.31 316.593 420.939 315.978C421.567 315.363 422.068 314.629 422.41 313.819C422.752 313.009 422.93 312.14 422.933 311.261C422.936 310.382 422.764 309.511 422.427 308.699C422.09 307.887 421.595 307.15 420.97 306.531C420.346 305.911 419.604 305.422 418.788 305.092C417.973 304.761 417.099 304.596 416.219 304.605C415.339 304.614 414.47 304.798 413.661 305.146C404.499 308.933 394.307 312.36 383.381 315.446C377.448 296.601 369.731 276.829 360.301 256.576C370.951 233.7 379.363 211.458 385.535 190.464C393.127 192.667 400.466 194.982 407.2 197.537C408.014 197.852 408.882 198.004 409.754 197.984C410.626 197.963 411.486 197.772 412.284 197.42C413.082 197.068 413.803 196.563 414.405 195.933C415.008 195.303 415.48 194.56 415.795 193.748C416.111 192.935 416.262 192.069 416.242 191.198C416.222 190.327 416.031 189.468 415.678 188.671C415.326 187.874 414.82 187.154 414.189 186.553C413.558 185.951 412.814 185.479 412.001 185.165C411.982 185.157 411.967 185.146 411.949 185.139C411.94 185.136 411.931 185.142 411.923 185.139C404.784 182.43 397.065 179.989 389.102 177.676C392.028 166.23 394.312 155.194 395.745 144.808V144.795V144.782C395.887 143.85 395.828 142.897 395.573 141.989C395.317 141.081 394.871 140.238 394.263 139.516C393.655 138.793 392.9 138.209 392.048 137.801C391.197 137.394 390.267 137.172 389.323 137.151C387.689 137.118 386.1 137.688 384.86 138.752C383.62 139.816 382.816 141.298 382.603 142.917C382.601 142.926 382.591 142.933 382.59 142.942V142.955C382.59 142.96 382.59 142.964 382.59 142.968C381.243 152.734 379.08 163.23 376.285 174.165C354.794 168.793 330.902 164.872 305.384 162.648C292.447 144.628 279.113 128.236 265.711 114.013C275.314 104.468 284.812 96.0485 294.007 89.0862C295.128 88.2595 295.961 87.1013 296.387 85.7758C296.813 84.4502 296.81 83.0245 296.38 81.7004C295.949 80.3763 295.113 79.221 293.988 78.3982C292.864 77.5753 291.509 77.1265 290.115 77.1153C288.621 77.1053 287.168 77.5982 285.989 78.5145C276.254 85.8861 266.308 94.6834 256.332 104.581C244.325 92.7143 232.371 82.3591 220.758 74.2003C219.672 73.4159 218.374 72.9779 217.035 72.9436ZM127.128 77.2578C124.553 77.3542 122.144 78.9332 121.148 81.5202C119.819 84.9031 121.547 88.7572 125.001 90.0838C125.798 90.4155 126.592 90.5502 127.323 90.5502C130.046 90.5502 132.567 88.8893 133.563 86.236C134.892 82.853 133.164 78.999 129.71 77.6724C128.863 77.3573 127.987 77.2257 127.128 77.2578ZM389.128 84.5647C388.282 84.4352 387.388 84.4751 386.508 84.7072C382.921 85.6359 380.805 89.2111 381.669 92.7267C382.466 95.778 385.181 97.7794 388.103 97.7794C388.635 97.7794 389.233 97.7048 389.764 97.5721C393.285 96.6435 395.481 93.0698 394.551 89.4878C393.854 86.8511 391.666 84.9534 389.128 84.5647ZM122.679 103.208C119.025 103.009 115.833 105.738 115.634 109.452C115.368 113.101 118.154 116.211 121.874 116.41C122.007 116.476 122.144 116.474 122.276 116.474C125.73 116.474 128.653 113.758 128.919 110.243C129.118 106.594 126.332 103.407 122.679 103.208ZM391.035 110.774C387.382 110.774 384.458 113.757 384.458 117.472C384.458 121.12 387.447 124.04 391.1 124.04C394.754 124.04 397.743 121.055 397.743 117.407C397.743 113.759 394.755 110.774 391.035 110.774ZM256.409 123.613C266.972 134.867 277.558 147.599 287.974 161.443C277.755 160.882 267.396 160.497 256.786 160.497C245.897 160.497 235.28 160.907 224.806 161.495C235.232 147.597 245.829 134.915 256.409 123.613ZM256.786 173.764C270.959 173.764 284.789 174.327 298.197 175.344C307.432 188.5 316.435 202.559 325.013 217.398C332.589 230.505 339.481 243.599 345.667 256.511C339.434 269.539 332.531 282.737 324.884 295.961C324.853 296.016 324.822 296.072 324.793 296.129C324.757 296.189 324.723 296.249 324.689 296.31C317.998 307.87 311.029 318.882 303.918 329.438C288.74 330.76 272.989 331.485 256.786 331.485C240.359 331.485 224.364 330.759 208.991 329.399C201.859 318.805 194.849 307.809 188.143 296.207C180.448 282.893 173.604 269.625 167.346 256.511C173.578 243.496 180.448 230.315 188.091 217.1C188.104 217.079 188.117 217.057 188.13 217.035C188.152 217.001 188.173 216.966 188.195 216.932C196.655 202.304 205.538 188.468 214.635 175.474C228.291 174.414 242.332 173.764 256.786 173.764ZM315.283 176.977C335.866 179.233 355.17 182.615 372.691 186.966C367.626 204.12 360.961 222.261 352.725 240.99C347.677 230.964 342.365 220.889 336.521 210.778C329.69 198.961 322.543 187.787 315.283 176.977ZM197.484 177.119C190.37 187.733 183.386 198.718 176.687 210.298C176.657 210.35 176.625 210.404 176.596 210.454C176.589 210.467 176.591 210.48 176.583 210.493C170.698 220.67 165.303 230.819 160.224 240.912C152.073 222.313 145.32 204.196 140.297 187.16C157.74 182.797 176.976 179.408 197.484 177.119ZM434.393 195.581C431.799 195.342 429.188 196.628 427.893 199.066C426.166 202.316 427.428 206.294 430.683 208.018C431.679 208.549 432.746 208.809 433.809 208.809C436.134 208.809 438.452 207.553 439.647 205.298C441.374 202.114 440.111 198.07 436.923 196.345C436.109 195.914 435.257 195.661 434.393 195.581ZM66.1011 204.715C64.4239 204.424 62.6211 204.767 61.0933 205.829C58.1042 207.951 57.385 212.068 59.5106 215.053C60.839 216.91 62.8873 217.903 64.9465 217.903C66.2749 217.903 67.6055 217.509 68.7347 216.647L68.7996 216.711C71.7887 214.589 72.5209 210.407 70.3953 207.422C69.3325 205.93 67.7783 205.005 66.1011 204.715ZM455.345 210.221C453.651 210.353 452.013 211.134 450.817 212.527C448.426 215.313 448.819 219.493 451.609 221.881C452.871 222.942 454.403 223.474 455.864 223.474C457.79 223.474 459.647 222.682 460.976 221.09C463.3 218.304 462.961 214.123 460.171 211.801C458.776 210.607 457.039 210.088 455.345 210.221ZM44.6948 222.865C43.0093 223.131 41.4374 224.042 40.3746 225.534C38.2491 228.519 38.9164 232.701 41.9055 234.823C43.0347 235.619 44.4302 236.08 45.7586 236.08C47.8178 236.08 49.8676 235.086 51.1297 233.295C53.3217 230.31 52.5993 226.193 49.6766 224.07C48.1821 222.976 46.3803 222.6 44.6948 222.865ZM472.237 230.665C471.377 230.7 470.511 230.901 469.681 231.299C466.36 232.825 464.897 236.741 466.424 240.057C467.554 242.512 469.946 243.905 472.47 243.905C473.4 243.905 474.33 243.707 475.259 243.309C478.581 241.784 480.044 237.803 478.516 234.487C477.32 231.999 474.815 230.559 472.237 230.665ZM37.3259 247.481C33.6857 247.679 30.8312 250.716 31.0078 254.412C31.1539 257.981 34.0721 260.747 37.6502 260.747H37.9226C41.576 260.615 44.427 257.503 44.2278 253.855C44.0949 250.14 40.9792 247.348 37.3259 247.481ZM473.716 256.485C471.144 256.731 468.817 258.497 468.02 261.084V261.149C466.957 264.598 468.885 268.313 472.405 269.441C473.003 269.64 473.728 269.713 474.325 269.713C477.182 269.713 479.778 267.914 480.708 265.062C481.771 261.612 479.844 257.898 476.323 256.77C475.46 256.488 474.573 256.403 473.716 256.485ZM48.3144 271.617C46.6206 271.435 44.8645 271.902 43.4364 273.029C40.5801 275.351 40.1126 279.531 42.4374 282.383C43.6995 283.975 45.6211 284.832 47.6139 284.832C49.0752 284.832 50.5438 284.363 51.7394 283.368C54.5957 281.113 55.0487 276.944 52.7903 274.092C51.6279 272.632 50.0082 271.8 48.3144 271.617ZM160.172 272.058C165.3 282.266 170.682 292.526 176.635 302.827C176.635 302.831 176.635 302.836 176.635 302.84C181.546 311.336 186.617 319.51 191.762 327.494C174.229 325.33 157.67 322.367 142.45 318.659C147.185 303.722 153.117 288.089 160.172 272.058ZM352.751 272.058C359.83 288.136 365.723 303.787 370.472 318.762C355.156 322.468 338.617 325.495 320.979 327.637C326.143 319.638 331.242 311.471 336.171 302.957C336.336 302.693 336.447 302.495 336.573 302.244C342.407 292.14 347.71 282.076 352.751 272.058ZM459.925 278.302C458.231 278.261 456.518 278.856 455.189 280.116C452.532 282.637 452.472 286.894 454.93 289.548C456.258 290.874 457.989 291.53 459.782 291.53C461.443 291.53 463.1 290.936 464.362 289.742C467.019 287.221 467.08 282.977 464.556 280.323C463.294 279.03 461.619 278.344 459.925 278.302ZM66.14 289.185C64.4711 289.508 62.9273 290.471 61.8977 291.996C59.8385 295.048 60.6974 299.164 63.7529 301.221C64.8821 301.95 66.1494 302.348 67.4114 302.348C69.6034 302.348 71.6631 301.279 72.9252 299.355C74.9843 296.304 74.1903 292.198 71.1348 290.208C69.6071 289.18 67.8089 288.862 66.14 289.185ZM437.52 293.94C436.657 294.045 435.8 294.317 435.003 294.782C431.881 296.573 430.756 300.681 432.616 303.799C433.811 305.988 436.065 307.115 438.324 307.115C439.453 307.115 440.649 306.857 441.645 306.26C444.833 304.403 445.957 300.348 444.097 297.23C442.752 294.842 440.107 293.622 437.52 293.94ZM218.695 343.352C231.109 344.189 243.765 344.751 256.786 344.751C269.543 344.751 281.959 344.222 294.136 343.417C281.768 360.585 269.072 376.072 256.409 389.578C243.756 376.06 231.053 360.521 218.695 343.352ZM123.742 369.069C120.089 368.671 116.759 371.328 116.36 374.977C116.028 378.625 118.623 381.873 122.276 382.271C122.542 382.271 122.737 382.335 123.003 382.335C126.324 382.335 129.248 379.825 129.58 376.376C129.979 372.728 127.396 369.467 123.742 369.069ZM390.426 378.889C386.772 379.088 383.986 382.211 384.185 385.859C384.385 389.375 387.307 392.091 390.828 392.091H391.23C394.883 391.892 397.67 388.771 397.47 385.056C397.271 381.408 394.079 378.624 390.426 378.889ZM121.744 395.537C118.025 395.736 115.24 398.859 115.439 402.507C115.572 406.023 118.561 408.804 122.082 408.804H122.406C126.059 408.605 128.859 405.495 128.659 401.846C128.526 398.198 125.398 395.338 121.744 395.537ZM391.035 405.357C387.382 404.893 383.989 407.476 383.524 411.058C383.059 414.706 385.579 418.028 389.232 418.559C389.498 418.559 389.836 418.624 390.101 418.624C393.356 418.624 396.28 416.175 396.679 412.859C397.21 409.21 394.622 405.888 391.035 405.357ZM127.141 421.552C126.282 421.506 125.397 421.625 124.534 421.941C121.08 423.134 119.29 426.977 120.486 430.426C121.482 433.146 124.003 434.805 126.726 434.805C127.457 434.805 128.253 434.682 128.984 434.417C132.438 433.223 134.229 429.366 132.967 425.983C132.07 423.346 129.72 421.689 127.141 421.552ZM216.814 428.043C215.137 427.744 213.347 428.077 211.819 429.105C208.83 431.228 208.1 435.344 210.159 438.329C211.487 440.187 213.549 441.18 215.608 441.18C216.936 441.18 218.265 440.848 219.461 440.052C222.45 437.93 223.181 433.815 221.121 430.763C220.059 429.271 218.491 428.341 216.814 428.043ZM383.083 430.569C380.511 430.233 377.874 431.433 376.479 433.821C374.686 437.005 375.756 441.045 378.944 442.903C380.007 443.5 381.136 443.771 382.265 443.771C384.59 443.771 386.777 442.577 388.039 440.454C389.832 437.27 388.775 433.215 385.587 431.424C384.79 430.96 383.94 430.681 383.083 430.569ZM312.403 437.124C309.834 436.854 307.222 438.131 305.877 440.519C304.15 443.703 305.271 447.745 308.459 449.536C309.522 450.067 310.586 450.326 311.715 450.326C314.04 450.326 316.306 449.134 317.502 446.945C319.295 443.761 318.162 439.719 314.907 437.928C314.11 437.48 313.259 437.215 312.403 437.124ZM192.463 441.244C191.598 441.27 190.725 441.459 189.894 441.84C186.573 443.366 185.11 447.346 186.638 450.663C187.767 453.117 190.159 454.511 192.684 454.511C193.614 454.511 194.543 454.313 195.473 453.915C198.794 452.389 200.257 448.409 198.729 445.092C197.583 442.605 195.057 441.167 192.463 441.244ZM140.764 442.864C139.086 443.179 137.525 444.131 136.495 445.623C134.436 448.608 135.165 452.791 138.221 454.848C139.35 455.644 140.682 456.04 141.944 456.04C144.07 456.04 146.116 455.035 147.445 453.112C149.504 450.127 148.709 446.023 145.719 443.9C144.225 442.872 142.441 442.549 140.764 442.864ZM362.974 447.217C362.112 447.149 361.22 447.242 360.34 447.541C356.886 448.668 354.956 452.381 356.085 455.897C357.015 458.683 359.613 460.483 362.403 460.483C363.067 460.483 363.801 460.345 364.466 460.146C367.986 459.019 369.837 455.239 368.708 451.79C367.861 449.153 365.558 447.419 362.974 447.217ZM335.172 447.243C332.609 447.659 330.435 449.555 329.788 452.192C328.858 455.774 331.054 459.347 334.575 460.276V460.211C335.106 460.41 335.704 460.483 336.235 460.483C339.158 460.483 341.873 458.429 342.67 455.444C343.534 451.862 341.405 448.275 337.818 447.346C336.921 447.131 336.026 447.104 335.172 447.243ZM166.711 448.668C163.057 449 160.333 452.184 160.665 455.832C160.997 459.282 163.92 461.87 167.307 461.87H167.904C171.558 461.538 174.284 458.289 173.885 454.64C173.619 450.992 170.364 448.336 166.711 448.668Z" fill="url(#paint1_linear_20_12)"/>
<path d="M294.693 310.395C295.992 309.611 296.288 307.87 295.359 306.67L287.445 295.734C279.178 283.225 261.789 257.744 249.482 239.082C237.174 220.42 226.887 204.928 226.609 204.631C225.627 203.556 224.996 203.408 221.215 203.408C218.008 203.408 217.712 203.445 216.952 203.816C216.507 204.057 215.877 204.557 215.58 204.946L215.006 205.669L214.913 280L215.302 280.834C215.58 281.372 215.988 281.835 216.544 282.187L217.397 282.725H220.603C223.402 282.725 223.921 282.669 224.514 282.372C225.293 281.965 225.664 281.594 226.146 280.686C226.479 280.056 226.498 278.981 226.553 252.277C226.59 237.025 226.665 224.534 226.739 224.553C226.813 224.553 235.413 237.192 245.867 252.647L264.866 280.76L279.469 301.238C287.81 312.505 287.715 312.44 287.863 312.552C287.909 312.589 290.874 312.58 290.926 312.552C292.199 311.861 293.455 311.141 294.693 310.395Z" fill="url(#paint2_linear_20_12)"/>
<path d="M284.977 203.371C284.718 202.482 283.995 201.629 283.105 201.184C282.493 200.851 282.011 200.814 279.268 200.814C276.358 200.814 276.08 200.851 275.32 201.24C274.43 201.722 273.782 202.537 273.485 203.575C273.374 204.001 273.3 212.804 273.3 228.463V251.851C273.3 252.395 273.458 252.927 273.756 253.382L279.194 261.691L279.949 262.849C281.467 265.175 285.081 264.104 285.085 261.326L285.125 237.377C285.162 214.157 285.125 203.853 284.977 203.371Z" fill="url(#paint3_linear_20_12)"/>
<path d="M352.504 51.0098C348.851 50.8108 345.722 53.6579 345.589 57.3062C345.39 60.9545 348.254 64.0773 351.907 64.2763H352.232C355.752 64.2763 358.676 61.4841 358.809 57.9022C359.009 54.2539 356.158 51.1425 352.504 51.0098ZM169.643 51.6706C165.989 51.2726 162.659 53.8652 162.261 57.5135C161.796 61.1618 164.458 64.408 168.112 64.8723H168.838C172.159 64.8723 175.017 62.4252 175.416 59.0423C175.881 55.394 173.23 52.0686 169.643 51.6706ZM326.492 55.9329C325.625 55.9039 324.735 56.0547 323.872 56.3864C320.484 57.713 318.755 61.5525 320.083 65.0018C321.146 67.5888 323.68 69.2513 326.337 69.2513C327.134 69.2513 327.927 69.1165 328.724 68.7849C332.111 67.4582 333.84 63.6171 332.512 60.2342C331.516 57.6472 329.095 56.02 326.492 55.9329ZM142.23 56.6973C141.374 56.8362 140.532 57.1456 139.752 57.6431C136.63 59.5667 135.696 63.685 137.689 66.8027C138.885 68.7926 141.075 69.912 143.267 69.912C144.463 69.912 145.721 69.5793 146.783 68.8496C149.905 66.926 150.837 62.8206 148.911 59.703C147.466 57.4145 144.795 56.2807 142.23 56.6973ZM194.383 59.4569C191.805 59.348 189.3 60.7763 188.104 63.214C186.51 66.5306 187.974 70.5095 191.295 72.1015C192.159 72.4995 193.155 72.6974 194.085 72.6974C196.609 72.6974 199.001 71.3024 200.13 68.9144C201.658 65.5978 200.26 61.6837 196.939 60.0917C196.109 59.6937 195.242 59.4931 194.383 59.4569ZM376.051 61.2447C374.357 61.2281 372.663 61.8557 371.368 63.1492C368.711 65.7362 368.712 69.9161 371.303 72.5031C372.565 73.8298 374.285 74.4853 376.012 74.4853C377.673 74.4853 379.408 73.8945 380.67 72.5679C383.26 70.0473 383.325 65.8009 380.735 63.214C379.439 61.9205 377.745 61.2613 376.051 61.2447ZM301.648 68.2925C300.792 68.4377 299.951 68.7538 299.17 69.2513C296.115 71.2412 295.179 75.358 297.172 78.4756C298.434 80.3993 300.624 81.4554 302.816 81.4554C304.011 81.4554 305.28 81.1227 306.409 80.3931C309.465 78.4694 310.321 74.364 308.394 71.2464C306.9 68.9579 304.217 67.8572 301.648 68.2925ZM217.035 72.9436C215.6 72.901 214.191 73.3233 213.017 74.1474C211.843 74.9715 210.968 76.1531 210.522 77.5153C210.077 78.8775 210.085 80.3471 210.546 81.7043C211.006 83.0614 211.895 84.2332 213.078 85.0441H213.091L213.104 85.057C224.024 92.7294 235.477 102.658 247.069 114.142C233.706 128.361 220.41 144.66 207.512 162.648C182.037 164.893 158.315 168.918 136.872 174.308C132.814 158.377 130.081 143.409 129.113 130.129C129.015 128.454 128.284 126.878 127.068 125.719C125.853 124.561 124.242 123.905 122.562 123.885C121.634 123.872 120.714 124.054 119.861 124.419C119.007 124.783 118.24 125.322 117.608 126.001C116.976 126.679 116.494 127.483 116.192 128.359C115.89 129.235 115.775 130.165 115.854 131.088C116.894 145.35 119.753 161.11 123.976 177.728C110.872 181.552 98.7724 185.909 87.9874 190.787C87.3963 191.043 86.8457 191.384 86.3527 191.798C85.9495 191.903 85.5362 191.909 85.1462 192.096C81.825 193.622 80.427 197.602 81.9547 200.919C83.0839 203.307 85.4763 204.702 88.0004 204.702C88.9303 204.702 89.9262 204.504 90.7897 204.106C91.1553 203.93 91.4048 203.634 91.7238 203.406C92.3249 203.309 92.9099 203.131 93.4622 202.875C103.504 198.333 114.912 194.23 127.375 190.593C133.526 211.56 141.968 233.832 152.595 256.679C143.239 276.806 135.483 296.519 129.58 315.251C116.28 311.468 104.087 307.16 93.4752 302.361H93.4622C93.4579 302.356 93.4536 302.352 93.4492 302.348C93.4363 302.342 93.4233 302.341 93.4103 302.335C92.6226 301.975 91.772 301.773 90.9064 301.739C89.5897 301.691 88.2885 302.036 87.1684 302.729C86.0483 303.422 85.1599 304.432 84.6161 305.631C84.0724 306.829 83.8978 308.162 84.1146 309.46C84.3314 310.758 84.9299 311.962 85.8338 312.919V312.932C86.4134 313.545 87.1047 314.042 87.8706 314.396C87.9201 314.42 87.9501 314.464 88.0004 314.487C88.1131 314.539 88.2358 314.548 88.3507 314.591C99.5458 319.631 112.175 324.106 125.844 328.013C123.942 334.853 122.205 341.596 120.81 348.107C120.605 348.967 120.573 349.859 120.717 350.731C120.862 351.603 121.179 352.438 121.651 353.186C122.123 353.934 122.74 354.58 123.466 355.087C124.191 355.593 125.011 355.95 125.876 356.135C126.742 356.321 127.636 356.332 128.506 356.168C129.376 356.003 130.204 355.667 130.942 355.179C131.68 354.69 132.312 354.059 132.803 353.323C133.293 352.587 133.631 351.761 133.797 350.892C135.141 344.615 136.835 338.077 138.688 331.433C157.869 336.152 178.938 339.68 201.337 341.927C216.138 363.439 231.602 382.621 247.12 399.126C240.438 405.755 233.799 411.966 227.284 417.367C226.602 417.92 226.036 418.603 225.62 419.375C225.204 420.148 224.945 420.995 224.859 421.868C224.773 422.741 224.861 423.623 225.119 424.461C225.376 425.3 225.797 426.08 226.358 426.755C226.919 427.43 227.609 427.987 228.387 428.394C229.165 428.801 230.017 429.05 230.892 429.127C231.767 429.203 232.649 429.106 233.486 428.839C234.323 428.573 235.099 428.144 235.769 427.576C242.572 421.936 249.46 415.517 256.358 408.687C266.137 418.387 275.879 427.01 285.431 434.287C285.478 434.325 285.5 434.38 285.548 434.417V434.378C286.239 434.93 287.034 435.338 287.886 435.579C288.737 435.821 289.629 435.889 290.507 435.781C291.386 435.674 292.234 435.391 293.002 434.952C293.77 434.512 294.442 433.923 294.979 433.221C295.515 432.518 295.906 431.715 296.128 430.859C296.35 430.004 296.398 429.112 296.27 428.238C296.142 427.363 295.84 426.523 295.383 425.766C294.925 425.01 294.32 424.352 293.604 423.832C284.516 416.916 275.13 408.594 265.647 399.165C281.17 382.676 296.652 363.512 311.469 342.005C333.968 339.779 355.08 336.2 374.352 331.485C377.517 342.808 379.984 353.658 381.669 363.848C381.954 365.585 382.919 367.137 384.351 368.164C385.06 368.672 385.862 369.036 386.712 369.234C387.562 369.433 388.442 369.463 389.304 369.321C390.165 369.18 390.99 368.871 391.731 368.411C392.473 367.952 393.116 367.351 393.625 366.643C394.134 365.935 394.499 365.134 394.698 364.285C394.897 363.437 394.926 362.557 394.785 361.697C393.025 351.051 390.491 339.811 387.247 328.155C398.523 324.952 409.118 321.381 418.747 317.402C419.565 317.077 420.31 316.593 420.939 315.978C421.567 315.363 422.068 314.629 422.41 313.819C422.752 313.009 422.93 312.14 422.933 311.261C422.936 310.382 422.764 309.511 422.427 308.699C422.09 307.887 421.595 307.15 420.97 306.531C420.346 305.911 419.604 305.422 418.788 305.092C417.973 304.761 417.099 304.596 416.219 304.605C415.339 304.614 414.47 304.798 413.661 305.146C404.499 308.933 394.307 312.36 383.381 315.446C377.448 296.601 369.731 276.829 360.301 256.576C370.951 233.7 379.363 211.458 385.535 190.464C393.127 192.667 400.466 194.982 407.2 197.537C408.014 197.852 408.882 198.004 409.754 197.984C410.626 197.963 411.486 197.772 412.284 197.42C413.082 197.068 413.803 196.563 414.405 195.933C415.008 195.303 415.48 194.56 415.795 193.748C416.111 192.935 416.262 192.069 416.242 191.198C416.222 190.327 416.031 189.468 415.678 188.671C415.326 187.874 414.82 187.154 414.189 186.553C413.558 185.951 412.814 185.479 412.001 185.165C411.982 185.157 411.967 185.146 411.949 185.139C411.94 185.136 411.931 185.142 411.923 185.139C404.784 182.43 397.065 179.989 389.102 177.676C392.028 166.23 394.312 155.194 395.745 144.808V144.795V144.782C395.887 143.85 395.828 142.897 395.573 141.989C395.317 141.081 394.871 140.238 394.263 139.516C393.655 138.793 392.9 138.209 392.048 137.801C391.197 137.394 390.267 137.172 389.323 137.151C387.689 137.118 386.1 137.688 384.86 138.752C383.62 139.816 382.816 141.298 382.603 142.917C382.601 142.926 382.591 142.933 382.59 142.942V142.955C382.59 142.96 382.59 142.964 382.59 142.968C381.243 152.734 379.08 163.23 376.285 174.165C354.794 168.793 330.902 164.872 305.384 162.648C292.447 144.628 279.113 128.236 265.711 114.013C275.314 104.468 284.812 96.0485 294.007 89.0862C295.128 88.2595 295.961 87.1013 296.387 85.7758C296.813 84.4502 296.81 83.0245 296.38 81.7004C295.949 80.3763 295.113 79.221 293.988 78.3982C292.864 77.5753 291.509 77.1265 290.115 77.1153C288.621 77.1053 287.168 77.5982 285.989 78.5145C276.254 85.8861 266.308 94.6834 256.332 104.581C244.325 92.7143 232.371 82.3591 220.758 74.2003C219.672 73.4159 218.374 72.9779 217.035 72.9436ZM127.128 77.2578C124.553 77.3542 122.144 78.9332 121.148 81.5202C119.819 84.9031 121.547 88.7572 125.001 90.0838C125.798 90.4155 126.592 90.5502 127.323 90.5502C130.046 90.5502 132.567 88.8893 133.563 86.236C134.892 82.853 133.164 78.999 129.71 77.6724C128.863 77.3573 127.987 77.2257 127.128 77.2578ZM389.128 84.5647C388.282 84.4352 387.388 84.4751 386.508 84.7072C382.921 85.6359 380.805 89.2111 381.669 92.7267C382.466 95.778 385.181 97.7794 388.103 97.7794C388.635 97.7794 389.233 97.7048 389.764 97.5721C393.285 96.6435 395.481 93.0698 394.551 89.4878C393.854 86.8511 391.666 84.9534 389.128 84.5647ZM122.679 103.208C119.025 103.009 115.833 105.738 115.634 109.452C115.368 113.101 118.154 116.211 121.874 116.41C122.007 116.476 122.144 116.474 122.276 116.474C125.73 116.474 128.653 113.758 128.919 110.243C129.118 106.594 126.332 103.407 122.679 103.208ZM391.035 110.774C387.382 110.774 384.458 113.757 384.458 117.472C384.458 121.12 387.447 124.04 391.1 124.04C394.754 124.04 397.743 121.055 397.743 117.407C397.743 113.759 394.755 110.774 391.035 110.774ZM256.409 123.613C266.972 134.867 277.558 147.599 287.974 161.443C277.755 160.882 267.396 160.497 256.786 160.497C245.897 160.497 235.28 160.907 224.806 161.495C235.232 147.597 245.829 134.915 256.409 123.613ZM256.786 173.764C270.959 173.764 284.789 174.327 298.197 175.344C307.432 188.5 316.435 202.559 325.013 217.398C332.589 230.505 339.481 243.599 345.667 256.511C339.434 269.539 332.531 282.737 324.884 295.961C324.853 296.016 324.822 296.072 324.793 296.129C324.757 296.189 324.723 296.249 324.689 296.31C317.998 307.87 311.029 318.882 303.918 329.438C288.74 330.76 272.989 331.485 256.786 331.485C240.359 331.485 224.364 330.759 208.991 329.399C201.859 318.805 194.849 307.809 188.143 296.207C180.448 282.893 173.604 269.625 167.346 256.511C173.578 243.496 180.448 230.315 188.091 217.1C188.104 217.079 188.117 217.057 188.13 217.035C188.152 217.001 188.173 216.966 188.195 216.932C196.655 202.304 205.538 188.468 214.635 175.474C228.291 174.414 242.332 173.764 256.786 173.764ZM315.283 176.977C335.866 179.233 355.17 182.615 372.691 186.966C367.626 204.12 360.961 222.261 352.725 240.99C347.677 230.964 342.365 220.889 336.521 210.778C329.69 198.961 322.543 187.787 315.283 176.977ZM197.484 177.119C190.37 187.733 183.386 198.718 176.687 210.298C176.657 210.35 176.625 210.404 176.596 210.454C176.589 210.467 176.591 210.48 176.583 210.493C170.698 220.67 165.303 230.819 160.224 240.912C152.073 222.313 145.32 204.196 140.297 187.16C157.74 182.797 176.976 179.408 197.484 177.119ZM434.393 195.581C431.799 195.342 429.188 196.628 427.893 199.066C426.166 202.316 427.428 206.294 430.683 208.018C431.679 208.549 432.746 208.809 433.809 208.809C436.134 208.809 438.452 207.553 439.647 205.298C441.374 202.114 440.111 198.07 436.923 196.345C436.109 195.914 435.257 195.661 434.393 195.581ZM66.1011 204.715C64.4239 204.424 62.6211 204.767 61.0933 205.829C58.1042 207.951 57.385 212.068 59.5106 215.053C60.839 216.91 62.8873 217.903 64.9465 217.903C66.2749 217.903 67.6055 217.509 68.7347 216.647L68.7996 216.711C71.7887 214.589 72.5209 210.407 70.3953 207.422C69.3325 205.93 67.7783 205.005 66.1011 204.715ZM455.345 210.221C453.651 210.353 452.013 211.134 450.817 212.527C448.426 215.313 448.819 219.493 451.609 221.881C452.871 222.942 454.403 223.474 455.864 223.474C457.79 223.474 459.647 222.682 460.976 221.09C463.3 218.304 462.961 214.123 460.171 211.801C458.776 210.607 457.039 210.088 455.345 210.221ZM44.6948 222.865C43.0093 223.131 41.4374 224.042 40.3746 225.534C38.2491 228.519 38.9164 232.701 41.9055 234.823C43.0347 235.619 44.4302 236.08 45.7586 236.08C47.8178 236.08 49.8676 235.086 51.1297 233.295C53.3217 230.31 52.5993 226.193 49.6766 224.07C48.1821 222.976 46.3803 222.6 44.6948 222.865ZM472.237 230.665C471.377 230.7 470.511 230.901 469.681 231.299C466.36 232.825 464.897 236.741 466.424 240.057C467.554 242.512 469.946 243.905 472.47 243.905C473.4 243.905 474.33 243.707 475.259 243.309C478.581 241.784 480.044 237.803 478.516 234.487C477.32 231.999 474.815 230.559 472.237 230.665ZM37.3259 247.481C33.6857 247.679 30.8312 250.716 31.0078 254.412C31.1539 257.981 34.0721 260.747 37.6502 260.747H37.9226C41.576 260.615 44.427 257.503 44.2278 253.855C44.0949 250.14 40.9792 247.348 37.3259 247.481ZM473.716 256.485C471.144 256.731 468.817 258.497 468.02 261.084V261.149C466.957 264.598 468.885 268.313 472.405 269.441C473.003 269.64 473.728 269.713 474.325 269.713C477.182 269.713 479.778 267.914 480.708 265.062C481.771 261.612 479.844 257.898 476.323 256.77C475.46 256.488 474.573 256.403 473.716 256.485ZM48.3144 271.617C46.6206 271.435 44.8645 271.902 43.4364 273.029C40.5801 275.351 40.1126 279.531 42.4374 282.383C43.6995 283.975 45.6211 284.832 47.6139 284.832C49.0752 284.832 50.5438 284.363 51.7394 283.368C54.5957 281.113 55.0487 276.944 52.7903 274.092C51.6279 272.632 50.0082 271.8 48.3144 271.617ZM160.172 272.058C165.3 282.266 170.682 292.526 176.635 302.827C176.635 302.831 176.635 302.836 176.635 302.84C181.546 311.336 186.617 319.51 191.762 327.494C174.229 325.33 157.67 322.367 142.45 318.659C147.185 303.722 153.117 288.089 160.172 272.058ZM352.751 272.058C359.83 288.136 365.723 303.787 370.472 318.762C355.156 322.468 338.617 325.495 320.979 327.637C326.143 319.638 331.242 311.471 336.171 302.957C336.336 302.693 336.447 302.495 336.573 302.244C342.407 292.14 347.71 282.076 352.751 272.058ZM459.925 278.302C458.231 278.261 456.518 278.856 455.189 280.116C452.532 282.637 452.472 286.894 454.93 289.548C456.258 290.874 457.989 291.53 459.782 291.53C461.443 291.53 463.1 290.936 464.362 289.742C467.019 287.221 467.08 282.977 464.556 280.323C463.294 279.03 461.619 278.344 459.925 278.302ZM66.14 289.185C64.4711 289.508 62.9273 290.471 61.8977 291.996C59.8385 295.048 60.6974 299.164 63.7529 301.221C64.8821 301.95 66.1494 302.348 67.4114 302.348C69.6034 302.348 71.6631 301.279 72.9252 299.355C74.9843 296.304 74.1903 292.198 71.1348 290.208C69.6071 289.18 67.8089 288.862 66.14 289.185ZM437.52 293.94C436.657 294.045 435.8 294.317 435.003 294.782C431.881 296.573 430.756 300.681 432.616 303.799C433.811 305.988 436.065 307.115 438.324 307.115C439.453 307.115 440.649 306.857 441.645 306.26C444.833 304.403 445.957 300.348 444.097 297.23C442.752 294.842 440.107 293.622 437.52 293.94ZM218.695 343.352C231.109 344.189 243.765 344.751 256.786 344.751C269.543 344.751 281.959 344.222 294.136 343.417C281.768 360.585 269.072 376.072 256.409 389.578C243.756 376.06 231.053 360.521 218.695 343.352ZM123.742 369.069C120.089 368.671 116.759 371.328 116.36 374.977C116.028 378.625 118.623 381.873 122.276 382.271C122.542 382.271 122.737 382.335 123.003 382.335C126.324 382.335 129.248 379.825 129.58 376.376C129.979 372.728 127.396 369.467 123.742 369.069ZM390.426 378.889C386.772 379.088 383.986 382.211 384.185 385.859C384.385 389.375 387.307 392.091 390.828 392.091H391.23C394.883 391.892 397.67 388.771 397.47 385.056C397.271 381.408 394.079 378.624 390.426 378.889ZM121.744 395.537C118.025 395.736 115.24 398.859 115.439 402.507C115.572 406.023 118.561 408.804 122.082 408.804H122.406C126.059 408.605 128.859 405.495 128.659 401.846C128.526 398.198 125.398 395.338 121.744 395.537ZM391.035 405.357C387.382 404.893 383.989 407.476 383.524 411.058C383.059 414.706 385.579 418.028 389.232 418.559C389.498 418.559 389.836 418.624 390.101 418.624C393.356 418.624 396.28 416.175 396.679 412.859C397.21 409.21 394.622 405.888 391.035 405.357ZM127.141 421.552C126.282 421.506 125.397 421.625 124.534 421.941C121.08 423.134 119.29 426.977 120.486 430.426C121.482 433.146 124.003 434.805 126.726 434.805C127.457 434.805 128.253 434.682 128.984 434.417C132.438 433.223 134.229 429.366 132.967 425.983C132.07 423.346 129.72 421.689 127.141 421.552ZM216.814 428.043C215.137 427.744 213.347 428.077 211.819 429.105C208.83 431.228 208.1 435.344 210.159 438.329C211.487 440.187 213.549 441.18 215.608 441.18C216.936 441.18 218.265 440.848 219.461 440.052C222.45 437.93 223.181 433.815 221.121 430.763C220.059 429.271 218.491 428.341 216.814 428.043ZM383.083 430.569C380.511 430.233 377.874 431.433 376.479 433.821C374.686 437.005 375.756 441.045 378.944 442.903C380.007 443.5 381.136 443.771 382.265 443.771C384.59 443.771 386.777 442.577 388.039 440.454C389.832 437.27 388.775 433.215 385.587 431.424C384.79 430.96 383.94 430.681 383.083 430.569ZM312.403 437.124C309.834 436.854 307.222 438.131 305.877 440.519C304.15 443.703 305.271 447.745 308.459 449.536C309.522 450.067 310.586 450.326 311.715 450.326C314.04 450.326 316.306 449.134 317.502 446.945C319.295 443.761 318.162 439.719 314.907 437.928C314.11 437.48 313.259 437.215 312.403 437.124ZM192.463 441.244C191.598 441.27 190.725 441.459 189.894 441.84C186.573 443.366 185.11 447.346 186.638 450.663C187.767 453.117 190.159 454.511 192.684 454.511C193.614 454.511 194.543 454.313 195.473 453.915C198.794 452.389 200.257 448.409 198.729 445.092C197.583 442.605 195.057 441.167 192.463 441.244ZM140.764 442.864C139.086 443.179 137.525 444.131 136.495 445.623C134.436 448.608 135.165 452.791 138.221 454.848C139.35 455.644 140.682 456.04 141.944 456.04C144.07 456.04 146.116 455.035 147.445 453.112C149.504 450.127 148.709 446.023 145.719 443.9C144.225 442.872 142.441 442.549 140.764 442.864ZM362.974 447.217C362.112 447.149 361.22 447.242 360.34 447.541C356.886 448.668 354.956 452.381 356.085 455.897C357.015 458.683 359.613 460.483 362.403 460.483C363.067 460.483 363.801 460.345 364.466 460.146C367.986 459.019 369.837 455.239 368.708 451.79C367.861 449.153 365.558 447.419 362.974 447.217ZM335.172 447.243C332.609 447.659 330.435 449.555 329.788 452.192C328.858 455.774 331.054 459.347 334.575 460.276V460.211C335.106 460.41 335.704 460.483 336.235 460.483C339.158 460.483 341.873 458.429 342.67 455.444C343.534 451.862 341.405 448.275 337.818 447.346C336.921 447.131 336.026 447.104 335.172 447.243ZM166.711 448.668C163.057 449 160.333 452.184 160.665 455.832C160.997 459.282 163.92 461.87 167.307 461.87H167.904C171.558 461.538 174.284 458.289 173.885 454.64C173.619 450.992 170.364 448.336 166.711 448.668Z" stroke="url(#paint4_linear_20_12)" stroke-width="8" mask="url(#path-2-outside-1_20_12)"/>
<path d="M294.693 310.395C295.992 309.611 296.288 307.87 295.359 306.67L287.445 295.734C279.178 283.225 261.789 257.744 249.482 239.082C237.174 220.42 226.887 204.928 226.609 204.631C225.627 203.556 224.996 203.408 221.215 203.408C218.008 203.408 217.712 203.445 216.952 203.816C216.507 204.057 215.877 204.557 215.58 204.946L215.006 205.669L214.913 280L215.302 280.834C215.58 281.372 215.988 281.835 216.544 282.187L217.397 282.725H220.603C223.402 282.725 223.921 282.669 224.514 282.372C225.293 281.965 225.664 281.594 226.146 280.686C226.479 280.056 226.498 278.981 226.553 252.277C226.59 237.025 226.665 224.534 226.739 224.553C226.813 224.553 235.413 237.192 245.867 252.647L264.866 280.76L279.469 301.238C287.81 312.505 287.715 312.44 287.863 312.552C287.909 312.589 290.874 312.58 290.926 312.552C292.199 311.861 293.455 311.141 294.693 310.395Z" stroke="url(#paint5_linear_20_12)" stroke-width="8" mask="url(#path-2-outside-1_20_12)"/>
<path d="M284.977 203.371C284.718 202.482 283.995 201.629 283.105 201.184C282.493 200.851 282.011 200.814 279.268 200.814C276.358 200.814 276.08 200.851 275.32 201.24C274.43 201.722 273.782 202.537 273.485 203.575C273.374 204.001 273.3 212.804 273.3 228.463V251.851C273.3 252.395 273.458 252.927 273.756 253.382L279.194 261.691L279.949 262.849C281.467 265.175 285.081 264.104 285.085 261.326L285.125 237.377C285.162 214.157 285.125 203.853 284.977 203.371Z" stroke="url(#paint6_linear_20_12)" stroke-width="8" mask="url(#path-2-outside-1_20_12)"/>
<defs>
<linearGradient id="paint0_linear_20_12" x1="0" y1="0" x2="512" y2="512" gradientUnits="userSpaceOnUse">
<stop stop-color="#21D4FD"/>
<stop offset="1" stop-color="#B721FF"/>
</linearGradient>
<linearGradient id="paint1_linear_20_12" x1="31" y1="51" x2="440.175" y2="499.144" gradientUnits="userSpaceOnUse">
<stop stop-color="#CAF4FD"/>
<stop offset="1" stop-color="#EECCFF"/>
</linearGradient>
<linearGradient id="paint2_linear_20_12" x1="31" y1="51" x2="440.175" y2="499.144" gradientUnits="userSpaceOnUse">
<stop stop-color="#CAF4FD"/>
<stop offset="1" stop-color="#EECCFF"/>
</linearGradient>
<linearGradient id="paint3_linear_20_12" x1="31" y1="51" x2="440.175" y2="499.144" gradientUnits="userSpaceOnUse">
<stop stop-color="#CAF4FD"/>
<stop offset="1" stop-color="#EECCFF"/>
</linearGradient>
<linearGradient id="paint4_linear_20_12" x1="31" y1="51" x2="440.175" y2="499.144" gradientUnits="userSpaceOnUse">
<stop stop-color="#CAF4FD"/>
<stop offset="1" stop-color="#EECCFF"/>
</linearGradient>
<linearGradient id="paint5_linear_20_12" x1="31" y1="51" x2="440.175" y2="499.144" gradientUnits="userSpaceOnUse">
<stop stop-color="#CAF4FD"/>
<stop offset="1" stop-color="#EECCFF"/>
</linearGradient>
<linearGradient id="paint6_linear_20_12" x1="31" y1="51" x2="440.175" y2="499.144" gradientUnits="userSpaceOnUse">
<stop stop-color="#CAF4FD"/>
<stop offset="1" stop-color="#EECCFF"/>
</linearGradient>
</defs>
</svg>
