<?xml version="1.0" encoding="UTF-8"?><svg id="a" xmlns="http://www.w3.org/2000/svg" xmlns:xlink="http://www.w3.org/1999/xlink" viewBox="0 0 512 512"><defs><style>.u{fill:url(#t);}.v,.w{fill:#fff;}.x{fill:#020230;opacity:.6;}.y{fill:url(#r);}.a`,.w,.aa{opacity:.5;}.ab{fill:url(#l);}.ac{fill:url(#e);}.ac,.ad{opacity:0;}.ae,.af{opacity:.4;}.ae,.ag,.aa{fill:#06033e;}.ah{fill:#f8359e;}.ai{fill:url(#m);}.aj{fill:url(#f);}.ak{fill:#0c0a78;}.al{fill:url(#p);}.am{fill:url(#g);}.an{fill:url(#b);}.ao{fill:url(#i);}.ap{fill:url(#h);}.aq{fill:url(#d);}.ar{fill:#e8975b;}.as{fill:url(#s);}.at{fill:url(#n);}.au{fill:url(#j);}.av{fill:url(#o);}.aw{fill:url(#q);}.ax{fill:url(#k);}.ad{fill:url(#c);}</style><radialGradient id="b" cx="127.4" cy="166.24" fx="127.4" fy="166.24" r="733.48" gradientTransform="translate(-61.56 -322) scale(.93 1.24)" gradientUnits="userSpaceOnUse"><stop offset="0" stop-color="#164a99"/><stop offset=".13" stop-color="#2b3993"/><stop offset=".32" stop-color="#43278e"/><stop offset=".51" stop-color="#531a8a"/><stop offset=".73" stop-color="#5d1387"/><stop offset="1" stop-color="#611187"/></radialGradient><linearGradient id="c" x1="467.28" y1="377.11" x2="504.2" y2="377.11" gradientTransform="matrix(1, 0, 0, 1, 0, 0)" gradientUnits="userSpaceOnUse"><stop offset="0" stop-color="#e39a65"/><stop offset="1" stop-color="#e95f8d"/></linearGradient><linearGradient id="d" x1="416.73" y1="326.51" x2="478.75" y2="326.51" xlink:href="#c"/><linearGradient id="e" x1="7.8" y1="347.29" x2="69.81" y2="347.29" xlink:href="#c"/><linearGradient id="f" x1="80" y1="343.31" x2="410.97" y2="343.31" xlink:href="#c"/><radialGradient id="g" cx="262.81" cy="98.26" fx="262.81" fy="98.26" r="252.79" gradientTransform="matrix(1, 0, 0, 1, 0, 0)" gradientUnits="userSpaceOnUse"><stop offset="0" stop-color="#e39a65"/><stop offset=".47" stop-color="#a92ffb"/><stop offset=".59" stop-color="#881bfa"/><stop offset=".74" stop-color="#6507fa"/><stop offset=".8" stop-color="#0d0c6f"/></radialGradient><radialGradient id="h" cx="108.2" cy="301.27" fx="108.2" fy="301.27" r="276.42" gradientTransform="matrix(1, 0, 0, 1, 0, 0)" gradientUnits="userSpaceOnUse"><stop offset="0" stop-color="#e39a65"/><stop offset=".47" stop-color="#a92ffb"/><stop offset=".57" stop-color="#881bfa"/><stop offset=".68" stop-color="#6507fa"/><stop offset=".74" stop-color="#0d0c6f"/></radialGradient><radialGradient id="i" cx="133.62" cy="245.79" fx="133.62" fy="245.79" r="247.88" gradientTransform="matrix(1, 0, 0, 1, 0, 0)" gradientUnits="userSpaceOnUse"><stop offset="0" stop-color="#e39a65"/><stop offset=".47" stop-color="#a92ffb"/><stop offset=".59" stop-color="#881bfa"/><stop offset=".73" stop-color="#6507fa"/><stop offset="1" stop-color="#3919bb"/></radialGradient><radialGradient id="j" cx="195.38" cy="150.99" fx="195.38" fy="150.99" r="252.84" xlink:href="#i"/><linearGradient id="k" x1="223.17" y1="217.36" x2="425.77" y2="217.36" gradientTransform="matrix(1, 0, 0, 1, 0, 0)" gradientUnits="userSpaceOnUse"><stop offset="0" stop-color="#3919bb"/><stop offset="1" stop-color="#6507fa"/></linearGradient><radialGradient id="l" cx="103.08" cy="97" fx="103.08" fy="97" r="393.79" xlink:href="#i"/><linearGradient id="m" x1="85.03" y1="245.08" x2="171.95" y2="245.08" xlink:href="#c"/><radialGradient id="n" cx="92.74" cy="174.18" fx="92.74" fy="174.18" r="187.19" gradientTransform="matrix(1, 0, 0, 1, 0, 0)" gradientUnits="userSpaceOnUse"><stop offset="0" stop-color="#e39a65"/><stop offset=".15" stop-color="#a92ffb"/><stop offset=".41" stop-color="#3919bb"/><stop offset=".93" stop-color="#3919bb"/></radialGradient><linearGradient id="o" x1="96.05" y1="150.99" x2="163.2" y2="150.99" gradientTransform="matrix(1, 0, 0, 1, 0, 0)" gradientUnits="userSpaceOnUse"><stop offset="0" stop-color="#e39a65"/><stop offset=".25" stop-color="#a92ffb"/><stop offset=".56" stop-color="#3919bb"/></linearGradient><linearGradient id="p" x1="102.35" y1="147.58" x2="156.9" y2="147.58" gradientTransform="matrix(1, 0, 0, 1, 0, 0)" gradientUnits="userSpaceOnUse"><stop offset="0" stop-color="#4f1fec"/><stop offset="1" stop-color="#a92ffb"/></linearGradient><linearGradient id="q" x1="101.05" x2="155.6" xlink:href="#p"/><linearGradient id="r" x1="102.35" y1="140.39" x2="171.13" y2="140.39" gradientTransform="matrix(1, 0, 0, 1, 0, 0)" gradientUnits="userSpaceOnUse"><stop offset="0" stop-color="#131060"/><stop offset=".19" stop-color="#140f62"/><stop offset=".28" stop-color="#190f6a"/><stop offset=".36" stop-color="#220f77"/><stop offset=".42" stop-color="#2e0f8a"/><stop offset=".48" stop-color="#3d0ea3"/><stop offset=".54" stop-color="#510ec1"/><stop offset=".58" stop-color="#670de5"/><stop offset=".61" stop-color="#740df8"/><stop offset=".62" stop-color="#7a14ef"/><stop offset=".68" stop-color="#9b3bc2"/><stop offset=".75" stop-color="#b75c9d"/><stop offset=".81" stop-color="#cc7680"/><stop offset=".88" stop-color="#db886b"/><stop offset=".94" stop-color="#e4935f"/><stop offset="1" stop-color="#e8975b"/></linearGradient><radialGradient id="s" cx="87.67" cy="131.99" fx="87.67" fy="131.99" r="122.45" gradientTransform="matrix(1, 0, 0, 1, 0, 0)" gradientUnits="userSpaceOnUse"><stop offset="0" stop-color="#e39a65"/><stop offset=".25" stop-color="#a92ffb"/><stop offset=".74" stop-color="#3919bb"/></radialGradient><linearGradient id="t" x1="125.31" y1="162.59" x2="134.82" y2="162.59" xlink:href="#r"/></defs><rect class="an" width="512" height="512"/><g><path class="ad" d="M485.74,387.96c-1.36,0-2.73-.35-3.94-1.05l-13.29-7.67c-.77-.44-1.23-1.24-1.23-2.13s.46-1.69,1.23-2.13l13.29-7.67c2.43-1.4,5.45-1.4,7.88,0l13.29,7.67c.77,.44,1.23,1.24,1.23,2.13s-.46,1.69-1.23,2.13l-13.29,7.67c-1.21,.7-2.58,1.05-3.94,1.05Zm0-19.6c-1,0-2,.26-2.89,.77l-13.29,7.67c-.15,.09-.18,.23-.18,.31s.02,.22,.18,.31l13.29,7.67h0c1.78,1.03,3.99,1.03,5.78,0l13.29-7.67c.15-.09,.18-.23,.18-.31s-.02-.22-.18-.31l-13.29-7.67c-.89-.51-1.89-.77-2.89-.77Z"/><path class="aq" d="M447.74,344.43c-2.21,0-4.43-.57-6.4-1.71l-22.87-13.2c-1.09-.63-1.74-1.75-1.74-3.01s.65-2.38,1.74-3.01l22.87-13.2c3.95-2.28,8.86-2.28,12.8,0l22.87,13.2c1.09,.63,1.74,1.75,1.74,3.01s-.65,2.38-1.74,3.01l-22.87,13.2c-1.97,1.14-4.19,1.71-6.4,1.71Zm-5.35-3.53c3.3,1.9,7.4,1.9,10.7,0l22.87-13.2c.62-.36,.68-.95,.68-1.19s-.07-.83-.68-1.19l-22.87-13.2c-3.3-1.9-7.4-1.9-10.7,0l-22.87,13.2c-.62,.36-.68,.95-.68,1.19s.07,.83,.68,1.19l22.87,13.2Z"/><path class="ac" d="M38.81,365.21c-2.21,0-4.43-.57-6.4-1.71l-22.87-13.2c-1.09-.63-1.74-1.75-1.74-3.01s.65-2.38,1.74-3.01l22.87-13.2c3.95-2.28,8.86-2.28,12.8,0l22.87,13.2c1.09,.63,1.74,1.75,1.74,3.01s-.65,2.38-1.74,3.01l-22.87,13.2c-1.97,1.14-4.19,1.71-6.4,1.71Zm0-33.74c-1.85,0-3.7,.48-5.35,1.43l-22.87,13.2c-.62,.36-.68,.95-.68,1.19s.07,.83,.68,1.19l22.87,13.2h0c3.3,1.9,7.4,1.9,10.7,0l22.87-13.2c.62-.36,.68-.95,.68-1.19s-.07-.83-.68-1.19l-22.87-13.2c-1.65-.95-3.5-1.43-5.35-1.43Z"/><g><path class="x" d="M270.37,422.8l-163.51-94.4c-2.38-1.38-2.08-3.78,.67-5.37l104.94-60.59c2.75-1.59,6.91-1.76,9.3-.39l163.51,94.4c2.38,1.38,2.08,3.78-.67,5.37l-104.94,60.59c-2.75,1.59-6.91,1.76-9.3,.39Z"/><path class="aj" d="M274.12,439.84c-1.91,0-3.74-.4-5.15-1.21h0l-186.61-107.74c-1.52-.88-2.36-2.15-2.36-3.57,0-1.64,1.14-3.23,3.12-4.38l127.21-74.53c3.49-2.02,8.61-2.21,11.67-.44l186.61,107.74c1.52,.88,2.36,2.15,2.36,3.57,0,1.64-1.14,3.23-3.13,4.38l-127.21,74.53c-1.89,1.09-4.26,1.65-6.53,1.65Zm-57.24-190.96c-1.91,0-3.94,.46-5.49,1.35l-127.21,74.53c-1.3,.75-2.08,1.71-2.08,2.56s.71,1.4,1.31,1.75l186.61,107.74h0c2.38,1.38,6.76,1.18,9.56-.44l127.21-74.53c1.3-.75,2.08-1.71,2.08-2.56s-.71-1.4-1.31-1.75l-186.61-107.74c-1.06-.61-2.53-.91-4.07-.91Z"/><path class="am" d="M428.71,198.2l-162.86-94.03c-1.12-.65-2.29-.78-3.32-.48h-.02l-3.02,1.06,1.06,.25c-.43,.5-.77,1.13-.99,1.86l-36.83,119.58c-.91,2.97,.42,6.57,2.99,8.05l162.86,94.03c.4,.23,.8,.39,1.2,.49l-.4,.88,2.88-1.01h0c1.18-.47,2.15-1.53,2.62-3.05l36.83-119.58c.91-2.97-.42-6.57-2.99-8.05Z"/><path class="ap" d="M382.75,332.98l.06,.07-160.87-92.88c-2.37-1.37-6.5-1.19-9.23,.38l-103.94,60.01-3.47-1.32,.97,4.86h0c.13,.73,.64,1.41,1.56,1.94l162.35,93.74c2.37,1.37,6.5,1.19,9.23-.38l104.2-60.16c1.29-.74,2.02-1.66,2.21-2.57h0l.99-4.73-4.09,1.04Z"/><path class="ao" d="M270.37,395.51l-163.51-94.4c-2.38-1.38-2.08-3.78,.67-5.37l104.94-60.59c2.75-1.59,6.91-1.76,9.3-.39l163.51,94.4c2.38,1.38,2.08,3.78-.67,5.37l-104.94,60.59c-2.75,1.59-6.91,1.76-9.3,.39Z"/><path class="v" d="M384.61,333.26l-104.94,60.59c-2.75,1.59-6.91,1.76-9.3,.39l-163.51-94.4c-.81-.47-1.29-1.06-1.49-1.7-.32,1.1,.15,2.2,1.49,2.97l163.51,94.4c2.38,1.38,6.55,1.2,9.3-.39l104.94-60.59c1.81-1.05,2.54-2.44,2.15-3.67-.25,.85-.95,1.7-2.15,2.4Z"/><g class="af"><path class="ag" d="M184.85,285.79l-5.52-3.19c-.44-.26-.39-.7,.12-1l6.52-3.76c.51-.3,1.29-.33,1.73-.07l5.52,3.19c.44,.26,.39,.7-.12,1l-6.52,3.76c-.51,.3-1.29,.33-1.73,.07Z"/><path class="ag" d="M193.38,290.71l-5.52-3.19c-.44-.26-.39-.7,.12-1l6.52-3.76c.51-.3,1.29-.33,1.73-.07l5.52,3.19c.44,.26,.39,.7-.12,1l-6.52,3.76c-.51,.3-1.29,.33-1.73,.07Z"/><path class="ag" d="M201.9,295.63l-5.52-3.19c-.44-.26-.39-.7,.12-1l6.52-3.76c.51-.3,1.29-.33,1.73-.07l5.52,3.19c.44,.26,.39,.7-.12,1l-6.52,3.76c-.51,.3-1.29,.33-1.73,.07Z"/><path class="ag" d="M213.69,291.56l-5.52-3.19c-.44-.26-.39-.7,.12-1l5.47-3.16c.51-.3,1.29-.33,1.73-.07l5.52,3.19c.44,.26,.39,.7-.12,1l-5.47,3.16c-.51,.3-1.29,.33-1.73,.07Z"/><path class="ag" d="M222.22,296.49l-5.52-3.19c-.44-.26-.39-.7,.12-1l5.47-3.16c.51-.3,1.29-.33,1.73-.07l5.52,3.19c.44,.26,.39,.7-.12,1l-5.47,3.16c-.51,.3-1.29,.33-1.73,.07Z"/><path class="ag" d="M230.74,301.41l-5.52-3.19c-.44-.26-.39-.7,.12-1l5.47-3.16c.51-.3,1.29-.33,1.73-.07l5.52,3.19c.44,.26,.39,.7-.12,1l-5.47,3.16c-.51,.3-1.29,.33-1.73,.07Z"/><path class="ag" d="M239.27,306.33l-5.52-3.19c-.44-.26-.39-.7,.12-1l5.47-3.16c.51-.3,1.29-.33,1.73-.07l5.52,3.19c.44,.26,.39,.7-.12,1l-5.47,3.16c-.51,.3-1.29,.33-1.73,.07Z"/><path class="ag" d="M247.79,311.25l-5.52-3.19c-.44-.26-.39-.7,.12-1l5.47-3.16c.51-.3,1.29-.33,1.73-.07l5.52,3.19c.44,.26,.39,.7-.12,1l-5.47,3.16c-.51,.3-1.29,.33-1.73,.07Z"/><path class="ag" d="M256.32,316.17l-5.52-3.19c-.44-.26-.39-.7,.12-1l5.47-3.16c.51-.3,1.29-.33,1.73-.07l5.52,3.19c.44,.26,.39,.7-.12,1l-5.47,3.16c-.51,.3-1.29,.33-1.73,.07Z"/><path class="ag" d="M264.84,321.1l-5.52-3.19c-.44-.26-.39-.7,.12-1l5.47-3.16c.51-.3,1.29-.33,1.73-.07l5.52,3.19c.44,.26,.39,.7-.12,1l-5.47,3.16c-.51,.3-1.29,.33-1.73,.07Z"/><path class="ag" d="M273.37,326.02l-5.52-3.19c-.44-.26-.39-.7,.12-1l5.47-3.16c.51-.3,1.29-.33,1.73-.07l5.52,3.19c.44,.26,.39,.7-.12,1l-5.47,3.16c-.51,.3-1.29,.33-1.73,.07Z"/><path class="ag" d="M281.89,330.94l-5.52-3.19c-.44-.26-.39-.7,.12-1l5.47-3.16c.51-.3,1.29-.33,1.73-.07l5.52,3.19c.44,.26,.39,.7-.12,1l-5.47,3.16c-.51,.3-1.29,.33-1.73,.07Z"/><path class="ag" d="M290.42,335.86l-5.52-3.19c-.44-.26-.39-.7,.12-1l5.47-3.16c.51-.3,1.29-.33,1.73-.07l5.52,3.19c.44,.26,.39,.7-.12,1l-5.47,3.16c-.51,.3-1.29,.33-1.73,.07Z"/><path class="ag" d="M226.25,289.23l-5.52-3.19c-.44-.26-.39-.7,.12-1l5.47-3.16c.51-.3,1.29-.33,1.73-.07l5.52,3.19c.44,.26,.39,.7-.12,1l-5.47,3.16c-.51,.3-1.29,.33-1.73,.07Z"/><path class="ag" d="M217.6,284.24l-5.52-3.19c-.44-.26-.39-.7,.12-1l5.47-3.16c.51-.3,1.29-.33,1.73-.07l5.52,3.19c.44,.26,.39,.7-.12,1l-5.47,3.16c-.51,.3-1.29,.33-1.73,.07Z"/><path class="ag" d="M208.94,279.24l-11.89-6.86c-.44-.26-.39-.7,.12-1l5.47-3.16c.51-.3,1.29-.33,1.73-.07l11.89,6.86c.44,.26,.39,.7-.12,1l-5.47,3.16c-.51,.3-1.29,.33-1.73,.07Z"/><path class="ag" d="M214.99,273.15l-9.65-5.57c-.44-.26-.39-.7,.12-1l5.47-3.16c.51-.3,1.29-.33,1.73-.07l9.65,5.57c.44,.26,.39,.7-.12,1l-5.47,3.16c-.51,.3-1.29,.33-1.73,.07Z"/><path class="ag" d="M234.78,294.16l-5.52-3.19c-.44-.26-.39-.7,.12-1l5.47-3.16c.51-.3,1.29-.33,1.73-.07l5.52,3.19c.44,.26,.39,.7-.12,1l-5.47,3.16c-.51,.3-1.29,.33-1.73,.07Z"/><path class="ag" d="M243.3,299.08l-5.52-3.19c-.44-.26-.39-.7,.12-1l5.47-3.16c.51-.3,1.29-.33,1.73-.07l5.52,3.19c.44,.26,.39,.7-.12,1l-5.47,3.16c-.51,.3-1.29,.33-1.73,.07Z"/><path class="ag" d="M251.83,304l-5.52-3.19c-.44-.26-.39-.7,.12-1l5.47-3.16c.51-.3,1.29-.33,1.73-.07l5.52,3.19c.44,.26,.39,.7-.12,1l-5.47,3.16c-.51,.3-1.29,.33-1.73,.07Z"/><path class="ag" d="M260.35,308.92l-5.52-3.19c-.44-.26-.39-.7,.12-1l5.47-3.16c.51-.3,1.29-.33,1.73-.07l5.52,3.19c.44,.26,.39,.7-.12,1l-5.47,3.16c-.51,.3-1.29,.33-1.73,.07Z"/><path class="ag" d="M268.88,313.84l-5.52-3.19c-.44-.26-.39-.7,.12-1l5.47-3.16c.51-.3,1.29-.33,1.73-.07l5.52,3.19c.44,.26,.39,.7-.12,1l-5.47,3.16c-.51,.3-1.29,.33-1.73,.07Z"/><path class="ag" d="M277.4,318.77l-5.52-3.19c-.44-.26-.39-.7,.12-1l5.47-3.16c.51-.3,1.29-.33,1.73-.07l5.52,3.19c.44,.26,.39,.7-.12,1l-5.47,3.16c-.51,.3-1.29,.33-1.73,.07Z"/><path class="ag" d="M285.93,323.69l-5.52-3.19c-.44-.26-.39-.7,.12-1l5.47-3.16c.51-.3,1.29-.33,1.73-.07l5.52,3.19c.44,.26,.39,.7-.12,1l-5.47,3.16c-.51,.3-1.29,.33-1.73,.07Z"/><path class="ag" d="M294.45,328.61l-5.52-3.19c-.44-.26-.39-.7,.12-1l5.47-3.16c.51-.3,1.29-.33,1.73-.07l5.52,3.19c.44,.26,.39,.7-.12,1l-5.47,3.16c-.51,.3-1.29,.33-1.73,.07Z"/><path class="ag" d="M302.98,333.53l-5.52-3.19c-.44-.26-.39-.7,.12-1l5.47-3.16c.51-.3,1.29-.33,1.73-.07l5.52,3.19c.44,.26,.39,.7-.12,1l-5.47,3.16c-.51,.3-1.29,.33-1.73,.07Z"/><path class="ag" d="M318.13,342.28l-12.04-6.95c-.44-.26-.39-.7,.12-1l5.47-3.16c.51-.3,1.29-.33,1.73-.07l12.04,6.95c.44,.26,.39,.7-.12,1l-5.47,3.16c-.51,.3-1.29,.33-1.73,.07Z"/><path class="ag" d="M334.73,332.7l-10.17-5.87c-.44-.26-.39-.7,.12-1l5.47-3.16c.51-.3,1.29-.33,1.73-.07l10.17,5.87c.44,.26,.39,.7-.12,1l-5.47,3.16c-.51,.3-1.29,.33-1.73,.07Z"/><path class="ag" d="M249.71,293.19l-5.52-3.19c-.44-.26-.39-.7,.12-1l5.47-3.16c.51-.3,1.29-.33,1.73-.07l5.52,3.19c.44,.26,.39,.7-.12,1l-5.47,3.16c-.51,.3-1.29,.33-1.73,.07Z"/><path class="ag" d="M240.97,288.15l-5.52-3.19c-.44-.26-.39-.7,.12-1l5.47-3.16c.51-.3,1.29-.33,1.73-.07l5.52,3.19c.44,.26,.39,.7-.12,1l-5.47,3.16c-.51,.3-1.29,.33-1.73,.07Z"/><path class="ag" d="M232.23,283.1l-5.52-3.19c-.44-.26-.39-.7,.12-1l5.47-3.16c.51-.3,1.29-.33,1.73-.07l5.52,3.19c.44,.26,.39,.7-.12,1l-5.47,3.16c-.51,.3-1.29,.33-1.73,.07Z"/><path class="ag" d="M223.5,278.06l-5.52-3.19c-.44-.26-.39-.7,.12-1l5.47-3.16c.51-.3,1.29-.33,1.73-.07l5.52,3.19c.44,.26,.39,.7-.12,1l-5.47,3.16c-.51,.3-1.29,.33-1.73,.07Z"/><path class="ag" d="M258.23,298.11l-5.52-3.19c-.44-.26-.39-.7,.12-1l5.47-3.16c.51-.3,1.29-.33,1.73-.07l5.52,3.19c.44,.26,.39,.7-.12,1l-5.47,3.16c-.51,.3-1.29,.33-1.73,.07Z"/><path class="ag" d="M266.76,303.04l-5.52-3.19c-.44-.26-.39-.7,.12-1l5.47-3.16c.51-.3,1.29-.33,1.73-.07l5.52,3.19c.44,.26,.39,.7-.12,1l-5.47,3.16c-.51,.3-1.29,.33-1.73,.07Z"/><path class="ag" d="M275.28,307.96l-5.52-3.19c-.44-.26-.39-.7,.12-1l5.47-3.16c.51-.3,1.29-.33,1.73-.07l5.52,3.19c.44,.26,.39,.7-.12,1l-5.47,3.16c-.51,.3-1.29,.33-1.73,.07Z"/><path class="ag" d="M283.81,312.88l-5.52-3.19c-.44-.26-.39-.7,.12-1l5.47-3.16c.51-.3,1.29-.33,1.73-.07l5.52,3.19c.44,.26,.39,.7-.12,1l-5.47,3.16c-.51,.3-1.29,.33-1.73,.07Z"/><path class="ag" d="M292.33,317.8l-5.52-3.19c-.44-.26-.39-.7,.12-1l5.47-3.16c.51-.3,1.29-.33,1.73-.07l5.52,3.19c.44,.26,.39,.7-.12,1l-5.47,3.16c-.51,.3-1.29,.33-1.73,.07Z"/><path class="ag" d="M300.86,322.72l-5.52-3.19c-.44-.26-.39-.7,.12-1l5.47-3.16c.51-.3,1.29-.33,1.73-.07l5.52,3.19c.44,.26,.39,.7-.12,1l-5.47,3.16c-.51,.3-1.29,.33-1.73,.07Z"/><path class="ag" d="M309.38,327.65l-5.52-3.19c-.44-.26-.39-.7,.12-1l5.47-3.16c.51-.3,1.29-.33,1.73-.07l5.52,3.19c.44,.26,.39,.7-.12,1l-5.47,3.16c-.51,.3-1.29,.33-1.73,.07Z"/><path class="ag" d="M317.91,332.57l-5.52-3.19c-.44-.26-.39-.7,.12-1l5.47-3.16c.51-.3,1.29-.33,1.73-.07l5.52,3.19c.44,.26,.39,.7-.12,1l-5.47,3.16c-.51,.3-1.29,.33-1.73,.07Z"/><path class="ag" d="M326.43,337.49l-5.52-3.19c-.44-.26-.39-.7,.12-1l5.47-3.16c.51-.3,1.29-.33,1.73-.07l5.52,3.19c.44,.26,.39,.7-.12,1l-5.47,3.16c-.51,.3-1.29,.33-1.73,.07Z"/><path class="ag" d="M245.22,281.02l-5.52-3.19c-.44-.26-.39-.7,.12-1l5.47-3.16c.51-.3,1.29-.33,1.73-.07l5.52,3.19c.44,.26,.39,.7-.12,1l-5.47,3.16c-.51,.3-1.29,.33-1.73,.07Z"/><path class="ag" d="M236.74,276.12l-5.52-3.19c-.44-.26-.39-.7,.12-1l5.47-3.16c.51-.3,1.29-.33,1.73-.07l5.52,3.19c.44,.26,.39,.7-.12,1l-5.47,3.16c-.51,.3-1.29,.33-1.73,.07Z"/><path class="ag" d="M228.25,271.22l-5.52-3.19c-.44-.26-.39-.7,.12-1l5.47-3.16c.51-.3,1.29-.33,1.73-.07l5.52,3.19c.44,.26,.39,.7-.12,1l-5.47,3.16c-.51,.3-1.29,.33-1.73,.07Z"/><path class="ag" d="M219.77,266.33l-5.52-3.19c-.44-.26-.39-.7,.12-1l5.47-3.16c.51-.3,1.29-.33,1.73-.07l5.52,3.19c.44,.26,.39,.7-.12,1l-5.47,3.16c-.51,.3-1.29,.33-1.73,.07Z"/><path class="ag" d="M228.49,261.29l-5.52-3.19c-.44-.26-.39-.7,.12-1l1.81-1.04c.51-.3,1.29-.33,1.73-.07l5.52,3.19c.44,.26,.39,.7-.12,1l-1.81,1.04c-.51,.3-1.29,.33-1.73,.07Z"/><path class="ag" d="M239.56,267.68l-5.52-3.19c-.44-.26-.39-.7,.12-1l1.81-1.04c.51-.3,1.29-.33,1.73-.07l5.52,3.19c.44,.26,.39,.7-.12,1l-1.81,1.04c-.51,.3-1.29,.33-1.73,.07Z"/><path class="ag" d="M248.01,272.56l-5.52-3.19c-.44-.26-.39-.7,.12-1l1.81-1.04c.51-.3,1.29-.33,1.73-.07l5.52,3.19c.44,.26,.39,.7-.12,1l-1.81,1.04c-.51,.3-1.29,.33-1.73,.07Z"/><path class="ag" d="M256.46,277.44l-5.52-3.19c-.44-.26-.39-.7,.12-1l1.81-1.04c.51-.3,1.29-.33,1.73-.07l5.52,3.19c.44,.26,.39,.7-.12,1l-1.81,1.04c-.51,.3-1.29,.33-1.73,.07Z"/><path class="ag" d="M264.9,282.31l-5.52-3.19c-.44-.26-.39-.7,.12-1l1.81-1.04c.51-.3,1.29-.33,1.73-.07l5.52,3.19c.44,.26,.39,.7-.12,1l-1.81,1.04c-.51,.3-1.29,.33-1.73,.07Z"/><path class="ag" d="M312.06,309.54l-5.52-3.19c-.44-.26-.39-.7,.12-1l1.81-1.04c.51-.3,1.29-.33,1.73-.07l5.52,3.19c.44,.26,.39,.7-.12,1l-1.81,1.04c-.51,.3-1.29,.33-1.73,.07Z"/><path class="ag" d="M320.51,314.42l-5.52-3.19c-.44-.26-.39-.7,.12-1l1.81-1.04c.51-.3,1.29-.33,1.73-.07l5.52,3.19c.44,.26,.39,.7-.12,1l-1.81,1.04c-.51,.3-1.29,.33-1.73,.07Z"/><path class="ag" d="M328.96,319.29l-5.52-3.19c-.44-.26-.39-.7,.12-1l1.81-1.04c.51-.3,1.29-.33,1.73-.07l5.52,3.19c.44,.26,.39,.7-.12,1l-1.81,1.04c-.51,.3-1.29,.33-1.73,.07Z"/><path class="ag" d="M337.41,324.17l-5.52-3.19c-.44-.26-.39-.7,.12-1l1.81-1.04c.51-.3,1.29-.33,1.73-.07l5.52,3.19c.44,.26,.39,.7-.12,1l-1.81,1.04c-.51,.3-1.29,.33-1.73,.07Z"/><path class="ag" d="M253.74,285.94l-5.52-3.19c-.44-.26-.39-.7,.12-1l5.47-3.16c.51-.3,1.29-.33,1.73-.07l5.52,3.19c.44,.26,.39,.7-.12,1l-5.47,3.16c-.51,.3-1.29,.33-1.73,.07Z"/><path class="ag" d="M262.27,290.86l-5.52-3.19c-.44-.26-.39-.7,.12-1l5.47-3.16c.51-.3,1.29-.33,1.73-.07l5.52,3.19c.44,.26,.39,.7-.12,1l-5.47,3.16c-.51,.3-1.29,.33-1.73,.07Z"/><path class="ag" d="M270.79,295.78l-5.52-3.19c-.44-.26-.39-.7,.12-1l5.47-3.16c.51-.3,1.29-.33,1.73-.07l5.52,3.19c.44,.26,.39,.7-.12,1l-5.47,3.16c-.51,.3-1.29,.33-1.73,.07Z"/><path class="ag" d="M279.32,300.71l-5.52-3.19c-.44-.26-.39-.7,.12-1l5.47-3.16c.51-.3,1.29-.33,1.73-.07l5.52,3.19c.44,.26,.39,.7-.12,1l-5.47,3.16c-.51,.3-1.29,.33-1.73,.07Z"/><path class="ag" d="M287.84,305.63l-5.52-3.19c-.44-.26-.39-.7,.12-1l5.47-3.16c.51-.3,1.29-.33,1.73-.07l5.52,3.19c.44,.26,.39,.7-.12,1l-5.47,3.16c-.51,.3-1.29,.33-1.73,.07Z"/><path class="ag" d="M296.37,310.55l-5.52-3.19c-.44-.26-.39-.7,.12-1l5.47-3.16c.51-.3,1.29-.33,1.73-.07l5.52,3.19c.44,.26,.39,.7-.12,1l-5.47,3.16c-.51,.3-1.29,.33-1.73,.07Z"/><path class="ag" d="M304.89,315.47l-5.52-3.19c-.44-.26-.39-.7,.12-1l5.47-3.16c.51-.3,1.29-.33,1.73-.07l5.52,3.19c.44,.26,.39,.7-.12,1l-5.47,3.16c-.51,.3-1.29,.33-1.73,.07Z"/><path class="ag" d="M313.42,320.39l-5.52-3.19c-.44-.26-.39-.7,.12-1l5.47-3.16c.51-.3,1.29-.33,1.73-.07l5.52,3.19c.44,.26,.39,.7-.12,1l-5.47,3.16c-.51,.3-1.29,.33-1.73,.07Z"/><path class="ag" d="M321.94,325.32l-5.52-3.19c-.44-.26-.39-.7,.12-1l5.47-3.16c.51-.3,1.29-.33,1.73-.07l5.52,3.19c.44,.26,.39,.7-.12,1l-5.47,3.16c-.51,.3-1.29,.33-1.73,.07Z"/><path class="ag" d="M205.01,286.55l-16.26-9.39c-.44-.26-.39-.7,.12-1l5.47-3.16c.51-.3,1.29-.33,1.73-.07l16.26,9.39c.44,.26,.39,.7-.12,1l-5.47,3.16c-.51,.3-1.29,.33-1.73,.07Z"/><path class="ag" d="M309.74,347.02l-16.26-9.39c-.44-.26-.39-.7,.12-1l5.47-3.16c.51-.3,1.29-.33,1.73-.07l16.26,9.39c.44,.26,.39,.7-.12,1l-5.47,3.16c-.51,.3-1.29,.33-1.73,.07Z"/><path class="ag" d="M275.64,338.2l-5.52-3.19c-.44-.26-.39-.7,.12-1l6.52-3.76c.51-.3,1.29-.33,1.73-.07l5.52,3.19c.44,.26,.39,.7-.12,1l-6.52,3.76c-.51,.3-1.29,.33-1.73,.07Z"/><path class="ag" d="M213.74,302.46l-8.83-5.1c-.44-.26-.39-.7,.12-1l6.52-3.76c.51-.3,1.29-.33,1.73-.07l8.83,5.1c.44,.26,.39,.7-.12,1l-6.52,3.76c-.51,.3-1.29,.33-1.73,.07Z"/><path class="ag" d="M267.43,333.46l-8.83-5.1c-.44-.26-.39-.7,.12-1l6.52-3.76c.51-.3,1.29-.33,1.73-.07l8.83,5.1c.44,.26,.39,.7-.12,1l-6.52,3.76c-.51,.3-1.29,.33-1.73,.07Z"/><path class="ag" d="M226.03,309.56l-8.83-5.1c-.44-.26-.39-.7,.12-1l6.52-3.76c.51-.3,1.29-.33,1.73-.07l8.83,5.1c.44,.26,.39,.7-.12,1l-6.52,3.76c-.51,.3-1.29,.33-1.73,.07Z"/><path class="ag" d="M225.64,299.67l38.38,22.16c.48,.27,.48,.72,0,1l-6.64,3.84c-.48,.27-1.25,.27-1.72,0l-38.38-22.16,8.37-4.83Z"/><path class="ag" d="M299.47,347.13l6.15,3.55c.36,.21,.32,.58-.1,.82l-2.67,1.54c-.42,.24-1.05,.27-1.42,.06l-6.15-3.55c-.36-.21-.32-.58,.1-.82l2.67-1.54c.42-.24,1.05-.27,1.42-.06Z"/><path class="ag" d="M290.87,342.16l6.15,3.55c.36,.21,.32,.58-.1,.82l-2.67,1.54c-.42,.24-1.05,.27-1.42,.06l-6.15-3.55c-.36-.21-.32-.58,.1-.82l2.67-1.54c.42-.24,1.05-.27,1.42-.06Z"/><path class="ag" d="M282.35,337.24l6.15,3.55c.36,.21,.32,.58-.1,.82l-2.67,1.54c-.42,.24-1.05,.27-1.42,.06l-6.15-3.55c-.36-.21-.32-.58,.1-.82l2.67-1.54c.42-.24,1.05-.27,1.42-.06Z"/><path class="ag" d="M295.58,339.45l6.15,3.55c.36,.21,.32,.58-.1,.82l-2.67,1.54c-.42,.24-1.05,.27-1.42,.06l-6.15-3.55c-.36-.21-.32-.58,.1-.82l2.67-1.54c.42-.24,1.05-.27,1.42-.06Z"/></g><g class="af"><path class="ag" d="M184.85,285.79l-5.52-3.19c-.44-.26-.39-.7,.12-1l6.52-3.76c.51-.3,1.29-.33,1.73-.07l5.52,3.19c.44,.26,.39,.7-.12,1l-6.52,3.76c-.51,.3-1.29,.33-1.73,.07Z"/><path class="ag" d="M193.38,290.71l-5.52-3.19c-.44-.26-.39-.7,.12-1l6.52-3.76c.51-.3,1.29-.33,1.73-.07l5.52,3.19c.44,.26,.39,.7-.12,1l-6.52,3.76c-.51,.3-1.29,.33-1.73,.07Z"/><path class="ag" d="M201.9,295.63l-5.52-3.19c-.44-.26-.39-.7,.12-1l6.52-3.76c.51-.3,1.29-.33,1.73-.07l5.52,3.19c.44,.26,.39,.7-.12,1l-6.52,3.76c-.51,.3-1.29,.33-1.73,.07Z"/><path class="ag" d="M213.69,291.56l-5.52-3.19c-.44-.26-.39-.7,.12-1l5.47-3.16c.51-.3,1.29-.33,1.73-.07l5.52,3.19c.44,.26,.39,.7-.12,1l-5.47,3.16c-.51,.3-1.29,.33-1.73,.07Z"/><path class="ag" d="M222.22,296.49l-5.52-3.19c-.44-.26-.39-.7,.12-1l5.47-3.16c.51-.3,1.29-.33,1.73-.07l5.52,3.19c.44,.26,.39,.7-.12,1l-5.47,3.16c-.51,.3-1.29,.33-1.73,.07Z"/><path class="ag" d="M230.74,301.41l-5.52-3.19c-.44-.26-.39-.7,.12-1l5.47-3.16c.51-.3,1.29-.33,1.73-.07l5.52,3.19c.44,.26,.39,.7-.12,1l-5.47,3.16c-.51,.3-1.29,.33-1.73,.07Z"/><path class="ag" d="M239.27,306.33l-5.52-3.19c-.44-.26-.39-.7,.12-1l5.47-3.16c.51-.3,1.29-.33,1.73-.07l5.52,3.19c.44,.26,.39,.7-.12,1l-5.47,3.16c-.51,.3-1.29,.33-1.73,.07Z"/><path class="ag" d="M247.79,311.25l-5.52-3.19c-.44-.26-.39-.7,.12-1l5.47-3.16c.51-.3,1.29-.33,1.73-.07l5.52,3.19c.44,.26,.39,.7-.12,1l-5.47,3.16c-.51,.3-1.29,.33-1.73,.07Z"/><path class="ag" d="M256.32,316.17l-5.52-3.19c-.44-.26-.39-.7,.12-1l5.47-3.16c.51-.3,1.29-.33,1.73-.07l5.52,3.19c.44,.26,.39,.7-.12,1l-5.47,3.16c-.51,.3-1.29,.33-1.73,.07Z"/><path class="ag" d="M264.84,321.1l-5.52-3.19c-.44-.26-.39-.7,.12-1l5.47-3.16c.51-.3,1.29-.33,1.73-.07l5.52,3.19c.44,.26,.39,.7-.12,1l-5.47,3.16c-.51,.3-1.29,.33-1.73,.07Z"/><path class="ag" d="M273.37,326.02l-5.52-3.19c-.44-.26-.39-.7,.12-1l5.47-3.16c.51-.3,1.29-.33,1.73-.07l5.52,3.19c.44,.26,.39,.7-.12,1l-5.47,3.16c-.51,.3-1.29,.33-1.73,.07Z"/><path class="ag" d="M281.89,330.94l-5.52-3.19c-.44-.26-.39-.7,.12-1l5.47-3.16c.51-.3,1.29-.33,1.73-.07l5.52,3.19c.44,.26,.39,.7-.12,1l-5.47,3.16c-.51,.3-1.29,.33-1.73,.07Z"/><path class="ag" d="M290.42,335.86l-5.52-3.19c-.44-.26-.39-.7,.12-1l5.47-3.16c.51-.3,1.29-.33,1.73-.07l5.52,3.19c.44,.26,.39,.7-.12,1l-5.47,3.16c-.51,.3-1.29,.33-1.73,.07Z"/><path class="ag" d="M226.25,289.23l-5.52-3.19c-.44-.26-.39-.7,.12-1l5.47-3.16c.51-.3,1.29-.33,1.73-.07l5.52,3.19c.44,.26,.39,.7-.12,1l-5.47,3.16c-.51,.3-1.29,.33-1.73,.07Z"/><path class="ag" d="M217.6,284.24l-5.52-3.19c-.44-.26-.39-.7,.12-1l5.47-3.16c.51-.3,1.29-.33,1.73-.07l5.52,3.19c.44,.26,.39,.7-.12,1l-5.47,3.16c-.51,.3-1.29,.33-1.73,.07Z"/><path class="ag" d="M208.94,279.24l-11.89-6.86c-.44-.26-.39-.7,.12-1l5.47-3.16c.51-.3,1.29-.33,1.73-.07l11.89,6.86c.44,.26,.39,.7-.12,1l-5.47,3.16c-.51,.3-1.29,.33-1.73,.07Z"/><path class="ag" d="M214.99,273.15l-9.65-5.57c-.44-.26-.39-.7,.12-1l5.47-3.16c.51-.3,1.29-.33,1.73-.07l9.65,5.57c.44,.26,.39,.7-.12,1l-5.47,3.16c-.51,.3-1.29,.33-1.73,.07Z"/><path class="ag" d="M234.78,294.16l-5.52-3.19c-.44-.26-.39-.7,.12-1l5.47-3.16c.51-.3,1.29-.33,1.73-.07l5.52,3.19c.44,.26,.39,.7-.12,1l-5.47,3.16c-.51,.3-1.29,.33-1.73,.07Z"/><path class="ag" d="M243.3,299.08l-5.52-3.19c-.44-.26-.39-.7,.12-1l5.47-3.16c.51-.3,1.29-.33,1.73-.07l5.52,3.19c.44,.26,.39,.7-.12,1l-5.47,3.16c-.51,.3-1.29,.33-1.73,.07Z"/><path class="ag" d="M251.83,304l-5.52-3.19c-.44-.26-.39-.7,.12-1l5.47-3.16c.51-.3,1.29-.33,1.73-.07l5.52,3.19c.44,.26,.39,.7-.12,1l-5.47,3.16c-.51,.3-1.29,.33-1.73,.07Z"/><path class="ag" d="M260.35,308.92l-5.52-3.19c-.44-.26-.39-.7,.12-1l5.47-3.16c.51-.3,1.29-.33,1.73-.07l5.52,3.19c.44,.26,.39,.7-.12,1l-5.47,3.16c-.51,.3-1.29,.33-1.73,.07Z"/><path class="ag" d="M268.88,313.84l-5.52-3.19c-.44-.26-.39-.7,.12-1l5.47-3.16c.51-.3,1.29-.33,1.73-.07l5.52,3.19c.44,.26,.39,.7-.12,1l-5.47,3.16c-.51,.3-1.29,.33-1.73,.07Z"/><path class="ag" d="M277.4,318.77l-5.52-3.19c-.44-.26-.39-.7,.12-1l5.47-3.16c.51-.3,1.29-.33,1.73-.07l5.52,3.19c.44,.26,.39,.7-.12,1l-5.47,3.16c-.51,.3-1.29,.33-1.73,.07Z"/><path class="ag" d="M285.93,323.69l-5.52-3.19c-.44-.26-.39-.7,.12-1l5.47-3.16c.51-.3,1.29-.33,1.73-.07l5.52,3.19c.44,.26,.39,.7-.12,1l-5.47,3.16c-.51,.3-1.29,.33-1.73,.07Z"/><path class="ag" d="M294.45,328.61l-5.52-3.19c-.44-.26-.39-.7,.12-1l5.47-3.16c.51-.3,1.29-.33,1.73-.07l5.52,3.19c.44,.26,.39,.7-.12,1l-5.47,3.16c-.51,.3-1.29,.33-1.73,.07Z"/><path class="ag" d="M302.98,333.53l-5.52-3.19c-.44-.26-.39-.7,.12-1l5.47-3.16c.51-.3,1.29-.33,1.73-.07l5.52,3.19c.44,.26,.39,.7-.12,1l-5.47,3.16c-.51,.3-1.29,.33-1.73,.07Z"/><path class="ag" d="M318.13,342.28l-12.04-6.95c-.44-.26-.39-.7,.12-1l5.47-3.16c.51-.3,1.29-.33,1.73-.07l12.04,6.95c.44,.26,.39,.7-.12,1l-5.47,3.16c-.51,.3-1.29,.33-1.73,.07Z"/><path class="ag" d="M334.73,332.7l-10.17-5.87c-.44-.26-.39-.7,.12-1l5.47-3.16c.51-.3,1.29-.33,1.73-.07l10.17,5.87c.44,.26,.39,.7-.12,1l-5.47,3.16c-.51,.3-1.29,.33-1.73,.07Z"/><path class="ag" d="M249.71,293.19l-5.52-3.19c-.44-.26-.39-.7,.12-1l5.47-3.16c.51-.3,1.29-.33,1.73-.07l5.52,3.19c.44,.26,.39,.7-.12,1l-5.47,3.16c-.51,.3-1.29,.33-1.73,.07Z"/><path class="ag" d="M240.97,288.15l-5.52-3.19c-.44-.26-.39-.7,.12-1l5.47-3.16c.51-.3,1.29-.33,1.73-.07l5.52,3.19c.44,.26,.39,.7-.12,1l-5.47,3.16c-.51,.3-1.29,.33-1.73,.07Z"/><path class="ag" d="M232.23,283.1l-5.52-3.19c-.44-.26-.39-.7,.12-1l5.47-3.16c.51-.3,1.29-.33,1.73-.07l5.52,3.19c.44,.26,.39,.7-.12,1l-5.47,3.16c-.51,.3-1.29,.33-1.73,.07Z"/><path class="ag" d="M223.5,278.06l-5.52-3.19c-.44-.26-.39-.7,.12-1l5.47-3.16c.51-.3,1.29-.33,1.73-.07l5.52,3.19c.44,.26,.39,.7-.12,1l-5.47,3.16c-.51,.3-1.29,.33-1.73,.07Z"/><path class="ag" d="M258.23,298.11l-5.52-3.19c-.44-.26-.39-.7,.12-1l5.47-3.16c.51-.3,1.29-.33,1.73-.07l5.52,3.19c.44,.26,.39,.7-.12,1l-5.47,3.16c-.51,.3-1.29,.33-1.73,.07Z"/><path class="ag" d="M266.76,303.04l-5.52-3.19c-.44-.26-.39-.7,.12-1l5.47-3.16c.51-.3,1.29-.33,1.73-.07l5.52,3.19c.44,.26,.39,.7-.12,1l-5.47,3.16c-.51,.3-1.29,.33-1.73,.07Z"/><path class="ag" d="M275.28,307.96l-5.52-3.19c-.44-.26-.39-.7,.12-1l5.47-3.16c.51-.3,1.29-.33,1.73-.07l5.52,3.19c.44,.26,.39,.7-.12,1l-5.47,3.16c-.51,.3-1.29,.33-1.73,.07Z"/><path class="ag" d="M283.81,312.88l-5.52-3.19c-.44-.26-.39-.7,.12-1l5.47-3.16c.51-.3,1.29-.33,1.73-.07l5.52,3.19c.44,.26,.39,.7-.12,1l-5.47,3.16c-.51,.3-1.29,.33-1.73,.07Z"/><path class="ag" d="M292.33,317.8l-5.52-3.19c-.44-.26-.39-.7,.12-1l5.47-3.16c.51-.3,1.29-.33,1.73-.07l5.52,3.19c.44,.26,.39,.7-.12,1l-5.47,3.16c-.51,.3-1.29,.33-1.73,.07Z"/><path class="ag" d="M300.86,322.72l-5.52-3.19c-.44-.26-.39-.7,.12-1l5.47-3.16c.51-.3,1.29-.33,1.73-.07l5.52,3.19c.44,.26,.39,.7-.12,1l-5.47,3.16c-.51,.3-1.29,.33-1.73,.07Z"/><path class="ag" d="M309.38,327.65l-5.52-3.19c-.44-.26-.39-.7,.12-1l5.47-3.16c.51-.3,1.29-.33,1.73-.07l5.52,3.19c.44,.26,.39,.7-.12,1l-5.47,3.16c-.51,.3-1.29,.33-1.73,.07Z"/><path class="ag" d="M317.91,332.57l-5.52-3.19c-.44-.26-.39-.7,.12-1l5.47-3.16c.51-.3,1.29-.33,1.73-.07l5.52,3.19c.44,.26,.39,.7-.12,1l-5.47,3.16c-.51,.3-1.29,.33-1.73,.07Z"/><path class="ag" d="M326.43,337.49l-5.52-3.19c-.44-.26-.39-.7,.12-1l5.47-3.16c.51-.3,1.29-.33,1.73-.07l5.52,3.19c.44,.26,.39,.7-.12,1l-5.47,3.16c-.51,.3-1.29,.33-1.73,.07Z"/><path class="ag" d="M245.22,281.02l-5.52-3.19c-.44-.26-.39-.7,.12-1l5.47-3.16c.51-.3,1.29-.33,1.73-.07l5.52,3.19c.44,.26,.39,.7-.12,1l-5.47,3.16c-.51,.3-1.29,.33-1.73,.07Z"/><path class="ag" d="M236.74,276.12l-5.52-3.19c-.44-.26-.39-.7,.12-1l5.47-3.16c.51-.3,1.29-.33,1.73-.07l5.52,3.19c.44,.26,.39,.7-.12,1l-5.47,3.16c-.51,.3-1.29,.33-1.73,.07Z"/><path class="ag" d="M228.25,271.22l-5.52-3.19c-.44-.26-.39-.7,.12-1l5.47-3.16c.51-.3,1.29-.33,1.73-.07l5.52,3.19c.44,.26,.39,.7-.12,1l-5.47,3.16c-.51,.3-1.29,.33-1.73,.07Z"/><path class="ag" d="M219.77,266.33l-5.52-3.19c-.44-.26-.39-.7,.12-1l5.47-3.16c.51-.3,1.29-.33,1.73-.07l5.52,3.19c.44,.26,.39,.7-.12,1l-5.47,3.16c-.51,.3-1.29,.33-1.73,.07Z"/><path class="ag" d="M228.49,261.29l-5.52-3.19c-.44-.26-.39-.7,.12-1l1.81-1.04c.51-.3,1.29-.33,1.73-.07l5.52,3.19c.44,.26,.39,.7-.12,1l-1.81,1.04c-.51,.3-1.29,.33-1.73,.07Z"/><path class="ag" d="M239.56,267.68l-5.52-3.19c-.44-.26-.39-.7,.12-1l1.81-1.04c.51-.3,1.29-.33,1.73-.07l5.52,3.19c.44,.26,.39,.7-.12,1l-1.81,1.04c-.51,.3-1.29,.33-1.73,.07Z"/><path class="ag" d="M248.01,272.56l-5.52-3.19c-.44-.26-.39-.7,.12-1l1.81-1.04c.51-.3,1.29-.33,1.73-.07l5.52,3.19c.44,.26,.39,.7-.12,1l-1.81,1.04c-.51,.3-1.29,.33-1.73,.07Z"/><path class="ag" d="M256.46,277.44l-5.52-3.19c-.44-.26-.39-.7,.12-1l1.81-1.04c.51-.3,1.29-.33,1.73-.07l5.52,3.19c.44,.26,.39,.7-.12,1l-1.81,1.04c-.51,.3-1.29,.33-1.73,.07Z"/><path class="ag" d="M264.9,282.31l-5.52-3.19c-.44-.26-.39-.7,.12-1l1.81-1.04c.51-.3,1.29-.33,1.73-.07l5.52,3.19c.44,.26,.39,.7-.12,1l-1.81,1.04c-.51,.3-1.29,.33-1.73,.07Z"/><path class="ag" d="M312.06,309.54l-5.52-3.19c-.44-.26-.39-.7,.12-1l1.81-1.04c.51-.3,1.29-.33,1.73-.07l5.52,3.19c.44,.26,.39,.7-.12,1l-1.81,1.04c-.51,.3-1.29,.33-1.73,.07Z"/><path class="ag" d="M320.51,314.42l-5.52-3.19c-.44-.26-.39-.7,.12-1l1.81-1.04c.51-.3,1.29-.33,1.73-.07l5.52,3.19c.44,.26,.39,.7-.12,1l-1.81,1.04c-.51,.3-1.29,.33-1.73,.07Z"/><path class="ag" d="M328.96,319.29l-5.52-3.19c-.44-.26-.39-.7,.12-1l1.81-1.04c.51-.3,1.29-.33,1.73-.07l5.52,3.19c.44,.26,.39,.7-.12,1l-1.81,1.04c-.51,.3-1.29,.33-1.73,.07Z"/><path class="ag" d="M337.41,324.17l-5.52-3.19c-.44-.26-.39-.7,.12-1l1.81-1.04c.51-.3,1.29-.33,1.73-.07l5.52,3.19c.44,.26,.39,.7-.12,1l-1.81,1.04c-.51,.3-1.29,.33-1.73,.07Z"/><path class="ag" d="M253.74,285.94l-5.52-3.19c-.44-.26-.39-.7,.12-1l5.47-3.16c.51-.3,1.29-.33,1.73-.07l5.52,3.19c.44,.26,.39,.7-.12,1l-5.47,3.16c-.51,.3-1.29,.33-1.73,.07Z"/><path class="ag" d="M262.27,290.86l-5.52-3.19c-.44-.26-.39-.7,.12-1l5.47-3.16c.51-.3,1.29-.33,1.73-.07l5.52,3.19c.44,.26,.39,.7-.12,1l-5.47,3.16c-.51,.3-1.29,.33-1.73,.07Z"/><path class="ag" d="M270.79,295.78l-5.52-3.19c-.44-.26-.39-.7,.12-1l5.47-3.16c.51-.3,1.29-.33,1.73-.07l5.52,3.19c.44,.26,.39,.7-.12,1l-5.47,3.16c-.51,.3-1.29,.33-1.73,.07Z"/><path class="ag" d="M279.32,300.71l-5.52-3.19c-.44-.26-.39-.7,.12-1l5.47-3.16c.51-.3,1.29-.33,1.73-.07l5.52,3.19c.44,.26,.39,.7-.12,1l-5.47,3.16c-.51,.3-1.29,.33-1.73,.07Z"/><path class="ag" d="M287.84,305.63l-5.52-3.19c-.44-.26-.39-.7,.12-1l5.47-3.16c.51-.3,1.29-.33,1.73-.07l5.52,3.19c.44,.26,.39,.7-.12,1l-5.47,3.16c-.51,.3-1.29,.33-1.73,.07Z"/><path class="ag" d="M296.37,310.55l-5.52-3.19c-.44-.26-.39-.7,.12-1l5.47-3.16c.51-.3,1.29-.33,1.73-.07l5.52,3.19c.44,.26,.39,.7-.12,1l-5.47,3.16c-.51,.3-1.29,.33-1.73,.07Z"/><path class="ag" d="M304.89,315.47l-5.52-3.19c-.44-.26-.39-.7,.12-1l5.47-3.16c.51-.3,1.29-.33,1.73-.07l5.52,3.19c.44,.26,.39,.7-.12,1l-5.47,3.16c-.51,.3-1.29,.33-1.73,.07Z"/><path class="ag" d="M313.42,320.39l-5.52-3.19c-.44-.26-.39-.7,.12-1l5.47-3.16c.51-.3,1.29-.33,1.73-.07l5.52,3.19c.44,.26,.39,.7-.12,1l-5.47,3.16c-.51,.3-1.29,.33-1.73,.07Z"/><path class="ag" d="M321.94,325.32l-5.52-3.19c-.44-.26-.39-.7,.12-1l5.47-3.16c.51-.3,1.29-.33,1.73-.07l5.52,3.19c.44,.26,.39,.7-.12,1l-5.47,3.16c-.51,.3-1.29,.33-1.73,.07Z"/><path class="ag" d="M205.01,286.55l-16.26-9.39c-.44-.26-.39-.7,.12-1l5.47-3.16c.51-.3,1.29-.33,1.73-.07l16.26,9.39c.44,.26,.39,.7-.12,1l-5.47,3.16c-.51,.3-1.29,.33-1.73,.07Z"/><path class="ag" d="M309.74,347.02l-16.26-9.39c-.44-.26-.39-.7,.12-1l5.47-3.16c.51-.3,1.29-.33,1.73-.07l16.26,9.39c.44,.26,.39,.7-.12,1l-5.47,3.16c-.51,.3-1.29,.33-1.73,.07Z"/><path class="ag" d="M275.64,338.2l-5.52-3.19c-.44-.26-.39-.7,.12-1l6.52-3.76c.51-.3,1.29-.33,1.73-.07l5.52,3.19c.44,.26,.39,.7-.12,1l-6.52,3.76c-.51,.3-1.29,.33-1.73,.07Z"/><path class="ag" d="M213.74,302.46l-8.83-5.1c-.44-.26-.39-.7,.12-1l6.52-3.76c.51-.3,1.29-.33,1.73-.07l8.83,5.1c.44,.26,.39,.7-.12,1l-6.52,3.76c-.51,.3-1.29,.33-1.73,.07Z"/><path class="ag" d="M267.43,333.46l-8.83-5.1c-.44-.26-.39-.7,.12-1l6.52-3.76c.51-.3,1.29-.33,1.73-.07l8.83,5.1c.44,.26,.39,.7-.12,1l-6.52,3.76c-.51,.3-1.29,.33-1.73,.07Z"/><path class="ag" d="M226.03,309.56l-8.83-5.1c-.44-.26-.39-.7,.12-1l6.52-3.76c.51-.3,1.29-.33,1.73-.07l8.83,5.1c.44,.26,.39,.7-.12,1l-6.52,3.76c-.51,.3-1.29,.33-1.73,.07Z"/><path class="ag" d="M225.64,299.67l38.38,22.16c.48,.27,.48,.72,0,1l-6.64,3.84c-.48,.27-1.25,.27-1.72,0l-38.38-22.16,8.37-4.83Z"/><path class="ag" d="M299.47,347.13l6.15,3.55c.36,.21,.32,.58-.1,.82l-2.67,1.54c-.42,.24-1.05,.27-1.42,.06l-6.15-3.55c-.36-.21-.32-.58,.1-.82l2.67-1.54c.42-.24,1.05-.27,1.42-.06Z"/><path class="ag" d="M290.87,342.16l6.15,3.55c.36,.21,.32,.58-.1,.82l-2.67,1.54c-.42,.24-1.05,.27-1.42,.06l-6.15-3.55c-.36-.21-.32-.58,.1-.82l2.67-1.54c.42-.24,1.05-.27,1.42-.06Z"/><path class="ag" d="M282.35,337.24l6.15,3.55c.36,.21,.32,.58-.1,.82l-2.67,1.54c-.42,.24-1.05,.27-1.42,.06l-6.15-3.55c-.36-.21-.32-.58,.1-.82l2.67-1.54c.42-.24,1.05-.27,1.42-.06Z"/><path class="ag" d="M295.58,339.45l6.15,3.55c.36,.21,.32,.58-.1,.82l-2.67,1.54c-.42,.24-1.05,.27-1.42,.06l-6.15-3.55c-.36-.21-.32-.58,.1-.82l2.67-1.54c.42-.24,1.05-.27,1.42-.06Z"/></g><path class="au" d="M385.8,329.49l-162.86-94.03c-2.56-1.48-3.9-5.08-2.99-8.05l36.83-119.58c.91-2.97,3.73-4.17,6.29-2.69l162.86,94.03c2.56,1.48,3.9,5.08,2.99,8.05l-36.83,119.58c-.91,2.97-3.73,4.17-6.29,2.69Z"/><path class="ax" d="M384.27,325.3l-157.97-91.28c-2.45-1.41-3.73-4.86-2.86-7.7l35.21-114.32c.87-2.84,3.57-3.99,6.02-2.58l157.97,91.28c2.45,1.41,3.73,4.86,2.86,7.7l-35.21,114.32c-.87,2.84-3.57,3.99-6.02,2.58Z"/><path class="ae" d="M384.27,325.3l-157.97-91.28c-2.45-1.41-3.73-4.86-2.86-7.7l35.21-114.32c.87-2.84,3.57-3.99,6.02-2.58l157.97,91.28c2.45,1.41,3.73,4.86,2.86,7.7l-35.21,114.32c-.87,2.84-3.57,3.99-6.02,2.58Z"/><path class="ae" d="M384.27,325.3l-157.97-91.28c-2.45-1.41-3.73-4.86-2.86-7.7l35.21-114.32c.87-2.84,3.57-3.99,6.02-2.58l157.97,91.28c2.45,1.41,3.73,4.86,2.86,7.7l-35.21,114.32c-.87,2.84-3.57,3.99-6.02,2.58Z"/><path class="aa" d="M375.78,290.37l-106.94-61.74c-1.68-.97-2.56-3.34-1.96-5.28l24.18-78.52c.6-1.95,2.45-2.74,4.13-1.77l106.94,61.74c1.68,.97,2.56,3.34,1.96,5.28l-24.18,78.52c-.6,1.95-2.45,2.74-4.13,1.77Z"/><path class="ab" d="M361.33,292.26l-106.94-61.74c-1.68-.97-2.56-3.34-1.96-5.28l24.18-78.52c.6-1.95,2.45-2.74,4.13-1.77l106.94,61.74c1.68,.97,2.56,3.34,1.96,5.28l-24.18,78.52c-.6,1.95-2.45,2.74-4.13,1.77Z"/><g class="a`"><path class="ag" d="M361.33,292.26l-106.94-61.74c-1.68-.97-2.56-3.34-1.96-5.28l24.18-78.52c.6-1.95,2.45-2.74,4.13-1.77l106.94,61.74c1.68,.97,2.56,3.34,1.96,5.28l-24.18,78.52c-.6,1.95-2.45,2.74-4.13,1.77Z"/></g><path class="v" d="M387.69,206.69l-106.94-61.74c-1.05-.61-2.17-.52-3.01,.1,.5-.01,1.03,.1,1.54,.4l106.94,61.74c1.68,.97,2.56,3.34,1.96,5.28l-24.18,78.52c-.22,.73-.62,1.29-1.12,1.67,1.15-.03,2.17-.81,2.59-2.16l24.18-78.52c.6-1.95-.28-4.31-1.96-5.28Z"/><path class="ae" d="M226.46,356.38c-1.47,0-2.88-.31-3.96-.93h0l-42.84-24.73c-1.14-.66-1.76-1.59-1.76-2.64,0-1.21,.86-2.41,2.36-3.27l22.05-12.73c2.7-1.55,6.65-1.71,9.01-.35l42.84,24.74c1.14,.66,1.76,1.59,1.76,2.64,0,1.21-.86,2.41-2.36,3.27l-22.05,12.73c-1.46,.84-3.3,1.27-5.04,1.27Zm-19.09-44.34c-1.55,0-3.19,.37-4.45,1.1l-22.05,12.73c-1.11,.64-1.75,1.44-1.75,2.2s.62,1.27,1.14,1.57l42.84,24.74c1.94,1.12,5.5,.96,7.77-.35l22.05-12.73c1.11-.64,1.74-1.44,1.74-2.2s-.62-1.27-1.14-1.57l-42.84-24.74c-.87-.5-2.07-.75-3.32-.75Z"/></g><g><g><path class="v" d="M306.79,186.14l-6.61-3.82c-.61-.35-.94-1.21-.73-1.9h0c.21-.7,.87-.97,1.49-.62l6.61,3.82c.61,.35,.94,1.21,.73,1.9h0c-.21,.7-.87,.97-1.49,.62Z"/><path class="v" d="M322.54,195.24l-9.75-5.63c-.61-.35-.94-1.21-.73-1.9h0c.21-.7,.87-.97,1.49-.62l9.75,5.63c.61,.35,.94,1.21,.73,1.9h0c-.21,.7-.87,.97-1.49,.62Z"/><path class="v" d="M293.46,215.58l-6.61-3.82c-.61-.35-.94-1.21-.73-1.9h0c.21-.7,.87-.97,1.49-.62l6.61,3.82c.61,.35,.94,1.21,.73,1.9h0c-.21,.7-.87,.97-1.49,.62Z"/><path class="v" d="M307.5,223.68l-9.75-5.63c-.61-.35-.94-1.21-.73-1.9h0c.21-.7,.87-.97,1.49-.62l9.75,5.63c.61,.35,.94,1.21,.73,1.9h0c-.21,.7-.87,.97-1.49,.62Z"/><path class="v" d="M286.99,180.9l-4.13-2.38c-.61-.35-.94-1.21-.73-1.9h0c.21-.7,.87-.97,1.49-.62l4.13,2.38c.61,.35,.94,1.21,.73,1.9h0c-.21,.7-.87,.97-1.49,.62Z"/><path class="v" d="M299.42,194.26l-12.62-7.29c-.61-.35-.94-1.21-.73-1.9h0c.21-.7,.87-.97,1.49-.62l12.62,7.29c.61,.35,.94,1.21,.73,1.9h0c-.21,.7-.87,.97-1.49,.62Z"/><path class="v" d="M287.78,199.92l-4.13-2.38c-.61-.35-.94-1.21-.73-1.9h0c.21-.7,.87-.97,1.49-.62l4.13,2.38c.61,.35,.94,1.21,.73,1.9h0c-.21,.7-.87,.97-1.49,.62Z"/><path class="v" d="M309.02,236.94l-11.03-6.37c-.61-.35-.94-1.21-.73-1.9h0c.21-.7,.87-.97,1.49-.62l11.03,6.37c.61,.35,.94,1.21,.73,1.9h0c-.21,.7-.87,.97-1.49,.62Z"/><path class="v" d="M283.15,209.62l-2.65-1.53c-.61-.35-.94-1.21-.73-1.9h0c.21-.7,.87-.97,1.49-.62l2.65,1.53c.61,.35,.94,1.21,.73,1.9h0c-.21,.7-.87,.97-1.49,.62Z"/><path class="v" d="M280.64,220.55l-3.29-1.9c-.61-.35-.94-1.21-.73-1.9h0c.21-.7,.87-.97,1.49-.62l3.29,1.9c.61,.35,.94,1.21,.73,1.9h0c-.21,.7-.87,.97-1.49,.62Z"/><path class="v" d="M293.45,227.95l-8.68-5.01c-.61-.35-.94-1.21-.73-1.9h0c.21-.7,.87-.97,1.49-.62l8.68,5.01c.61,.35,.94,1.21,.73,1.9h0c-.21,.7-.87,.97-1.49,.62Z"/><path class="v" d="M282.01,227.53l-6.24-3.6c-.61-.35-.94-1.21-.73-1.9h0c.21-.7,.87-.97,1.49-.62l6.24,3.6c.61,.35,.94,1.21,.73,1.9h0c-.21,.7-.87,.97-1.49,.62Z"/><path class="v" d="M318.49,242.43l-4.01-2.31c-.61-.35-.94-1.21-.73-1.9h0c.21-.7,.87-.97,1.49-.62l4.01,2.31c.61,.35,.94,1.21,.73,1.9h0c-.21,.7-.87,.97-1.49,.62Z"/><path class="v" d="M303.14,208.79l-11.03-6.37c-.61-.35-.94-1.21-.73-1.9h0c.21-.7,.87-.97,1.49-.62l11.03,6.37c.61,.35,.94,1.21,.73,1.9h0c-.21,.7-.87,.97-1.49,.62Z"/></g><path class="ar" d="M304.45,203.36l-19.23-11.1c-.61-.35-.94-1.21-.73-1.9h0c.21-.7,.87-.97,1.49-.62l19.23,11.1c.61,.35,.94,1.21,.73,1.9h0c-.21,.7-.87,.97-1.49,.62Z"/><path class="ar" d="M293.1,209.18l-11.03-6.37c-.61-.35-.94-1.21-.73-1.9h0c.21-.7,.87-.97,1.49-.62l11.03,6.37c.61,.35,.94,1.21,.73,1.9h0c-.21,.7-.87,.97-1.49,.62Z"/><path class="ar" d="M311.51,213.62l-4.01-2.31c-.61-.35-.94-1.21-.73-1.9h0c.21-.7,.87-.97,1.49-.62l4.01,2.31c.61,.35,.94,1.21,.73,1.9h0c-.21,.7-.87,.97-1.49,.62Z"/><path class="ar" d="M352.28,212.4l-23.73-13.7c-.61-.35-.94-1.21-.73-1.9h0c.21-.7,.87-.97,1.49-.62l23.73,13.7c.61,.35,.94,1.21,.73,1.9h0c-.21,.7-.87,.97-1.49,.62Z"/><path class="ah" d="M292.18,221.03l-13.26-7.66c-.61-.35-.94-1.21-.73-1.9h0c.21-.7,.87-.97,1.49-.62l13.26,7.66c.61,.35,.94,1.21,.73,1.9h0c-.21,.7-.87,.97-1.49,.62Z"/><path class="ah" d="M294.18,178.86l-9.75-5.63c-.61-.35-.94-1.21-.73-1.9h0c.21-.7,.87-.97,1.49-.62l9.75,5.63c.61,.35,.94,1.21,.73,1.9h0c-.21,.7-.87,.97-1.49,.62Z"/><path class="ar" d="M279.98,232.55l-11.29-6.52c-.61-.35-.94-1.21-.73-1.9h0c.21-.7,.87-.97,1.49-.62l11.29,6.52c.61,.35,.94,1.21,.73,1.9h0c-.21,.7-.87,.97-1.49,.62Z"/></g><g><path class="v" d="M354.94,200.2l-4.83-2.79c-.45-.26-.69-.88-.54-1.39h0c.15-.51,.64-.71,1.09-.45l4.83,2.79c.45,.26,.69,.88,.54,1.39h0c-.15,.51-.64,.71-1.09,.45Z"/><path class="v" d="M364.16,205.52l-4.83-2.79c-.45-.26-.69-.88-.54-1.39h0c.15-.51,.64-.71,1.09-.45l4.83,2.79c.45,.26,.69,.88,.54,1.39h0c-.15,.51-.64,.71-1.09,.45Z"/><path class="v" d="M373.38,210.84l-4.83-2.79c-.45-.26-.69-.88-.54-1.39h0c.15-.51,.64-.71,1.09-.45l4.83,2.79c.45,.26,.69,.88,.54,1.39h0c-.15,.51-.64,.71-1.09,.45Z"/><path class="ah" d="M377.91,213.46l-.15-.09c-.45-.26-.69-.88-.54-1.39h0c.15-.51,.64-.71,1.09-.45l.15,.09c.45,.26,.69,.88,.54,1.39h0c-.15,.51-.64,.71-1.09,.45Z"/></g><path class="ai" d="M128.49,270.01c-3.06,0-6.12-.79-8.84-2.36h0l-32.37-18.69c-1.4-.81-2.24-2.26-2.24-3.88s.84-3.07,2.24-3.88l32.37-18.69c5.45-3.15,12.24-3.15,17.69,0l32.37,18.69c1.4,.81,2.24,2.26,2.24,3.88s-.84,3.07-2.24,3.88l-32.37,18.69c-2.73,1.58-5.79,2.36-8.85,2.36Zm-7.79-4.19c4.81,2.77,10.78,2.77,15.59,0l32.37-18.69c.74-.43,1.19-1.2,1.19-2.06s-.44-1.63-1.19-2.06l-32.37-18.69c-4.81-2.78-10.78-2.77-15.59,0l-32.37,18.69c-.74,.43-1.19,1.2-1.19,2.06s.44,1.63,1.19,2.06l32.37,18.69Z"/><g><path class="x" d="M144.05,254.6c-8.68,5.01-22.76,5.01-31.44,0-8.68-5.01-8.68-13.14,0-18.15,8.68-5.01,22.76-5.01,31.44,0,8.68,5.01,8.68,13.14,0,18.15Z"/><path class="at" d="M161.29,154.02h-63.33l5.89,68.57h0c0,3.81,2.52,7.62,7.55,10.52,10.07,5.81,26.39,5.81,36.45,0,5.03-2.91,7.55-6.71,7.55-10.52l5.89-68.57Z"/><path class="ae" d="M161.29,154.02h-63.33l.97,11.28c1.45,1.86,3.4,3.64,5.87,5.28,12.1,8.03,32.07,9.57,45.7,3.79l-2.11,50.15c-.09,2.19-.85,4.31-2.26,5.98-2.05,2.41-6,5.26-13.6,6.86,5.6-.36,11.04-1.78,15.33-4.25,5.03-2.91,7.55-6.71,7.55-10.52l4.72-54.99h0l1.17-13.58Z"/><ellipse class="ae" cx="129.62" cy="154.02" rx="31.67" ry="18.28"/><ellipse class="ae" cx="129.62" cy="147.58" rx="27.27" ry="15.75"/><path class="av" d="M163.16,153.16h0v-.05s-.01-.06-.01-.09l-.61-6.14-.03,.07c-.27-4.65-3.47-9.25-9.62-12.79-12.86-7.42-33.7-7.42-46.56,0-6.3,3.64-9.5,8.38-9.63,13.15v-.02l-.59,5.47c-.02,.14-.03,.28-.05,.43v.09h0c-.35,5.2,2.92,10.48,9.8,14.45,13.11,7.57,34.37,7.57,47.48,0,6.93-4,10.19-9.32,9.8-14.56Z"/><ellipse class="al" cx="129.62" cy="147.58" rx="27.27" ry="15.75"/><ellipse class="aw" cx="128.33" cy="147.58" rx="27.27" ry="15.75"/><path class="ae" d="M113.57,138.79c10.65-6.15,27.92-6.15,38.57,0,.14,.08,.25,.16,.38,.24-1.03-.92-2.23-1.79-3.62-2.59-10.65-6.15-27.92-6.15-38.57,0-10.52,6.07-10.63,15.86-.38,22.03-6.84-6.1-5.64-14.33,3.62-19.68Z"/><path class="y" d="M110.34,139.18c10.65-6.15,27.92-6.15,38.57,0,4.72,2.73,7.35,6.21,7.88,9.77,.67-4.47-1.95-9.08-7.88-12.5-10.65-6.15-27.92-6.15-38.57,0-5.93,3.42-8.55,8.03-7.88,12.5,.53-3.56,3.16-7.04,7.88-9.77Z"/><path class="as" d="M153.11,134.3c-12.84-7.56-33.76-7.75-46.73-.41s-13.08,19.42-.24,26.98c12.84,7.56,33.76,7.75,46.73,.41,12.97-7.34,13.08-19.42,.24-26.98Zm-4.2,24.42c-3.56,2.05-7.86,3.41-12.4,4.09l-.5-1.63c-.2-.66-.81-1.11-1.49-1.11h-9.79c-.69,0-1.29,.45-1.49,1.11l-.49,1.63c-4.54-.68-8.84-2.03-12.4-4.09-10.65-6.15-10.65-16.12,0-22.27,10.65-6.15,27.92-6.15,38.57,0,10.65,6.15,10.65,16.12,0,22.27Z"/><g><path class="v" d="M148.91,135.28c-10.65-6.15-27.92-6.15-38.57,0-5.58,3.22-8.23,7.5-7.96,11.72,.24-3.83,2.9-7.62,7.96-10.55,10.65-6.15,27.92-6.15,38.57,0,5.07,2.93,7.72,6.72,7.96,10.55,.27-4.22-2.38-8.49-7.96-11.72Z"/><path class="v" d="M152.87,160.11c-12.97,7.34-33.89,7.15-46.73-.41-6.11-3.6-9.28-8.22-9.54-12.87-.25,5.03,2.92,10.13,9.54,14.03,12.84,7.56,33.76,7.75,46.73,.41,6.8-3.85,10.05-8.99,9.77-14.11-.24,4.73-3.49,9.39-9.77,12.94Z"/></g><path class="ak" d="M126.61,162.07h6.03c.36,0,.65,.29,.65,.65v.28c0,.36-.29,.65-.65,.65h-6.03c-.36,0-.65-.29-.65-.65v-.28c0-.36,.29-.65,.65-.65Z"/><path class="u" d="M132.55,162.07h-5.85c-.41,0-.74,.33-.74,.74v.1c0,.07,.02,.13,.04,.2,.09-.31,.36-.54,.7-.54h5.85c.34,0,.61,.23,.7,.54,.02-.06,.04-.13,.04-.2v-.1c0-.41-.33-.74-.74-.74Z"/><g><path class="ar" d="M130.52,215.55c-.72,2.7-3.49,4.31-6.19,3.59-2.7-.72-4.31-3.49-3.59-6.19,.72-2.7,3.27-3.47,5.97-2.75,2.7,.72,4.53,2.65,3.81,5.35Z"/><path class="ar" d="M134.5,210.22c-1.02,1-2.32,.87-3.19-.02-.86-.88-.96-2.19,.05-3.19,1.02-1,2.95-1.49,3.82-.6,.86,.88,.33,2.81-.69,3.81Z"/><path class="ar" d="M129.21,205.99c-.25,1.4-1.38,2.06-2.6,1.84-1.22-.22-2.06-1.22-1.81-2.62s1.54-2.93,2.76-2.71c1.22,.22,1.9,2.09,1.65,3.5Z"/><path class="ar" d="M122.69,205.34c.54,1.32-.07,2.48-1.21,2.95-1.14,.47-2.39,.07-2.93-1.24-.54-1.32-.27-3.3,.87-3.77,1.14-.47,2.73,.75,3.27,2.06Z"/></g></g><path class="w" d="M131.7,162.86s17.71-5.93,10.54-26.28-21.13-26.54-15.5-42.82c0,0-8.81,13.18-.58,31,8.23,17.83,10.04,15.78,9.94,24.3-.12,10.13-8.3,13.79-8.3,13.79h3.9Z"/><path class="w" d="M133.29,96.59s-1.84-12.17,9.57-24.43c0,0-10.09,22.55-6.79,33.68,0,0-2.67-7.08-2.78-9.25Z"/></g></svg>