<?xml version="1.0" encoding="UTF-8"?><svg xmlns="http://www.w3.org/2000/svg" xmlns:xlink="http://www.w3.org/1999/xlink" viewBox="0 0 202.17 202.17"><defs><style>.h{fill:url(#d);}.h,.i{mix-blend-mode:screen;opacity:.2;}.j{fill:url(#g);mix-blend-mode:overlay;}.j,.k{opacity:.4;}.l{isolation:isolate;}.m{fill:url(#f);}.k{fill:#606060;mix-blend-mode:multiply;}.i{fill:url(#e);}</style><linearGradient id="d" x1="-26.02" y1="67" x2="233.09" y2="136.49" gradientTransform="matrix(1, 0, 0, 1, 0, 0)" gradientUnits="userSpaceOnUse"><stop offset=".22" stop-color="#2937db"/><stop offset=".3" stop-color="#2835d7" stop-opacity=".96"/><stop offset=".41" stop-color="#2532cc" stop-opacity=".86"/><stop offset=".56" stop-color="#222cba" stop-opacity=".69"/><stop offset=".72" stop-color="#1d24a2" stop-opacity=".46"/><stop offset=".9" stop-color="#161983" stop-opacity=".17"/><stop offset="1" stop-color="#131471" stop-opacity="0"/></linearGradient><linearGradient id="e" x1="-10.08" y1="71.27" x2="216.54" y2="132.05" xlink:href="#d"/><linearGradient id="f" x1="23.46" y1="189.73" x2="170.47" y2="21.87" gradientTransform="matrix(1, 0, 0, 1, 0, 0)" gradientUnits="userSpaceOnUse"><stop offset="0" stop-color="#121477"/><stop offset=".11" stop-color="#13157c"/><stop offset=".26" stop-color="#171b8c"/><stop offset=".42" stop-color="#1d23a7"/><stop offset=".59" stop-color="#272fcc"/><stop offset=".62" stop-color="#2932d4"/><stop offset=".67" stop-color="#2b37d5"/><stop offset=".73" stop-color="#3147d8"/><stop offset=".79" stop-color="#3a62dd"/><stop offset=".86" stop-color="#4887e5"/><stop offset=".94" stop-color="#59b6ef"/><stop offset=".99" stop-color="#68ddf7"/></linearGradient><linearGradient id="g" x1="24.04" y1="101.02" x2="178.14" y2="101.02" gradientTransform="matrix(1, 0, 0, 1, 0, 0)" gradientUnits="userSpaceOnUse"><stop offset="0" stop-color="#000"/><stop offset=".38" stop-color="#010101"/><stop offset=".51" stop-color="#080808"/><stop offset=".61" stop-color="#141414"/><stop offset=".68" stop-color="#252525"/><stop offset=".75" stop-color="#3b3b3b"/><stop offset=".81" stop-color="#565656"/><stop offset=".86" stop-color="#777"/><stop offset=".91" stop-color="#9c9c9c"/><stop offset=".95" stop-color="#c7c7c7"/><stop offset=".99" stop-color="#f5f5f5"/><stop offset="1" stop-color="#fff"/></linearGradient></defs><g class="l"><g id="a"/><g id="b"><g id="c"><g><circle class="h" cx="101.09" cy="101.09" r="101.09"/><circle class="i" cx="101.09" cy="101.09" r="88.41"/><circle class="m" cx="101.09" cy="101.09" r="77.05"/><path class="j" d="M24.12,104.23c-.04-1.04-.08-2.09-.08-3.14,0-1.52,.06-3.03,.14-4.52,1.42,1.41,3.75,.3,8.97-5.19,7.39-7.78,10.16-10.2,15.5-12.42,17.88-6.9,38.34-3.73,55.3-14.22,10.7-6.62,14.78-18.65,16.73-24.44,2-5.92,3.19-7.57,8.34-11.01,4.52,1.76,8.83,3.93,12.89,6.47,.85,6.9-36.61,37.36-56.57,48.89-17.9,10.34-52.88,19.79-61.23,19.59Zm152.88,9q-.72,1.17-1.83,2.7c-29.61,40.4-82.82,55.63-96.48,58.89,5.75,1.74,11.78,2.84,18.01,3.19,11.86-2.4,33.8-12.07,69.7-45.36,.93-.86,5.43-5,7.5-6.32,1.52-4.38,2.67-8.93,3.38-13.62-.09,.19-.18,.38-.27,.53Zm-17.14,37.66c-10.52,9.89-31.69,21.56-47.07,26.36,18.78-2.86,35.32-12.51,47.07-26.36ZM36.99,72.51c8.54-9.24,13.88-13.51,18.43-14.74,3.08-.83,6.12-.21,9.23,.55,7.96,1.96,14.3,3.06,23.41-.71,1.59-.66,3.99-1.96,5.07-2.67,11.29-7.52,9.43-14.96,6.12-21.26-3.63-6.92,3.51-8.82,9.71-9.24-2.59-.26-5.22-.4-7.89-.4-4.02,0-7.96,.31-11.81,.9-.49,.21-.79,.35-.8,.35-.28,.14-.66,.32-.94,.46-4.47,2.38-2.85,8.81-7.42,11.12-6.05,3.05-13.09-.19-19.11,3.03-.14,.09-16.73,12.4-28.75,26.58-2.57,5.1-4.59,10.52-5.98,16.2,1.78-.81,4.07-2.96,10.73-10.17Zm140.29,17.07c-.74-4.97-1.97-9.77-3.61-14.38,.05,.97-.13,2.03-1.09,3.94-14.22,24.82-97.41,82.15-124.31,78.02,2.21,2.08,4.53,4.04,6.97,5.85,36.35,4.83,120.41-50.43,122.05-73.43Zm.66,6.23c-1.09,6.35-27.43,30.11-25.08,31.71,1.49,1.02,23.85-18.99,25.11-21.48,.1-1.64,.17-3.28,.17-4.94,0-1.78-.08-3.54-.2-5.29Zm-46.79,6.26c19.28-11.42,36.13-34.53,35.86-40.88-3.73-6.14-8.3-11.71-13.54-16.57,.02,.12,.03,.26,.05,.44-.4,6.1-8.55,14.94-25.65,27.8-40.16,29.25-88.18,49.8-101.48,47.17,1.89,7.5,4.88,14.56,8.79,21.01,18.52,.54,95.2-38.5,95.98-38.95Z"/><path class="k" d="M126.79,28.44c-1.69,1.2-3.49,2.27-5.21,3.44-2.91,1.98-5.72,4.48-6.78,7.84-.59,1.87-.61,3.89-1.34,5.71-1.39,3.41-6.27,7.78-7.66,2.12-.67-2.74,.27-5.84,.43-8.53,.12-1.92,.25-3.87,.91-5.67,1.07-2.92,3.46-5.2,6.16-6.75,.27-.15,1.22-.6,2.53-1.14,3.76,.73,7.42,1.73,10.96,2.98Zm28.76,119.38c-12.41,9.43-14,10.64-19.52,15.17,3.5,.33,22.65-10.93,31.6-23.08,.72-1.23,1.4-2.47,2.05-3.74-2.36,2.57-7.63,6.68-14.13,11.65Zm16.25-77.36c-.91-2.1-1.9-4.16-2.99-6.16-2.79,11.83-11.13,22.42-20.45,30.05-11.99,9.86-26.21,16.74-39.6,24.88-6.74,3.99-13.38,8.13-20.24,11.84-13.42,7.41-28.07,13.65-43.42,14.92-2.16,.18-4.31,.25-6.46,.22,1.27,1.76,2.62,3.46,4.03,5.1,1.02-.13,2.04-.29,3.05-.46,23.78-3.93,43.92-17.69,64-30.03,13.29-8.35,27.58-15,40.15-24.56,9.09-6.87,17.1-15.5,21.93-25.78Zm-14.65-10.66c1.34-2.46,2.49-4.99,3.53-7.55-1.1-1.34-2.24-2.64-3.43-3.9-3.47,10.55-8.54,19.82-17.47,27.9-11.45,10.66-25.73,17.8-39.91,24.27-14.37,6.2-28.56,13.53-43.58,17.91-7.6,2.09-15.18,4.24-22.83,5.66-1.87,.33-3.75,.62-5.63,.86,.41,1.26,.85,2.51,1.32,3.74,1.69-.3,3.37-.64,5.03-1.02,7.82-1.72,15.4-4.06,22.96-6.36,13.31-4.15,30.9-12.92,43.78-18.51,21.48-9.76,44.63-21.25,56.23-43.01Z"/></g></g></g></g></svg>