<svg width="100" height="100" viewBox="0 0 100 100" fill="none" xmlns="http://www.w3.org/2000/svg">
<path style="mix-blend-mode:screen" opacity="0.2" d="M85.3575 85.3575C104.884 65.8308 104.884 34.1718 85.3575 14.645C65.8308 -4.88168 34.1718 -4.88168 14.645 14.645C-4.88168 34.1718 -4.88168 65.8308 14.645 85.3575C34.1718 104.884 65.8308 104.884 85.3575 85.3575Z" fill="url(#paint0_linear_491_26)"/>
<path style="mix-blend-mode:screen" opacity="0.2" d="M82.6033 82.6033C100.609 64.5977 100.609 35.4048 82.6033 17.3992C64.5977 -0.606388 35.4049 -0.606382 17.3992 17.3992C-0.606384 35.4049 -0.606384 64.5977 17.3992 82.6033C35.4049 100.609 64.5977 100.609 82.6033 82.6033Z" fill="url(#paint1_linear_491_26)"/>
<path d="M79.441 79.441C95.7002 63.1819 95.7002 36.8207 79.441 20.5615C63.1819 4.30241 36.8207 4.30241 20.5615 20.5615C4.30241 36.8207 4.30241 63.1819 20.5615 79.441C36.8207 95.7002 63.1819 95.7002 79.441 79.441Z" fill="url(#paint2_linear_491_26)"/>
<path d="M20.0895 68.9588C24.1502 70.6436 27.7761 73.6639 32.1525 74.0883C34.0599 74.2747 36.1769 73.9978 37.7064 75.152C39.1739 76.2597 39.6319 78.3871 41.1744 79.3887C43.2164 80.7164 46.0866 79.4456 48.3045 80.4472C49.9428 81.1874 50.802 82.9524 51.8993 84.3785C54.0474 87.1762 57.2282 88.7549 60.4581 90.3077C57.1169 91.1721 53.6126 91.6328 49.9997 91.6328C33.0531 91.6328 18.472 81.5057 11.976 66.9764C14.7529 67.3646 17.5118 67.8899 20.0921 68.9588H20.0895ZM47.9966 91.5836C46.304 90.3362 44.3759 89.4096 42.3365 88.8972C40.869 88.5297 39.3498 88.3667 37.9238 87.8646C36.7411 87.4479 35.6515 86.8087 34.5594 86.1901C31.3993 84.4018 27.8149 82.0337 24.3106 81.0243C23.3401 80.7448 22.8147 80.9105 22.587 81.3297C29.4428 87.334 38.2862 91.1229 47.9991 91.5836H47.9966ZM38.0118 64.7843C32.3828 62.0979 25.8997 61.4612 20.4467 58.4332C24.6419 58.2857 29.8258 57.8612 33.7001 59.6936C35.0873 60.3509 36.3192 61.293 37.5382 62.2273C39.3757 63.6352 41.2133 65.0431 43.0508 66.451C41.2624 66.5157 39.6268 65.5529 38.0118 64.7843ZM82.4281 76.1044C81.763 76.93 81.0694 77.7271 80.3447 78.4984C80.3007 78.4777 80.2541 78.457 80.2101 78.4363C79.3198 78.0584 78.2768 78.1852 77.3969 78.5864C76.7758 78.8685 76.2142 79.2826 75.5671 79.5C74.9201 79.7174 74.1204 79.6915 73.6572 79.192C73.1913 78.6899 73.2224 77.9031 73.4139 77.2458C73.903 75.5454 78.2639 71.2389 79.8711 74.0288C80.0678 74.3704 80.0833 74.7975 80.3085 75.1184C80.5207 75.4238 80.883 75.5842 81.2298 75.7136C81.6232 75.8612 82.0269 75.9906 82.4333 76.1018L82.4281 76.1044ZM91.6183 49.0308C91.6261 49.3543 91.6312 49.6752 91.6312 50.0013C91.6312 50.3636 91.6261 50.7233 91.6183 51.0805C91.6183 51.1556 91.6131 51.228 91.6105 51.3005C91.6028 51.5852 91.5924 51.8724 91.5769 52.1571C91.5743 52.2089 91.5691 52.2607 91.5665 52.3124C91.551 52.6178 91.5303 52.9232 91.507 53.226C91.507 53.2571 91.5018 53.2855 91.4992 53.3166C91.4734 53.6427 91.4449 53.9662 91.4112 54.2897C91.4112 54.3026 91.4087 54.3156 91.4061 54.3259C91.2611 55.7235 91.0489 57.1029 90.7694 58.4565C87.599 57.8716 84.2138 59.6107 80.8804 59.735C78.9342 59.8048 77.0165 59.3157 75.0806 59.0957C72.1328 58.7567 69.1513 59.0388 66.1958 59.3235C64.8759 59.4503 63.5353 59.5823 62.3059 60.0766C61.043 60.5864 59.9611 61.4534 58.7784 62.1315C55.7737 63.8526 52.0624 64.29 48.7419 63.3143C47.8283 63.0451 46.9329 62.6698 46.1746 62.0927C45.2403 61.3836 44.5544 60.4027 43.7004 59.5978C41.573 57.5921 38.5967 56.826 35.755 56.1324C31.4407 55.0765 27.1161 54.0205 22.7216 53.3658C20.3043 53.006 17.8301 52.7602 15.5837 51.7974C13.3373 50.8372 11.3005 48.9971 10.832 46.6006C19.3907 50.7052 29.8543 47.0561 38.9021 49.9314C41.5652 50.7777 44.0756 52.183 46.8475 52.5298C49.5416 52.8689 52.2436 52.1753 54.9248 51.7327C58.5248 51.1374 62.1843 50.9847 65.8335 50.9226C71.6048 50.8269 77.3814 50.9537 83.145 51.3031C84.4338 51.3807 86.2714 50.9123 86.0436 49.6415C85.8831 48.7383 84.7418 48.4484 83.8256 48.4122C81.2324 48.3087 78.6366 48.6865 76.0485 48.508C72.7255 48.2776 69.5421 47.1415 66.408 46.0131C64.2936 45.2522 62.1765 44.4913 60.0621 43.7304C59.3064 43.4587 58.4575 42.4416 59.1718 42.0715C63.5042 42.9385 67.7434 44.2661 71.7963 46.026C72.4434 46.3055 73.4139 46.4763 73.6597 45.8164C73.7995 45.4437 73.5769 45.04 73.3388 44.7216C71.3823 42.1077 67.9971 41.0259 64.7749 40.4928C61.5528 39.9596 58.1961 39.7992 55.2431 38.4042C53.0976 37.3923 51.2213 35.7514 48.9127 35.2028C46.1461 34.5454 42.9705 35.5107 40.5533 34.0097C39.7821 33.5309 39.1687 32.8399 38.4181 32.3274C37.1862 31.4889 35.6748 31.1913 34.2177 30.8859C28.612 29.7135 23.0891 28.1503 17.7033 26.2093C17.2245 26.0359 16.7276 25.8392 16.2566 25.5985C16.9088 24.6952 17.5972 23.8231 18.3193 22.9768C18.3322 22.9612 18.3452 22.9483 18.3581 22.9328C18.5082 22.7568 18.6635 22.5808 18.8162 22.4074C18.8654 22.3505 18.9145 22.2961 18.9663 22.2392C19.1086 22.0813 19.251 21.9234 19.3933 21.7682C19.458 21.6983 19.5201 21.631 19.5848 21.5611C19.7246 21.411 19.8644 21.2635 20.0067 21.116C20.0714 21.0487 20.1387 20.9814 20.2034 20.9141C20.3509 20.764 20.4958 20.6139 20.6459 20.4664C20.7754 20.5388 20.9073 20.6087 21.0393 20.6734C23.3556 21.7914 26.0757 21.4084 28.6379 21.6284C35.504 22.2159 41.1304 27.1021 47.4686 29.8067C53.8197 32.5164 60.8799 33.0159 67.4976 34.988C72.1302 36.3674 76.6438 38.4922 81.4757 38.6552C84.2604 38.751 86.996 38.1842 89.685 37.4026C89.7523 37.6122 89.817 37.8245 89.8791 38.0367C89.8998 38.1066 89.9205 38.1739 89.9412 38.2437C90.0007 38.4482 90.0603 38.6552 90.1172 38.8623C90.1327 38.9218 90.1483 38.9813 90.1664 39.0409C90.3424 39.6905 90.5028 40.3452 90.6503 41.0052C90.6736 41.1113 90.6969 41.2174 90.7202 41.3235C90.759 41.5021 90.7953 41.6833 90.8315 41.8644C90.8548 41.9887 90.8807 42.1129 90.904 42.2371C90.935 42.4079 90.9687 42.5787 90.9997 42.7495C91.0463 43.0187 91.0903 43.2879 91.1343 43.557C91.1576 43.6994 91.1757 43.8417 91.1964 43.984C91.2223 44.1549 91.2456 44.3257 91.2689 44.4965C91.287 44.6362 91.3051 44.7786 91.3232 44.9209C91.3465 45.1073 91.3672 45.2936 91.3879 45.4825C91.4009 45.6042 91.4138 45.7284 91.4268 45.85C91.4578 46.1503 91.4837 46.4531 91.507 46.7559C91.5122 46.8309 91.5174 46.906 91.5225 46.981C91.5406 47.2269 91.5562 47.4753 91.5691 47.7212C91.5743 47.8299 91.5795 47.9386 91.5846 48.0473C91.595 48.275 91.6028 48.5028 91.6105 48.7305C91.6131 48.8315 91.6157 48.9298 91.6183 49.0308ZM49.1172 8.37754C49.4096 8.37236 49.7047 8.36719 49.9997 8.36719C50.3206 8.36719 50.639 8.37236 50.9573 8.38013C51.0453 8.38013 51.1333 8.3853 51.2187 8.38789C51.4801 8.39566 51.7415 8.40601 52.0029 8.41895C52.065 8.42154 52.1271 8.42412 52.1892 8.42671C52.4998 8.44224 52.8078 8.46295 53.1157 8.48624C53.2011 8.49141 53.284 8.49918 53.3694 8.50694C53.6075 8.52506 53.8456 8.54835 54.0811 8.56906C54.1717 8.57682 54.2622 8.58717 54.3528 8.59494C54.6505 8.62599 54.9481 8.65964 55.2457 8.69587C55.3233 8.70622 55.401 8.71658 55.4786 8.72693C55.7064 8.75798 55.9367 8.78904 56.1645 8.82269C56.2732 8.83821 56.3819 8.85633 56.4931 8.87186C56.7261 8.90809 56.959 8.94691 57.1919 8.98832C57.3006 9.00644 57.4093 9.02714 57.5154 9.04526C57.7535 9.08926 57.9916 9.13325 58.2297 9.18243C58.354 9.20831 58.4808 9.23419 58.605 9.26007C58.781 9.2963 58.957 9.33512 59.133 9.37653C59.2546 9.405 59.3788 9.43088 59.5005 9.45935C59.7567 9.51887 60.0103 9.58099 60.264 9.64569C60.4063 9.68192 60.5486 9.72074 60.6884 9.75697C60.8307 9.7958 60.9731 9.83203 61.1128 9.87085C61.2629 9.91226 61.4131 9.95367 61.5632 9.99766C61.7029 10.0391 61.8427 10.0805 61.9798 10.1219C62.2412 10.1995 62.5026 10.2824 62.7614 10.3652C62.8675 10.3988 62.9762 10.435 63.0823 10.4687C63.2532 10.5256 63.424 10.5826 63.5948 10.6421C63.6802 10.6731 63.7682 10.7016 63.8536 10.7327C64.203 10.8569 64.5498 10.9837 64.894 11.1157C64.938 11.1338 64.982 11.1494 65.0286 11.1675C65.2175 11.2399 65.4064 11.315 65.5954 11.3926C65.6549 11.4159 65.7144 11.4418 65.7739 11.4651C66.3795 11.7135 66.9774 11.9749 67.5675 12.2493C67.6011 12.2648 67.6347 12.2803 67.6684 12.2959C69.1513 12.992 70.5877 13.7736 71.9697 14.6355C70.7378 14.7079 69.5059 14.6898 68.2766 14.5371C64.982 14.1256 61.9151 12.7928 58.8095 11.7006C57.3964 11.2037 55.9652 10.7353 54.4952 10.4299C53.1106 10.1426 51.0945 10.448 49.8393 9.90967C49.0887 9.58616 48.7989 9.01679 48.804 8.3853C48.905 8.38272 49.0085 8.38013 49.1094 8.37754H49.1172ZM35.988 16.1417C38.8064 17.4927 42.2329 18.1345 45.2299 19.0248C48.4158 19.972 51.6069 20.896 54.8057 21.7966C58.0046 22.6973 61.2112 23.572 64.423 24.4235C67.3449 25.1973 71.0665 26.8563 74.079 26.9054C69.7569 26.8356 65.4349 26.7657 61.1128 26.6958C59.001 26.6622 56.8684 26.6259 54.8187 26.1135C49.9531 24.8997 46.0245 21.1444 41.1615 19.9229C40.3126 19.7106 39.4171 19.5657 38.7028 19.0585C37.6003 18.2769 37.106 16.9104 35.988 16.1391V16.1417ZM54.6323 71.345C53.4237 70.9439 52.3885 69.5152 53.0459 68.4257C53.6437 67.437 55.0594 67.494 56.2111 67.5561C57.9062 67.6467 59.6894 67.4603 61.1206 66.5467C61.7262 66.1585 62.2464 65.6564 62.8054 65.2035C64.4074 63.9043 66.3485 63.0192 68.3749 62.6284C69.7518 62.3644 71.0769 62.0694 70.2849 63.6559C68.6363 66.9634 63.3153 68.9433 60.1889 70.3538C58.429 71.1483 56.4621 71.9532 54.6297 71.345H54.6323Z" fill="url(#paint3_linear_491_26)"/>
<path d="M52.58 91.5526C51.1695 91.2679 48.7005 90.0463 38.4751 84.9763C21.5983 76.6117 20.633 77.4114 20.0481 78.9151C17.0977 75.8586 14.6106 72.3518 12.698 68.5085C15.1385 69.2668 15.4983 72.1059 18.9404 72.3233C22.5844 72.5562 22.1444 74.0418 25.263 74.4765C41.3918 76.723 53.0717 90.9211 55.9807 91.2032C54.8601 91.3636 53.7239 91.4801 52.5774 91.55L52.58 91.5526ZM87.6482 61.2567C86.0979 60.9876 83.0026 61.148 77.0604 63.4488C74.7027 64.3624 66.7393 67.9184 63.2971 75.3513C60.6884 80.9855 61.1258 88.1337 65.3521 88.4417C65.66 88.4521 65.9344 88.4236 66.1828 88.3744C68.833 87.2564 71.3434 85.8666 73.6778 84.2491C71.6824 84.702 67.438 82.189 68.2714 78.7339C69.5965 73.2369 81.7112 66.9634 83.3675 69.4868C84.2319 70.8041 81.9726 73.7001 83.9938 73.726L84.1181 73.8658C85.9685 71.2234 87.5214 68.3584 88.7274 65.3174C88.3418 63.925 89.6022 61.5984 87.6508 61.2567H87.6482ZM13.9351 41.8748C15.2317 43.1352 16.0961 43.9012 18.8007 44.9597C19.7608 45.2755 21.2153 45.7543 23.586 46.0131C28.3894 46.5359 29.3289 45.5757 30.2347 44.6466C31.1379 43.7226 32.0696 42.7677 34.8854 43.5311C40.2453 44.983 45.0358 48.2828 50.7968 48.4433C52.5412 48.4924 54.8057 47.6461 55.564 45.982C57.1764 42.4493 50.5535 39.4316 50.4863 39.4032C50.3957 39.3644 50.274 39.3152 50.1809 39.2841C49.3604 39.0046 48.7212 39.222 48.1052 39.4342C47.2589 39.7241 45.2791 40.3996 41.9819 39.2298C37.1862 37.5294 33.726 33.3834 28.744 32.0272C27.8692 31.7891 26.1093 31.4992 24.1398 32.2343C21.0928 33.3713 19.0853 33.7163 18.1174 33.2695C15.8477 32.2239 16.3731 29.3563 14.6934 27.9277C12.9542 30.7047 11.5308 33.7017 10.48 36.8669C11.8051 38.4171 12.4521 40.4332 13.9351 41.8748ZM17.5946 63.4902C18.7385 63.6352 22.9597 64.365 29.1684 67.6907C47.0157 77.2535 49.759 78.721 52.2772 76.9119C52.7844 76.547 53.7317 75.5299 51.5655 73.9719C50.1006 72.9185 48.2993 73.0195 46.6689 72.5381C44.0498 71.7643 42.5357 69.3315 40.1521 68.1979C38.9901 67.6467 23.2081 61.28 17.3048 60.294C15.1049 59.9265 12.8481 60.9462 10.669 60.03H10.6612C10.0427 59.603 9.5794 59.0517 9.23001 58.4849C9.71139 60.8038 10.3843 63.0529 11.2306 65.2113C12.0148 64.704 12.5013 63.793 13.4563 63.5213C13.6815 63.4566 14.9444 63.1538 17.5894 63.4877L17.5946 63.4902ZM80.0522 78.7468C80.1118 78.708 80.1635 78.6718 80.2127 78.6381C80.2981 78.5502 80.3809 78.4596 80.4637 78.369C80.3292 78.4958 80.192 78.62 80.0522 78.7468ZM91.419 54.2172C89.3149 53.9222 66.1854 50.9097 54.6841 55.5009C48.8273 57.8379 46.3868 57.9492 40.3669 54.2793C36.402 51.8604 31.3467 50.5465 25.2009 50.3377C16.4093 50.0375 13.1923 46.717 11.4661 44.9339C10.2161 43.645 10.1074 43.6036 9.49917 43.381C9.25072 43.513 9.01779 43.7071 8.80557 43.9504C8.5183 45.9251 8.3656 47.9464 8.3656 50.0013C8.3656 50.3895 8.37078 50.7751 8.38372 51.1607C9.35424 53.2208 11.3263 55.1334 14.7555 56.1091C16.8389 56.7018 18.5962 56.6681 21.5181 56.3783C25.3484 56.0004 25.6719 55.9952 27.7864 55.9642C35.0304 55.8632 39.2981 59.2484 42.1242 61.4923C45.2843 64.0001 47.1891 65.4468 49.5882 66.0628C59.6324 68.6327 61.9384 55.3042 70.9164 55.6821C74.8813 55.8503 78.4062 58.0605 82.3893 58.1485C85.1145 58.2106 87.115 55.5889 89.9645 56.1091C90.508 56.2074 90.9298 56.4274 90.8833 57.8871C91.1136 56.6811 91.2973 55.4569 91.4216 54.2172H91.419ZM32.2715 12.4951C32.4113 12.5521 32.595 12.6349 32.7399 12.6815L59.6169 20.5569C66.5167 22.4911 70.0951 23.5004 70.3522 23.585C73.9366 24.7651 77.1717 26.8278 80.8623 27.7362C83.0828 28.2823 84.0223 27.0995 84.0482 26.041C83.0207 24.584 81.9053 23.1968 80.7044 21.8872C80.2981 21.6957 80.28 21.7009 80.2205 21.719C79.6744 22.9664 79.545 23.264 78.3312 23.0725H78.3208C71.4211 21.0331 66.4209 15.2773 59.4306 13.4139C56.0376 12.5081 52.0727 12.3657 46.8423 12.2648C42.0207 12.1716 36.5858 12.0655 34.9243 11.183C33.9796 11.5505 33.0531 11.9516 32.1421 12.3838C32.1861 12.4227 32.2327 12.4615 32.2715 12.4951ZM19.8333 23.0208C23.2159 23.7351 27.0229 21.8561 30.0535 24.7004C34.4325 28.8103 35.6101 29.9128 41.6325 31.3828C49.3449 33.2643 57.2851 34.1701 64.8319 36.7659C70.994 38.883 76.8637 41.8437 83.3158 43.117C89.1467 44.2687 90.4278 42.1983 90.4252 40.0321C89.9516 38.1014 89.3434 36.225 88.6083 34.4108C88.4453 34.9336 87.8837 35.6634 85.4613 35.2959C85.2672 35.2675 85.0058 35.2261 84.8117 35.1872C84.7754 35.1803 80.9244 34.0933 73.2586 31.9263C65.7247 29.7963 57.8234 29.993 50.2274 28.2616C44.9038 27.0478 41.0476 22.8577 35.9336 21.2169C31.7409 19.8711 27.23 20.852 23.0425 19.457C22.8303 19.3871 22.5352 19.2137 22.4524 19.0067C22.4291 18.9497 22.4239 18.8799 22.4265 18.8074C21.6294 19.5139 20.8582 20.249 20.1154 21.0124C19.5175 21.8872 19.2277 22.7076 19.8307 23.0208H19.8333Z" fill="url(#paint4_linear_491_26)"/>
<defs>
<linearGradient id="paint0_linear_491_26" x1="-12.8693" y1="33.1412" x2="115.291" y2="67.5106" gradientUnits="userSpaceOnUse">
<stop offset="0.22" stop-color="#E92554"/>
<stop offset="0.29" stop-color="#E32354" stop-opacity="0.97"/>
<stop offset="0.4" stop-color="#D22056" stop-opacity="0.87"/>
<stop offset="0.54" stop-color="#B71A5A" stop-opacity="0.71"/>
<stop offset="0.7" stop-color="#92135E" stop-opacity="0.5"/>
<stop offset="0.87" stop-color="#630964" stop-opacity="0.22"/>
<stop offset="1" stop-color="#3E0269" stop-opacity="0"/>
</linearGradient>
<linearGradient id="paint1_linear_491_26" x1="-7.97271" y1="34.4533" x2="110.208" y2="66.1467" gradientUnits="userSpaceOnUse">
<stop offset="0.22" stop-color="#E92554"/>
<stop offset="0.29" stop-color="#E32354" stop-opacity="0.97"/>
<stop offset="0.4" stop-color="#D22056" stop-opacity="0.87"/>
<stop offset="0.54" stop-color="#B71A5A" stop-opacity="0.71"/>
<stop offset="0.7" stop-color="#92135E" stop-opacity="0.5"/>
<stop offset="0.87" stop-color="#630964" stop-opacity="0.22"/>
<stop offset="1" stop-color="#3E0269" stop-opacity="0"/>
</linearGradient>
<linearGradient id="paint2_linear_491_26" x1="99.0125" y1="18.1434" x2="22.1808" y2="68.0852" gradientUnits="userSpaceOnUse">
<stop stop-color="#4B1D82"/>
<stop offset="0.36" stop-color="#942990"/>
<stop offset="0.61" stop-color="#C9329A"/>
<stop offset="0.73" stop-color="#D74B97"/>
<stop offset="0.99" stop-color="#FD8D90"/>
<stop offset="1" stop-color="#FF9090"/>
</linearGradient>
<linearGradient id="paint3_linear_491_26" x1="121.741" y1="43.381" x2="-4.22529" y2="55.0816" gradientUnits="userSpaceOnUse">
<stop stop-color="#121477"/>
<stop offset="0.15" stop-color="#391A7E"/>
<stop offset="0.47" stop-color="#9E2A91"/>
<stop offset="0.61" stop-color="#C9329A"/>
<stop offset="0.73" stop-color="#D74B97"/>
<stop offset="0.99" stop-color="#FD8D90"/>
<stop offset="1" stop-color="#FF9090"/>
</linearGradient>
<linearGradient id="paint4_linear_491_26" x1="96.5097" y1="13.225" x2="11.7456" y2="80.2246" gradientUnits="userSpaceOnUse">
<stop stop-color="#27187B"/>
<stop offset="0.21" stop-color="#5D2085"/>
<stop offset="0.61" stop-color="#C9329A"/>
<stop offset="0.73" stop-color="#D74B97"/>
<stop offset="0.99" stop-color="#FD8D90"/>
<stop offset="1" stop-color="#FF9090"/>
</linearGradient>
</defs>
</svg>
