<?xml version="1.0" encoding="UTF-8"?><svg xmlns="http://www.w3.org/2000/svg" xmlns:xlink="http://www.w3.org/1999/xlink" viewBox="0 0 386.39 386.39"><defs><style>.i{fill:url(#d);}.i,.j{mix-blend-mode:screen;opacity:.2;}.k{isolation:isolate;}.l{fill:url(#f);}.m{fill:url(#g);}.j{fill:url(#e);}.n{fill:url(#h);}</style><linearGradient id="d" x1="-49.73" y1="128.05" x2="445.47" y2="260.85" gradientTransform="translate(193.2 -80.02) rotate(45)" gradientUnits="userSpaceOnUse"><stop offset=".22" stop-color="#e92554"/><stop offset=".29" stop-color="#e32354" stop-opacity=".97"/><stop offset=".4" stop-color="#d22056" stop-opacity=".87"/><stop offset=".54" stop-color="#b71a5a" stop-opacity=".71"/><stop offset=".7" stop-color="#92135e" stop-opacity=".5"/><stop offset=".87" stop-color="#630964" stop-opacity=".22"/><stop offset="1" stop-color="#3e0269" stop-opacity="0"/></linearGradient><linearGradient id="e" x1="-30.81" y1="133.12" x2="425.83" y2="255.58" gradientTransform="translate(193.2 -80.02) rotate(45)" xlink:href="#d"/><linearGradient id="f" x1="382.57" y1="70.1" x2="85.7" y2="263.07" gradientTransform="translate(193.2 -80.02) rotate(45)" gradientUnits="userSpaceOnUse"><stop offset="0" stop-color="#4b1d82"/><stop offset=".36" stop-color="#942990"/><stop offset=".61" stop-color="#c9329a"/><stop offset=".73" stop-color="#d74b97"/><stop offset=".99" stop-color="#fd8d90"/><stop offset="1" stop-color="#ff9090"/></linearGradient><linearGradient id="g" x1="470.4" y1="167.62" x2="-16.32" y2="212.83" gradientTransform="matrix(1, 0, 0, 1, 0, 0)" gradientUnits="userSpaceOnUse"><stop offset="0" stop-color="#121477"/><stop offset=".15" stop-color="#391a7e"/><stop offset=".47" stop-color="#9e2a91"/><stop offset=".61" stop-color="#c9329a"/><stop offset=".73" stop-color="#d74b97"/><stop offset=".99" stop-color="#fd8d90"/><stop offset="1" stop-color="#ff9090"/></linearGradient><linearGradient id="h" x1="372.91" y1="51.1" x2="45.39" y2="309.98" gradientTransform="matrix(1, 0, 0, 1, 0, 0)" gradientUnits="userSpaceOnUse"><stop offset="0" stop-color="#27187b"/><stop offset=".21" stop-color="#5d2085"/><stop offset=".61" stop-color="#c9329a"/><stop offset=".73" stop-color="#d74b97"/><stop offset=".99" stop-color="#fd8d90"/><stop offset="1" stop-color="#ff9090"/></linearGradient></defs><g class="k"><g id="a"/><g id="b"><g id="c"><g><circle class="i" cx="193.2" cy="193.2" r="193.2" transform="translate(-80.02 193.2) rotate(-45)"/><circle class="j" cx="193.2" cy="193.2" r="178.15" transform="translate(-80.02 193.2) rotate(-45)"/><circle class="l" cx="193.2" cy="193.2" r="160.87" transform="translate(-80.02 193.2) rotate(-45)"/><path class="m" d="M77.63,266.45c15.69,6.51,29.7,18.18,46.61,19.82,7.37,.72,15.55-.35,21.46,4.11,5.67,4.28,7.44,12.5,13.4,16.37,7.89,5.13,18.98,.22,27.55,4.09,6.33,2.86,9.65,9.68,13.89,15.19,8.3,10.81,20.59,16.91,33.07,22.91-12.91,3.34-26.45,5.12-40.41,5.12-65.48,0-121.82-39.13-146.92-95.27,10.73,1.5,21.39,3.53,31.36,7.66Zm107.83,87.42c-6.54-4.82-13.99-8.4-21.87-10.38-5.67-1.42-11.54-2.05-17.05-3.99-4.57-1.61-8.78-4.08-13-6.47-12.21-6.91-26.06-16.06-39.6-19.96-3.75-1.08-5.78-.44-6.66,1.18,26.49,23.2,60.66,37.84,98.19,39.62Zm-38.58-103.55c-21.75-10.38-46.8-12.84-67.87-24.54,16.21-.57,36.24-2.21,51.21,4.87,5.36,2.54,10.12,6.18,14.83,9.79,7.1,5.44,14.2,10.88,21.3,16.32-6.91,.25-13.23-3.47-19.47-6.44Zm171.62,43.74h0c-2.57,3.19-5.25,6.27-8.05,9.25h0c-.17-.08-.35-.16-.52-.24-3.44-1.46-7.47-.97-10.87,.58-2.4,1.09-4.57,2.69-7.07,3.53-2.5,.84-5.59,.74-7.38-1.19-1.8-1.94-1.68-4.98-.94-7.52,1.89-6.57,18.74-23.21,24.95-12.43,.76,1.32,.82,2.97,1.69,4.21,.82,1.18,2.22,1.8,3.56,2.3,1.52,.57,3.08,1.07,4.65,1.5Zm35.51-104.61c.03,1.25,.05,2.49,.05,3.75,0,1.4-.02,2.79-.05,4.17,0,.29-.02,.57-.03,.85-.03,1.1-.07,2.21-.13,3.31-.01,.2-.03,.4-.04,.6-.06,1.18-.14,2.36-.23,3.53,0,.12-.02,.23-.03,.35-.1,1.26-.21,2.51-.34,3.76,0,.05-.01,.1-.02,.14-.56,5.4-1.38,10.73-2.46,15.96-12.25-2.26-25.33,4.46-38.21,4.94-7.52,.27-14.93-1.62-22.41-2.47-11.39-1.31-22.91-.22-34.33,.88-5.1,.49-10.28,1-15.03,2.91-4.88,1.97-9.06,5.32-13.63,7.94-11.61,6.65-25.95,8.34-38.78,4.57-3.53-1.04-6.99-2.49-9.92-4.72-3.61-2.74-6.26-6.53-9.56-9.64-8.22-7.75-19.72-10.71-30.7-13.39-16.67-4.08-33.38-8.16-50.36-10.69-9.34-1.39-18.9-2.34-27.58-6.06-8.68-3.71-16.55-10.82-18.36-20.08,33.07,15.86,73.5,1.76,108.46,12.87,10.29,3.27,19.99,8.7,30.7,10.04,10.41,1.31,20.85-1.37,31.21-3.08,13.91-2.3,28.05-2.89,42.15-3.13,22.3-.37,44.62,.12,66.89,1.47,4.98,.3,12.08-1.51,11.2-6.42-.62-3.49-5.03-4.61-8.57-4.75-10.02-.4-20.05,1.06-30.05,.37-12.84-.89-25.14-5.28-37.25-9.64-8.17-2.94-16.35-5.88-24.52-8.82-2.92-1.05-6.2-4.98-3.44-6.41,16.74,3.35,33.12,8.48,48.78,15.28,2.5,1.08,6.25,1.74,7.2-.81,.54-1.44-.32-3-1.24-4.23-7.56-10.1-20.64-14.28-33.09-16.34-12.45-2.06-25.42-2.68-36.83-8.07-8.29-3.91-15.54-10.25-24.46-12.37-10.69-2.54-22.96,1.19-32.3-4.61-2.98-1.85-5.35-4.52-8.25-6.5-4.76-3.24-10.6-4.39-16.23-5.57-21.66-4.53-43-10.57-63.81-18.07-1.85-.67-3.77-1.43-5.59-2.36h0c2.52-3.49,5.18-6.86,7.97-10.13,.05-.06,.1-.11,.15-.17,.58-.68,1.18-1.36,1.77-2.03,.19-.22,.38-.43,.58-.65,.55-.61,1.1-1.22,1.65-1.82,.25-.27,.49-.53,.74-.8,.54-.58,1.08-1.15,1.63-1.72,.25-.26,.51-.52,.76-.78,.57-.58,1.13-1.16,1.71-1.73h0c.5,.28,1.01,.55,1.52,.8,8.95,4.32,19.46,2.84,29.36,3.69,26.53,2.27,48.27,21.15,72.76,31.6,24.54,10.47,51.82,12.4,77.39,20.02,17.9,5.33,35.34,13.54,54.01,14.17,10.76,.37,21.33-1.82,31.72-4.84,.26,.81,.51,1.63,.75,2.45,.08,.27,.16,.53,.24,.8,.23,.79,.46,1.59,.68,2.39,.06,.23,.12,.46,.19,.69,.68,2.51,1.3,5.04,1.87,7.59,.09,.41,.18,.82,.27,1.23,.15,.69,.29,1.39,.43,2.09,.09,.48,.19,.96,.28,1.44,.12,.66,.25,1.32,.37,1.98,.18,1.04,.35,2.08,.52,3.12,.09,.55,.16,1.1,.24,1.65,.1,.66,.19,1.32,.28,1.98,.07,.54,.14,1.09,.21,1.64,.09,.72,.17,1.44,.25,2.17,.05,.47,.1,.95,.15,1.42,.12,1.16,.22,2.33,.31,3.5,.02,.29,.04,.58,.06,.87,.07,.95,.13,1.91,.18,2.86,.02,.42,.04,.84,.06,1.26,.04,.88,.07,1.76,.1,2.64,.01,.39,.02,.77,.03,1.16ZM189.79,32.37c1.13-.02,2.27-.04,3.41-.04,1.24,0,2.47,.02,3.7,.05,.34,0,.68,.02,1.01,.03,1.01,.03,2.02,.07,3.03,.12,.24,.01,.48,.02,.72,.03,1.2,.06,2.39,.14,3.58,.23,.33,.02,.65,.05,.98,.08,.92,.07,1.84,.16,2.75,.24,.35,.03,.7,.07,1.05,.1,1.15,.12,2.3,.25,3.45,.39,.3,.04,.6,.08,.9,.12,.88,.12,1.77,.24,2.65,.37,.42,.06,.84,.13,1.27,.19,.9,.14,1.8,.29,2.7,.45,.42,.07,.84,.15,1.25,.22,.92,.17,1.84,.34,2.76,.53,.48,.1,.97,.2,1.45,.3,.68,.14,1.36,.29,2.04,.45,.47,.11,.95,.21,1.42,.32,.99,.23,1.97,.47,2.95,.72,.55,.14,1.1,.29,1.64,.43,.55,.15,1.1,.29,1.64,.44,.58,.16,1.16,.32,1.74,.49,.54,.16,1.08,.32,1.61,.48,1.01,.3,2.02,.62,3.02,.94,.41,.13,.83,.27,1.24,.4,.66,.22,1.32,.44,1.98,.67,.33,.12,.67,.23,1,.35,1.35,.48,2.69,.97,4.02,1.48,.17,.07,.34,.13,.52,.2,.73,.28,1.46,.57,2.19,.87,.23,.09,.46,.19,.69,.28,2.34,.96,4.65,1.97,6.93,3.03,.13,.06,.26,.12,.39,.18,5.73,2.69,11.28,5.71,16.62,9.04-4.76,.28-9.52,.21-14.27-.38-12.73-1.59-24.58-6.74-36.58-10.96-5.46-1.92-10.99-3.73-16.67-4.91-5.35-1.11-13.14,.07-17.99-2.01-2.9-1.25-4.02-3.45-4-5.89h0c.39-.01,.79-.02,1.18-.03Zm-50.73,30c10.89,5.22,24.13,7.7,35.71,11.14,12.31,3.66,24.64,7.23,37,10.71,12.36,3.48,24.75,6.86,37.16,10.15,11.29,2.99,25.67,9.4,37.31,9.59-16.7-.27-33.4-.54-50.1-.81-8.16-.13-16.4-.27-24.32-2.25-18.8-4.69-33.98-19.2-52.77-23.92-3.28-.82-6.74-1.38-9.5-3.34-4.26-3.02-6.17-8.3-10.49-11.28Zm72.04,213.3c-4.67-1.55-8.67-7.07-6.13-11.28,2.31-3.82,7.78-3.6,12.23-3.36,6.55,.35,13.44-.37,18.97-3.9,2.34-1.5,4.35-3.44,6.51-5.19,6.19-5.02,13.69-8.44,21.52-9.95,5.32-1.02,10.44-2.16,7.38,3.97-6.37,12.78-26.93,20.43-39.01,25.88-6.8,3.07-14.4,6.18-21.48,3.83Z"/><path class="n" d="M203.17,353.75c-5.45-1.1-14.99-5.82-54.5-25.41-65.21-32.32-68.94-29.23-71.2-23.42-11.4-11.81-21.01-25.36-28.4-40.21,9.43,2.93,10.82,13.9,24.12,14.74,14.08,.9,12.38,6.64,24.43,8.32,62.32,8.68,107.45,63.54,118.69,64.63-4.33,.62-8.72,1.07-13.15,1.34Zm135.5-117.06c-5.99-1.04-17.95-.42-40.91,8.47-9.11,3.53-39.88,17.27-53.18,45.99-10.08,21.77-8.39,49.39,7.94,50.58,1.19,.04,2.25-.07,3.21-.26,10.24-4.32,19.94-9.69,28.96-15.94-7.71,1.75-24.11-7.96-20.89-21.31,5.12-21.24,51.93-45.48,58.33-35.73,3.34,5.09-5.39,16.28,2.42,16.38l.48,.54c7.15-10.21,13.15-21.28,17.81-33.03-1.49-5.38,3.38-14.37-4.16-15.69ZM53.85,161.8c5.01,4.87,8.35,7.83,18.8,11.92,3.71,1.22,9.33,3.07,18.49,4.07,18.56,2.02,22.19-1.69,25.69-5.28,3.49-3.57,7.09-7.26,17.97-4.31,20.71,5.61,39.22,18.36,61.48,18.98,6.74,.19,15.49-3.08,18.42-9.51h0c6.23-13.65-19.36-25.31-19.62-25.42-.35-.15-.82-.34-1.18-.46-3.17-1.08-5.64-.24-8.02,.58-3.27,1.12-10.92,3.73-23.66-.79-18.53-6.57-31.9-22.59-51.15-27.83-3.38-.92-10.18-2.04-17.79,.8q-17.66,6.59-23.27,4c-8.77-4.04-6.74-15.12-13.23-20.64-6.72,10.73-12.22,22.31-16.28,34.54,5.12,5.99,7.62,13.78,13.35,19.35Zm14.14,83.52c4.42,.56,20.73,3.38,44.72,16.23,68.96,36.95,79.56,42.62,89.29,35.63,1.96-1.41,5.62-5.34-2.75-11.36-5.66-4.07-12.62-3.68-18.92-5.54-10.12-2.99-15.97-12.39-25.18-16.77-4.49-2.13-65.47-26.73-88.28-30.54-8.5-1.42-17.22,2.52-25.64-1.02h-.03c-2.39-1.65-4.18-3.78-5.53-5.97,1.86,8.96,4.46,17.65,7.73,25.99,3.03-1.96,4.91-5.48,8.6-6.53,.87-.25,5.75-1.42,15.97-.13Zm241.33,58.95c.23-.15,.43-.29,.62-.42,.33-.34,.65-.69,.97-1.04-.52,.49-1.05,.97-1.59,1.46Zm43.92-94.78c-8.13-1.14-97.5-12.78-141.94,4.96-22.63,9.03-32.06,9.46-55.32-4.72q-22.98-14.02-58.6-15.23c-33.97-1.16-46.4-13.99-53.07-20.88-4.83-4.98-5.25-5.14-7.6-6-.96,.51-1.86,1.26-2.68,2.2-1.11,7.63-1.7,15.44-1.7,23.38,0,1.5,.02,2.99,.07,4.48,3.75,7.96,11.37,15.35,24.62,19.12,8.05,2.29,14.84,2.16,26.13,1.04,14.8-1.46,16.05-1.48,24.22-1.6,27.99-.39,44.48,12.69,55.4,21.36,12.21,9.69,19.57,15.28,28.84,17.66,38.81,9.93,47.72-41.57,82.41-40.11,15.32,.65,28.94,9.19,44.33,9.53,10.53,.24,18.26-9.89,29.27-7.88,2.1,.38,3.73,1.23,3.55,6.87,.89-4.66,1.6-9.39,2.08-14.18ZM124.7,48.28c.54,.22,1.25,.54,1.81,.72l103.85,30.43q39.99,11.21,41.48,11.7c13.85,4.56,26.35,12.53,40.61,16.04,8.58,2.11,12.21-2.46,12.31-6.55-3.97-5.63-8.28-10.99-12.92-16.05-1.57-.74-1.64-.72-1.87-.65-2.11,4.82-2.61,5.97-7.3,5.23h-.04c-26.66-7.88-45.98-30.12-72.99-37.32-13.11-3.5-28.43-4.05-48.64-4.44-18.63-.36-39.63-.77-46.05-4.18-3.65,1.42-7.23,2.97-10.75,4.64,.17,.15,.35,.3,.5,.43Zm-48.06,40.67c13.07,2.76,27.78-4.5,39.49,6.49,16.92,15.88,21.47,20.14,44.74,25.82,29.8,7.27,60.48,10.77,89.64,20.8,23.81,8.18,46.49,19.62,71.42,24.54,22.53,4.45,27.48-3.55,27.47-11.92-1.83-7.46-4.18-14.71-7.02-21.72-.63,2.02-2.8,4.84-12.16,3.42-.75-.11-1.76-.27-2.51-.42q-.21-.04-44.64-12.6c-29.11-8.23-59.64-7.47-88.99-14.16-20.57-4.69-35.47-20.88-55.23-27.22-16.2-5.2-33.63-1.41-49.81-6.8-.82-.27-1.96-.94-2.28-1.74-.09-.22-.11-.49-.1-.77-3.08,2.73-6.06,5.57-8.93,8.52-2.31,3.38-3.43,6.55-1.1,7.76Z"/></g></g></g></g></svg>