<svg width="100" height="100" viewBox="0 0 100 100" fill="none" xmlns="http://www.w3.org/2000/svg">
<path style="mix-blend-mode:screen" opacity="0.2" d="M85.3579 85.3553C104.884 65.8291 104.884 34.1709 85.3579 14.6447C65.8317 -4.88155 34.1734 -4.88156 14.6472 14.6447C-4.87899 34.1709 -4.87899 65.8291 14.6472 85.3553C34.1734 104.882 65.8317 104.882 85.3579 85.3553Z" fill="url(#paint0_linear_491_32)"/>
<path style="mix-blend-mode:screen" opacity="0.2" d="M50.0063 93.7898C74.1908 93.7898 93.7961 74.1844 93.7961 50C93.7961 25.8156 74.1908 6.21021 50.0063 6.21021C25.8219 6.21021 6.21655 25.8156 6.21655 50C6.21655 74.1844 25.8219 93.7898 50.0063 93.7898Z" fill="url(#paint1_linear_491_32)"/>
<path d="M50.0063 88.5034C71.2712 88.5034 88.5097 71.2649 88.5097 50C88.5097 28.7352 71.2712 11.4966 50.0063 11.4966C28.7415 11.4966 11.5029 28.7352 11.5029 50C11.5029 71.2649 28.7415 88.5034 50.0063 88.5034Z" fill="url(#paint2_linear_491_32)"/>
<path d="M22.3426 67.5323C26.0995 69.0926 29.4561 71.8846 33.5004 72.2747C35.266 72.4492 37.2266 72.1926 38.6329 73.2601C39.9878 74.2866 40.4087 76.2472 41.8355 77.1813C43.7242 78.4131 46.3828 77.2326 48.4255 78.1564C49.9447 78.8442 50.7351 80.4763 51.7513 81.7902C53.7427 84.3769 56.6784 85.8345 59.6655 87.2716C56.5758 88.0723 53.3321 88.4931 49.996 88.4931C34.3216 88.4931 20.8336 79.1316 14.8287 65.6847C17.3949 66.0439 19.9509 66.5264 22.3323 67.5221L22.3426 67.5323ZM48.1484 88.4623C46.5881 87.3127 44.802 86.4504 42.9133 85.9782C41.5583 85.6395 40.1521 85.4855 38.8279 85.0236C37.7296 84.6438 36.7236 84.0484 35.7177 83.4736C32.7922 81.821 29.4766 79.6243 26.2432 78.7005C25.3502 78.4438 24.8575 78.5978 24.6522 78.9776C30.9958 84.5309 39.1666 88.0312 48.1586 88.4623H48.1484ZM38.91 63.6727C33.7057 61.1887 27.7111 60.6036 22.6608 57.8013C26.5409 57.6678 31.3346 57.2675 34.917 58.9715C36.2001 59.5771 37.3395 60.4496 38.4686 61.3118C40.1726 62.6155 41.8663 63.9191 43.5702 65.2227C41.9176 65.2843 40.3984 64.3913 38.91 63.683V63.6727ZM79.9899 74.1429C79.374 74.9025 78.7376 75.6415 78.0601 76.3601C78.0601 76.3601 77.978 76.319 77.9369 76.2985C77.1157 75.9495 76.1508 76.0624 75.3296 76.4422C74.7548 76.7091 74.2313 77.0889 73.6359 77.2839C73.0406 77.4892 72.3015 77.4584 71.8704 76.9965C71.4393 76.5346 71.4701 75.8058 71.6446 75.2002C72.0962 73.6296 76.1303 69.6469 77.6187 72.2234C77.8035 72.5416 77.8137 72.9316 78.019 73.2293C78.2141 73.5167 78.5528 73.6604 78.871 73.7836C79.2405 73.9171 79.6101 74.0402 79.9796 74.1429H79.9899ZM88.4892 49.107C88.4892 49.4046 88.4994 49.7023 88.4994 50C88.4994 50.3387 88.4994 50.6672 88.4892 50.9957C88.4892 51.0675 88.4892 51.1291 88.4892 51.201C88.4892 51.4679 88.4686 51.7245 88.4584 51.9914C88.4584 52.0427 88.4584 52.0838 88.4584 52.1351C88.4378 52.4225 88.4276 52.6996 88.407 52.9768C88.407 53.0076 88.407 53.0281 88.407 53.0589C88.3865 53.3566 88.3557 53.6645 88.3249 53.9622V53.993C88.1915 55.2864 87.9862 56.5592 87.7296 57.8115C84.7938 57.2675 81.663 58.8791 78.5836 58.992C76.7873 59.0536 75.0114 58.6019 73.2151 58.3966C70.4846 58.0784 67.7337 58.3453 65.0032 58.6019C63.7817 58.7148 62.5397 58.838 61.4105 59.2999C60.2403 59.7721 59.2446 60.5728 58.1463 61.1989C55.3645 62.79 51.9361 63.1903 48.8669 62.2973C48.0252 62.0509 47.1937 61.7019 46.4957 61.1681C45.6335 60.5112 44.9971 59.6079 44.2067 58.8585C42.2358 57.0006 39.4848 56.2923 36.8571 55.6559C32.864 54.6808 28.871 53.7056 24.8061 53.1C22.5684 52.7715 20.2793 52.5354 18.2058 51.6526C16.1324 50.7699 14.2436 49.0659 13.8125 46.8487C21.7267 50.6467 31.4064 47.2695 39.7723 49.9281C42.2358 50.7083 44.5557 52.0119 47.1219 52.3301C49.6162 52.6381 52.1106 52.0016 54.5947 51.591C57.9205 51.0367 61.3079 50.9033 64.685 50.8417C70.0227 50.7493 75.3604 50.8725 80.6982 51.1907C81.8889 51.2626 83.5928 50.8314 83.3773 49.651C83.2336 48.8195 82.1763 48.5424 81.3243 48.5116C78.9223 48.4192 76.5204 48.7682 74.1287 48.604C71.0595 48.3884 68.1135 47.3414 65.2085 46.2944C63.2479 45.5861 61.2976 44.8881 59.337 44.1798C58.639 43.9335 57.8486 42.9891 58.5158 42.6504C62.5191 43.451 66.4403 44.6828 70.187 46.3047C70.7823 46.5613 71.6856 46.7255 71.9115 46.1096C72.0449 45.7606 71.8396 45.3911 71.6138 45.0934C69.8072 42.6709 66.6764 41.6752 63.6893 41.1825C60.7125 40.6898 57.6023 40.5358 54.8718 39.2527C52.8907 38.3186 51.156 36.7994 49.0209 36.2862C46.4649 35.6805 43.5292 36.5736 41.2915 35.1878C40.5832 34.7464 40.0084 34.11 39.3206 33.6378C38.1812 32.8577 36.7852 32.5908 35.4302 32.3034C30.2465 31.2153 25.1346 29.7783 20.1562 27.9819C19.7148 27.8177 19.2529 27.6432 18.8217 27.4174C19.4274 26.5859 20.0638 25.775 20.731 24.9949L20.7618 24.9538C20.9055 24.7896 21.0389 24.6253 21.1826 24.4714C21.2237 24.42 21.275 24.3687 21.3161 24.3174C21.4495 24.1737 21.583 24.03 21.7164 23.8863C21.778 23.8247 21.8293 23.7631 21.8909 23.6912C22.0244 23.5578 22.1475 23.4141 22.281 23.2806C22.3426 23.219 22.4042 23.1575 22.4658 23.0959C22.5992 22.9522 22.7326 22.8187 22.8763 22.6853C22.9995 22.7571 23.1124 22.8187 23.2356 22.8803C25.381 23.9171 27.8958 23.5578 30.267 23.7631C36.621 24.3071 41.8252 28.8236 47.6864 31.3283C53.5579 33.8329 60.0864 34.2948 66.2145 36.1219C70.4949 37.3948 74.6727 39.3656 79.1482 39.5093C81.7246 39.6017 84.2498 39.0782 86.7441 38.3494C86.8057 38.5444 86.8673 38.7395 86.9289 38.9345C86.9494 38.9961 86.97 39.0577 86.9905 39.1295C87.0418 39.3246 87.1034 39.5093 87.1547 39.7044C87.165 39.7557 87.1855 39.8173 87.1958 39.8686C87.36 40.464 87.5037 41.0696 87.6474 41.6855C87.668 41.7881 87.6885 41.8805 87.709 41.9832C87.7398 42.1474 87.7809 42.3116 87.8117 42.4861C87.8322 42.599 87.8527 42.712 87.8733 42.8351C87.9041 42.9891 87.9349 43.1533 87.9657 43.3073C88.0067 43.5537 88.0478 43.8 88.0888 44.0567C88.1094 44.1901 88.1299 44.3235 88.1504 44.457C88.171 44.611 88.1915 44.7752 88.212 44.9292C88.2325 45.0626 88.2428 45.1858 88.2633 45.3192C88.2839 45.4937 88.3044 45.6682 88.3249 45.8427C88.3352 45.9556 88.3455 46.0686 88.366 46.1815C88.3968 46.4586 88.4173 46.7358 88.4378 47.0232C88.4378 47.095 88.4378 47.1566 88.4481 47.2285C88.4686 47.4543 88.4789 47.6801 88.4892 47.9162C88.4892 48.0189 88.4892 48.1215 88.4994 48.2139C88.4994 48.4192 88.52 48.6348 88.52 48.8401C88.52 48.9325 88.52 49.0248 88.52 49.1172L88.4892 49.107ZM49.1851 11.5069C49.452 11.5069 49.7291 11.5069 50.0063 11.5069C50.304 11.5069 50.6017 11.5069 50.8891 11.5171C50.9712 11.5171 51.0533 11.5171 51.1354 11.5171C51.3818 11.5171 51.6179 11.5377 51.8642 11.5479C51.9258 11.5479 51.9771 11.5479 52.0387 11.5479C52.3262 11.5582 52.6136 11.5787 52.901 11.5993C52.9831 11.5993 53.055 11.6095 53.1371 11.6198C53.3526 11.6403 53.5785 11.6608 53.794 11.6814C53.8761 11.6814 53.9583 11.7019 54.0404 11.7019C54.3175 11.7327 54.5947 11.7635 54.8616 11.7943C54.9334 11.7943 55.0053 11.8148 55.0771 11.8251C55.2927 11.8559 55.498 11.8867 55.7135 11.9175C55.8162 11.9277 55.9188 11.9483 56.0215 11.9585C56.2371 11.9893 56.4526 12.0304 56.6682 12.0612C56.7708 12.0817 56.8735 12.092 56.9659 12.1125C57.1814 12.1536 57.4072 12.1946 57.6228 12.2357C57.7357 12.2562 57.8589 12.287 57.9718 12.3075C58.136 12.3383 58.3003 12.3794 58.4645 12.4102C58.5774 12.4307 58.6903 12.4615 58.8033 12.482C59.0394 12.5334 59.2754 12.5949 59.5115 12.6565C59.645 12.6873 59.7784 12.7284 59.9016 12.7592C60.035 12.79 60.1685 12.831 60.2917 12.8618C60.4354 12.9029 60.5688 12.9337 60.7125 12.9747C60.846 13.0158 60.9691 13.0466 61.1026 13.0877C61.3489 13.1595 61.585 13.2314 61.8211 13.3135C61.9238 13.3443 62.0162 13.3751 62.1188 13.4059C62.2728 13.4572 62.437 13.5085 62.591 13.5701C62.6731 13.6009 62.7552 13.6214 62.8271 13.6522C63.1453 13.7651 63.4738 13.8883 63.792 14.0012C63.833 14.0218 63.8741 14.032 63.9151 14.0525C64.0896 14.1244 64.2642 14.186 64.4387 14.2578C64.49 14.2784 64.5516 14.2989 64.6029 14.3297C65.1572 14.5555 65.7115 14.8019 66.2658 15.0585L66.3582 15.0996C67.7337 15.7462 69.0578 16.4648 70.3307 17.2654C69.1913 17.3373 68.0519 17.3168 66.9125 17.1731C63.8638 16.7933 61.0307 15.5615 58.1566 14.5453C56.8529 14.0833 55.5288 13.6522 54.1636 13.3648C52.8805 13.0979 51.0225 13.3853 49.8626 12.8824C49.1646 12.5847 48.8977 12.0612 48.908 11.4761C49.0003 11.4761 49.0927 11.4761 49.1954 11.4761L49.1851 11.5069ZM37.0418 18.682C39.6491 19.9343 42.8209 20.5194 45.5924 21.3508C48.5384 22.2234 51.4947 23.0856 54.451 23.9171C57.4072 24.7485 60.3738 25.5594 63.3403 26.3498C66.04 27.0684 69.489 28.5978 72.2707 28.6491C68.2777 28.5876 64.2744 28.5157 60.2814 28.4541C58.3311 28.4233 56.3602 28.3925 54.4612 27.9203C49.9652 26.8015 46.3315 23.3217 41.8355 22.1926C41.0554 21.9975 40.2239 21.8641 39.567 21.3919C38.5507 20.6734 38.0888 19.4005 37.0521 18.6923L37.0418 18.682ZM54.2867 69.7393C53.1679 69.3697 52.2132 68.0456 52.8189 67.0396C53.3732 66.126 54.6768 66.1774 55.7443 66.239C57.3149 66.3211 58.9572 66.1466 60.2814 65.3049C60.846 64.9456 61.3284 64.4837 61.8417 64.0628C63.3198 62.8618 65.1161 62.0406 66.9946 61.6814C68.2674 61.435 69.489 61.1681 68.7602 62.636C67.2307 65.6949 62.3138 67.5221 59.4192 68.836C57.7973 69.5648 55.9702 70.3141 54.2765 69.7495L54.2867 69.7393Z" fill="url(#paint3_linear_491_32)"/>
<path d="M52.3878 88.4315C51.0841 88.1646 48.8053 87.0355 39.3412 82.3445C23.7284 74.6048 22.8456 75.3439 22.3015 76.7399C19.5711 73.917 17.2718 70.6733 15.5062 67.1115C17.7645 67.8095 18.093 70.4373 21.2853 70.6426C24.6522 70.8581 24.2519 72.2336 27.1363 72.6339C42.0511 74.7074 52.86 87.8464 55.5493 88.103C54.5126 88.257 53.4656 88.3597 52.398 88.4212L52.3878 88.4315ZM84.8246 60.4085C83.3876 60.1622 80.5237 60.3059 75.032 62.4307C72.8456 63.2724 65.4857 66.5674 62.3036 73.4346C59.8914 78.6491 60.2917 85.2597 64.2026 85.5368C64.49 85.5368 64.7364 85.5163 64.9725 85.4752C67.4258 84.4385 69.7456 83.1554 71.9012 81.6567C70.0536 82.0776 66.1324 79.7475 66.9022 76.5551C68.1238 71.474 79.333 65.6641 80.8624 68.0045C81.6631 69.226 79.569 71.9051 81.4372 71.9257L81.5502 72.0591C83.2644 69.6161 84.7015 66.9677 85.8101 64.1552C85.4508 62.8721 86.621 60.7165 84.8144 60.3983L84.8246 60.4085ZM16.6559 42.4861C17.8569 43.6563 18.6575 44.3543 21.1519 45.3397C22.0449 45.6374 23.3896 46.0788 25.576 46.3149C30.0207 46.7974 30.8829 45.9146 31.7247 45.0523C32.5561 44.2003 33.4184 43.3176 36.0256 44.0156C40.9835 45.3603 45.418 48.4089 50.7454 48.5629C52.357 48.604 54.451 47.8238 55.1593 46.2841C56.6477 43.0199 50.5298 40.2279 50.458 40.1971C50.3759 40.156 50.263 40.1149 50.1808 40.0842C49.4212 39.8275 48.8361 40.0226 48.2613 40.2176C47.4812 40.4845 45.6438 41.1106 42.5951 40.0328C38.1607 38.4623 34.9581 34.6233 30.3492 33.3709C29.5383 33.1554 27.9164 32.8782 26.0893 33.566C23.2699 34.6198 21.4119 34.9381 20.5155 34.5206C18.4214 33.5557 18.9039 30.9074 17.3539 29.5832C15.7423 32.1494 14.4284 34.9209 13.4533 37.8464C14.6748 39.2835 15.2804 41.1414 16.6456 42.4759L16.6559 42.4861ZM20.0433 62.482C21.1006 62.6155 25.0012 63.2929 30.7495 66.3724C47.2554 75.2207 49.7908 76.5756 52.1209 74.9025C52.5931 74.5637 53.4656 73.6194 51.4639 72.1823C50.109 71.2071 48.4461 71.2995 46.9371 70.8581C44.5146 70.1396 43.1186 67.8916 40.9117 66.8446C39.8339 66.3313 25.2373 60.4496 19.7867 59.536C17.7542 59.1973 15.6602 60.1416 13.6483 59.2897C13.0735 58.8893 12.6526 58.3864 12.3241 57.8628C12.7655 60.0082 13.3917 62.0817 14.1718 64.0833C14.9006 63.6111 15.3523 62.7694 16.235 62.5231C16.4403 62.4615 17.6105 62.1843 20.0535 62.4923L20.0433 62.482ZM77.8035 76.5962C77.8548 76.5654 77.9061 76.5243 77.9575 76.4935C78.0396 76.4114 78.1114 76.3293 78.1936 76.2472C78.0704 76.3601 77.9472 76.4833 77.8138 76.5962H77.8035ZM88.3147 53.9109C86.3644 53.6337 64.9827 50.852 54.3381 55.1016C48.9183 57.2675 46.66 57.3701 41.0965 53.9725C37.4285 51.7347 32.7546 50.5201 27.0747 50.3285C18.9449 50.0513 15.9681 46.9821 14.3668 45.3295C13.2069 44.1388 13.1145 44.0977 12.55 43.8924C12.3241 44.0156 12.1086 44.1901 11.9033 44.4159C11.6364 46.2431 11.4927 48.1113 11.4927 50.0102C11.4927 50.3695 11.4927 50.7288 11.5132 51.0881C12.4062 52.9973 14.2334 54.7629 17.4052 55.6662C19.335 56.2102 20.9569 56.1794 23.6565 55.9125C27.1979 55.5635 27.4956 55.5533 29.4561 55.5327C36.1591 55.4403 40.1008 58.5711 42.7183 60.6446C45.6438 62.9645 47.3991 64.2989 49.6265 64.8737C58.9162 67.2552 61.0513 54.9271 69.3555 55.2761C73.0201 55.4301 76.2843 57.4728 79.9694 57.5549C82.4843 57.6165 84.3422 55.1837 86.9803 55.6662C87.4832 55.7586 87.8733 55.9638 87.8322 57.3085C88.0478 56.1897 88.212 55.0605 88.3249 53.9109H88.3147ZM33.6134 15.3151C33.7468 15.3664 33.9111 15.4486 34.0445 15.4896L58.8957 22.7776C65.2736 24.5637 68.5823 25.4978 68.8218 25.5799C72.1373 26.668 75.1244 28.5773 78.5426 29.419C80.5955 29.922 81.468 28.8339 81.4886 27.8485C80.5442 26.5038 79.5075 25.2207 78.3989 24.0094C78.0191 23.8349 78.0088 23.8349 77.9472 23.8555C77.4442 25.0051 77.3211 25.2823 76.2022 25.1078C69.8175 23.219 65.1983 17.9018 58.7314 16.1774C55.5904 15.3356 51.9259 15.2125 47.0911 15.1201C42.6259 15.038 37.6064 14.9353 36.0667 14.1244C35.1942 14.4631 34.3319 14.8327 33.4902 15.233L33.6134 15.3356V15.3151ZM22.1065 25.0462C25.2373 25.7031 28.7581 23.9684 31.5604 26.5962C35.615 30.3941 36.7031 31.4206 42.2666 32.7756C49.4007 34.5103 56.7401 35.3521 63.7201 37.754C69.4171 39.7146 74.8472 42.4451 80.8111 43.6255C86.2001 44.6931 87.3909 42.7735 87.3806 40.7719C86.9392 38.9858 86.3746 37.2511 85.6972 35.5779C85.5432 36.0603 85.0299 36.7378 82.7922 36.3991C82.6074 36.3683 82.3713 36.3375 82.1866 36.2964C82.1866 36.2964 78.6247 35.2905 71.5009 33.2786C64.5311 31.3077 57.2225 31.4925 50.2014 29.8912C45.2742 28.7723 41.7123 24.8922 36.9803 23.373C33.1002 22.131 28.9326 23.0343 25.0628 21.7409C24.8678 21.6793 24.5906 21.5151 24.5187 21.3303C24.4982 21.279 24.4982 21.2174 24.4982 21.1455C23.7592 21.8025 23.0509 22.48 22.3631 23.1882C21.8088 23.9992 21.5419 24.7588 22.0962 25.0462H22.1065Z" fill="url(#paint4_linear_491_32)"/>
<defs>
<linearGradient id="paint0_linear_491_32" x1="-12.8721" y1="33.1322" x2="115.284" y2="67.5092" gradientUnits="userSpaceOnUse">
<stop offset="0.22" stop-color="#DC34BF"/>
<stop offset="0.3" stop-color="#D532BF" stop-opacity="0.96"/>
<stop offset="0.41" stop-color="#C42FC1" stop-opacity="0.86"/>
<stop offset="0.55" stop-color="#A729C5" stop-opacity="0.7"/>
<stop offset="0.72" stop-color="#8021CA" stop-opacity="0.47"/>
<stop offset="0.9" stop-color="#4E17D0" stop-opacity="0.18"/>
<stop offset="1" stop-color="#3111D4" stop-opacity="0"/>
</linearGradient>
<linearGradient id="paint1_linear_491_32" x1="-5.05423" y1="35.2289" x2="107.181" y2="65.3356" gradientUnits="userSpaceOnUse">
<stop offset="0.22" stop-color="#DC34BF"/>
<stop offset="0.3" stop-color="#D532BF" stop-opacity="0.96"/>
<stop offset="0.41" stop-color="#C42FC1" stop-opacity="0.86"/>
<stop offset="0.55" stop-color="#A729C5" stop-opacity="0.7"/>
<stop offset="0.72" stop-color="#8021CA" stop-opacity="0.47"/>
<stop offset="0.9" stop-color="#4E17D0" stop-opacity="0.18"/>
<stop offset="1" stop-color="#3111D4" stop-opacity="0"/>
</linearGradient>
<linearGradient id="paint2_linear_491_32" x1="95.3358" y1="20.54" x2="24.2724" y2="66.7214" gradientUnits="userSpaceOnUse">
<stop stop-color="#F23DC9"/>
<stop offset="0.61" stop-color="#D32CDE"/>
<stop offset="0.74" stop-color="#D645D4"/>
<stop offset="1" stop-color="#DE87BC"/>
</linearGradient>
<linearGradient id="paint3_linear_491_32" x1="116.358" y1="43.8719" x2="-0.14767" y2="54.7013" gradientUnits="userSpaceOnUse">
<stop stop-color="#CA2FBE"/>
<stop offset="0.61" stop-color="#BB2CDE"/>
<stop offset="0.8" stop-color="#CA45CE"/>
<stop offset="1" stop-color="#DE66BC"/>
</linearGradient>
<linearGradient id="paint4_linear_491_32" x1="93.016" y1="15.9823" x2="14.6235" y2="77.9511" gradientUnits="userSpaceOnUse">
<stop stop-color="#F23DC9"/>
<stop offset="0.7" stop-color="#E486C0"/>
<stop offset="1" stop-color="#DEA8BC"/>
</linearGradient>
</defs>
</svg>
