<?xml version="1.0" encoding="UTF-8"?><svg xmlns="http://www.w3.org/2000/svg" xmlns:xlink="http://www.w3.org/1999/xlink" viewBox="0 0 97.42 97.42"><defs><style>.i{fill:url(#d);}.i,.j{mix-blend-mode:screen;opacity:.2;}.k{isolation:isolate;}.l{fill:url(#f);}.m{fill:url(#g);}.j{fill:url(#e);}.n{fill:url(#h);}</style><linearGradient id="d" x1="-12.54" y1="32.28" x2="112.31" y2="65.77" gradientTransform="translate(48.71 -20.18) rotate(45)" gradientUnits="userSpaceOnUse"><stop offset=".22" stop-color="#dc34bf"/><stop offset=".3" stop-color="#d532bf" stop-opacity=".96"/><stop offset=".41" stop-color="#c42fc1" stop-opacity=".86"/><stop offset=".55" stop-color="#a729c5" stop-opacity=".7"/><stop offset=".72" stop-color="#8021ca" stop-opacity=".47"/><stop offset=".9" stop-color="#4e17d0" stop-opacity=".18"/><stop offset="1" stop-color="#3111d4" stop-opacity="0"/></linearGradient><linearGradient id="e" x1="-4.93" y1="34.32" x2="104.41" y2="63.65" gradientTransform="matrix(1, 0, 0, 1, 0, 0)" xlink:href="#d"/><linearGradient id="f" x1="92.87" y1="20.01" x2="23.64" y2="65" gradientTransform="matrix(1, 0, 0, 1, 0, 0)" gradientUnits="userSpaceOnUse"><stop offset="0" stop-color="#f23dc9"/><stop offset=".61" stop-color="#d32cde"/><stop offset=".74" stop-color="#d645d4"/><stop offset="1" stop-color="#de87bc"/></linearGradient><linearGradient id="g" x1="113.35" y1="42.74" x2="-.15" y2="53.29" gradientTransform="matrix(1, 0, 0, 1, 0, 0)" gradientUnits="userSpaceOnUse"><stop offset="0" stop-color="#ca2fbe"/><stop offset=".61" stop-color="#bb2cde"/><stop offset=".8" stop-color="#ca45ce"/><stop offset="1" stop-color="#de66bc"/></linearGradient><linearGradient id="h" x1="90.61" y1="15.57" x2="14.24" y2="75.94" gradientTransform="matrix(1, 0, 0, 1, 0, 0)" gradientUnits="userSpaceOnUse"><stop offset="0" stop-color="#f23dc9"/><stop offset=".7" stop-color="#e486c0"/><stop offset="1" stop-color="#dea8bc"/></linearGradient></defs><g class="k"><g id="a"/><g id="b"><g id="c"><g><circle class="i" cx="48.71" cy="48.71" r="48.71" transform="translate(-20.18 48.71) rotate(-45)"/><circle class="j" cx="48.71" cy="48.71" r="42.66"/><circle class="l" cx="48.71" cy="48.71" r="37.51"/><path class="m" d="M21.76,65.79c3.66,1.52,6.93,4.24,10.87,4.62,1.72,.17,3.63-.08,5,.96,1.32,1,1.73,2.91,3.12,3.82,1.84,1.2,4.43,.05,6.42,.95,1.48,.67,2.25,2.26,3.24,3.54,1.94,2.52,4.8,3.94,7.71,5.34-3.01,.78-6.17,1.19-9.42,1.19-15.27,0-28.41-9.12-34.26-22.22,2.5,.35,4.99,.82,7.31,1.79Zm25.14,20.39c-1.52-1.12-3.26-1.96-5.1-2.42-1.32-.33-2.69-.48-3.98-.93-1.07-.37-2.05-.95-3.03-1.51-2.85-1.61-6.08-3.75-9.23-4.65-.87-.25-1.35-.1-1.55,.27,6.18,5.41,14.14,8.82,22.9,9.24Zm-9-24.15c-5.07-2.42-10.91-2.99-15.83-5.72,3.78-.13,8.45-.52,11.94,1.14,1.25,.59,2.36,1.44,3.46,2.28,1.66,1.27,3.31,2.54,4.97,3.81-1.61,.06-3.09-.81-4.54-1.5Zm40.02,10.2h0c-.6,.74-1.22,1.46-1.88,2.16h0s-.08-.04-.12-.06c-.8-.34-1.74-.23-2.54,.14-.56,.26-1.07,.63-1.65,.82-.58,.2-1.3,.17-1.72-.28-.42-.45-.39-1.16-.22-1.75,.44-1.53,4.37-5.41,5.82-2.9,.18,.31,.19,.69,.39,.98,.19,.28,.52,.42,.83,.54,.36,.13,.72,.25,1.08,.35Zm8.28-24.39c0,.29,.01,.58,.01,.87,0,.33,0,.65-.01,.97,0,.07,0,.13,0,.2,0,.26-.02,.51-.03,.77,0,.05,0,.09,0,.14-.02,.28-.03,.55-.05,.82,0,.03,0,.05,0,.08-.02,.29-.05,.59-.08,.88v.03c-.13,1.26-.33,2.5-.58,3.72-2.86-.53-5.91,1.04-8.91,1.15-1.75,.06-3.48-.38-5.23-.58-2.66-.31-5.34-.05-8,.2-1.19,.11-2.4,.23-3.5,.68-1.14,.46-2.11,1.24-3.18,1.85-2.71,1.55-6.05,1.94-9.04,1.07-.82-.24-1.63-.58-2.31-1.1-.84-.64-1.46-1.52-2.23-2.25-1.92-1.81-4.6-2.5-7.16-3.12-3.89-.95-7.78-1.9-11.74-2.49-2.18-.32-4.41-.55-6.43-1.41s-3.86-2.52-4.28-4.68c7.71,3.7,17.14,.41,25.29,3,2.4,.76,4.66,2.03,7.16,2.34,2.43,.3,4.86-.32,7.28-.72,3.24-.54,6.54-.67,9.83-.73,5.2-.09,10.4,.03,15.6,.34,1.16,.07,2.82-.35,2.61-1.5-.14-.81-1.17-1.08-2-1.11-2.34-.09-4.68,.25-7.01,.09-2.99-.21-5.86-1.23-8.69-2.25-1.91-.69-3.81-1.37-5.72-2.06-.68-.24-1.45-1.16-.8-1.49,3.9,.78,7.72,1.98,11.37,3.56,.58,.25,1.46,.41,1.68-.19,.13-.34-.07-.7-.29-.99-1.76-2.36-4.81-3.33-7.72-3.81-2.9-.48-5.93-.63-8.59-1.88-1.93-.91-3.62-2.39-5.7-2.89-2.49-.59-5.35,.28-7.53-1.07-.69-.43-1.25-1.05-1.92-1.51-1.11-.76-2.47-1.02-3.79-1.3-5.05-1.06-10.03-2.46-14.88-4.21-.43-.16-.88-.33-1.3-.55h0c.59-.81,1.21-1.6,1.86-2.36l.03-.04c.14-.16,.27-.32,.41-.47,.04-.05,.09-.1,.13-.15,.13-.14,.26-.28,.39-.42,.06-.06,.11-.12,.17-.19,.13-.13,.25-.27,.38-.4,.06-.06,.12-.12,.18-.18,.13-.14,.26-.27,.4-.4h0c.12,.07,.23,.13,.35,.19,2.09,1.01,4.54,.66,6.85,.86,6.19,.53,11.26,4.93,16.97,7.37,5.72,2.44,12.08,2.89,18.05,4.67,4.17,1.24,8.24,3.16,12.6,3.3,2.51,.09,4.97-.42,7.4-1.13,.06,.19,.12,.38,.18,.57,.02,.06,.04,.12,.06,.19,.05,.19,.11,.37,.16,.56,.01,.05,.03,.11,.04,.16,.16,.58,.3,1.17,.44,1.77,.02,.1,.04,.19,.06,.29,.03,.16,.07,.32,.1,.49,.02,.11,.04,.22,.06,.34,.03,.15,.06,.31,.09,.46,.04,.24,.08,.48,.12,.73,.02,.13,.04,.26,.06,.39,.02,.15,.04,.31,.06,.46,.02,.13,.03,.25,.05,.38,.02,.17,.04,.34,.06,.51,.01,.11,.02,.22,.04,.33,.03,.27,.05,.54,.07,.82,0,.07,0,.13,.01,.2,.02,.22,.03,.44,.04,.67,0,.1,0,.2,.01,.29,0,.2,.02,.41,.02,.61,0,.09,0,.18,0,.27ZM47.91,11.21c.26,0,.53,0,.8,0,.29,0,.58,0,.86,.01,.08,0,.16,0,.24,0,.24,0,.47,.02,.71,.03,.06,0,.11,0,.17,0,.28,.01,.56,.03,.84,.05,.08,0,.15,.01,.23,.02,.21,.02,.43,.04,.64,.06,.08,0,.16,.02,.24,.02,.27,.03,.54,.06,.8,.09,.07,0,.14,.02,.21,.03,.21,.03,.41,.06,.62,.09,.1,.01,.2,.03,.3,.04,.21,.03,.42,.07,.63,.1,.1,.02,.2,.03,.29,.05,.21,.04,.43,.08,.64,.12,.11,.02,.23,.05,.34,.07,.16,.03,.32,.07,.48,.1,.11,.02,.22,.05,.33,.07,.23,.05,.46,.11,.69,.17,.13,.03,.26,.07,.38,.1,.13,.03,.26,.07,.38,.1,.14,.04,.27,.07,.41,.11,.13,.04,.25,.07,.38,.11,.24,.07,.47,.14,.7,.22,.1,.03,.19,.06,.29,.09,.15,.05,.31,.1,.46,.16,.08,.03,.16,.05,.23,.08,.31,.11,.63,.23,.94,.34,.04,.02,.08,.03,.12,.05,.17,.07,.34,.13,.51,.2,.05,.02,.11,.04,.16,.07,.54,.22,1.08,.46,1.62,.71l.09,.04c1.34,.63,2.63,1.33,3.87,2.11-1.11,.07-2.22,.05-3.33-.09-2.97-.37-5.73-1.57-8.53-2.56-1.27-.45-2.56-.87-3.89-1.15-1.25-.26-3.06,.02-4.19-.47-.68-.29-.94-.8-.93-1.37h0c.09,0,.18,0,.28,0Zm-11.83,6.99c2.54,1.22,5.63,1.79,8.33,2.6,2.87,.85,5.75,1.69,8.63,2.5,2.88,.81,5.77,1.6,8.66,2.37,2.63,.7,5.99,2.19,8.7,2.24-3.89-.06-7.79-.13-11.68-.19-1.9-.03-3.82-.06-5.67-.52-4.38-1.09-7.92-4.48-12.3-5.58-.76-.19-1.57-.32-2.21-.78-.99-.7-1.44-1.94-2.45-2.63Zm16.8,49.74c-1.09-.36-2.02-1.65-1.43-2.63,.54-.89,1.81-.84,2.85-.78,1.53,.08,3.13-.09,4.42-.91,.55-.35,1.02-.8,1.52-1.21,1.44-1.17,3.19-1.97,5.02-2.32,1.24-.24,2.43-.5,1.72,.93-1.49,2.98-6.28,4.76-9.1,6.04-1.58,.71-3.36,1.44-5.01,.89Z"/><path class="n" d="M51.03,86.15c-1.27-.26-3.49-1.36-12.71-5.93-15.21-7.54-16.07-6.82-16.6-5.46-2.66-2.75-4.9-5.91-6.62-9.38,2.2,.68,2.52,3.24,5.63,3.44,3.28,.21,2.89,1.55,5.7,1.94,14.53,2.02,25.06,14.82,27.68,15.07-1.01,.15-2.03,.25-3.07,.31Zm31.6-27.3c-1.4-.24-4.19-.1-9.54,1.97-2.13,.82-9.3,4.03-12.4,10.72-2.35,5.08-1.96,11.52,1.85,11.79,.28,0,.52-.02,.75-.06,2.39-1.01,4.65-2.26,6.75-3.72-1.8,.41-5.62-1.86-4.87-4.97,1.19-4.95,12.11-10.61,13.6-8.33,.78,1.19-1.26,3.8,.56,3.82l.11,.13c1.67-2.38,3.07-4.96,4.15-7.7-.35-1.25,.79-3.35-.97-3.66ZM16.22,41.39c1.17,1.14,1.95,1.82,4.38,2.78,.87,.29,2.18,.72,4.31,.95,4.33,.47,5.17-.39,5.99-1.23,.81-.83,1.65-1.69,4.19-1.01,4.83,1.31,9.15,4.28,14.34,4.43,1.57,.04,3.61-.72,4.3-2.22h0c1.45-3.18-4.51-5.9-4.58-5.93-.08-.04-.19-.08-.27-.11-.74-.25-1.31-.06-1.87,.13-.76,.26-2.55,.87-5.52-.18-4.32-1.53-7.44-5.27-11.93-6.49-.79-.21-2.37-.48-4.15,.19q-4.12,1.54-5.43,.93c-2.04-.94-1.57-3.52-3.08-4.81-1.57,2.5-2.85,5.2-3.8,8.05,1.19,1.4,1.78,3.21,3.11,4.51Zm3.3,19.48c1.03,.13,4.83,.79,10.43,3.79,16.08,8.62,18.55,9.94,20.82,8.31,.46-.33,1.31-1.25-.64-2.65-1.32-.95-2.94-.86-4.41-1.29-2.36-.7-3.72-2.89-5.87-3.91-1.05-.5-15.27-6.23-20.58-7.12-1.98-.33-4.02,.59-5.98-.24h0c-.56-.39-.97-.88-1.29-1.39,.43,2.09,1.04,4.11,1.8,6.06,.71-.46,1.15-1.28,2.01-1.52,.2-.06,1.34-.33,3.72-.03Zm56.27,13.75c.05-.03,.1-.07,.15-.1,.08-.08,.15-.16,.23-.24-.12,.11-.24,.23-.37,.34Zm10.24-22.1c-1.9-.27-22.73-2.98-33.1,1.16-5.28,2.11-7.48,2.21-12.9-1.1q-5.36-3.27-13.66-3.55c-7.92-.27-10.82-3.26-12.38-4.87-1.13-1.16-1.22-1.2-1.77-1.4-.22,.12-.43,.29-.63,.51-.26,1.78-.4,3.6-.4,5.45,0,.35,0,.7,.02,1.05,.87,1.86,2.65,3.58,5.74,4.46,1.88,.53,3.46,.5,6.09,.24,3.45-.34,3.74-.35,5.65-.37,6.53-.09,10.37,2.96,12.92,4.98,2.85,2.26,4.56,3.56,6.73,4.12,9.05,2.32,11.13-9.69,19.22-9.35,3.57,.15,6.75,2.14,10.34,2.22,2.45,.06,4.26-2.31,6.83-1.84,.49,.09,.87,.29,.83,1.6,.21-1.09,.37-2.19,.48-3.31ZM32.74,14.92c.13,.05,.29,.13,.42,.17l24.21,7.1q9.32,2.61,9.67,2.73c3.23,1.06,6.14,2.92,9.47,3.74,2,.49,2.85-.57,2.87-1.53-.92-1.31-1.93-2.56-3.01-3.74-.37-.17-.38-.17-.44-.15-.49,1.12-.61,1.39-1.7,1.22h0c-6.22-1.84-10.72-7.02-17.02-8.7-3.06-.82-6.63-.94-11.34-1.03-4.35-.08-9.24-.18-10.74-.97-.85,.33-1.69,.69-2.51,1.08l.12,.1Zm-11.21,9.48c3.05,.64,6.48-1.05,9.21,1.51,3.95,3.7,5.01,4.7,10.43,6.02,6.95,1.69,14.1,2.51,20.9,4.85,5.55,1.91,10.84,4.57,16.65,5.72,5.25,1.04,6.41-.83,6.4-2.78-.43-1.74-.98-3.43-1.64-5.06-.15,.47-.65,1.13-2.83,.8-.18-.03-.41-.06-.59-.1t-10.41-2.94c-6.79-1.92-13.91-1.74-20.75-3.3-4.8-1.09-8.27-4.87-12.88-6.35-3.78-1.21-7.84-.33-11.61-1.59-.19-.06-.46-.22-.53-.4-.02-.05-.02-.11-.02-.18-.72,.64-1.41,1.3-2.08,1.99-.54,.79-.8,1.53-.26,1.81Z"/></g></g></g></g></svg>