<svg xmlns="http://www.w3.org/2000/svg" viewBox="0 0 512 512" width="256" height="256"><g data-name="27.Agile" fill="#000000" class="color000 svgShape"><path fill="#f17b89" d="M493.8385,444.4964l-45.5826,34.51a17.9927,17.9927,0,0,1-10.8957,3.66H300.5927A233.6913,233.6913,0,0,0,442.9413,378.64a17.2713,17.2713,0,0,1,3.5143,2.03l47.2118,34.8725A18.0842,18.0842,0,0,1,493.8385,444.4964Z" class="colorf17b89 svgShape"></path><path fill="#f5d367" d="M231.9706,92.9884l41.7256,31.5367A134.7229,134.7229,0,0,0,186.807,377.8012a17.7913,17.7913,0,0,0-4.8668-.6671H44.82A232.4247,232.4247,0,0,1,11,256C11,127.0413,115.4708,22.5,244.3428,22.5a233.89,233.89,0,0,1,31.4014,2.1062L231.9706,57.6871A22.1339,22.1339,0,0,0,231.9706,92.9884Z" class="colorf5d367 svgShape"></path><path fill="#74d1d1" d="M477.6855,256c0,128.9587-104.4708,233.5-233.3427,233.5a233.5976,233.5976,0,0,1-57.4689-7.1385,18.0129,18.0129,0,0,0,7.6-3.3547l45.5734-34.51a18.0738,18.0738,0,0,0-.1716-28.954L192.674,380.67c-.3237-.2382-.6478-.467-.9808-.6671a134.7075,134.7075,0,1,0,88.3653-253.8956c-2.1048-.5813-4.2194-1.1055-6.3623-1.5821L231.9706,92.9884a22.1339,22.1339,0,0,1,0-35.3013l43.7736-33.0809,4.1334.5814.1809.0286C391.9771,42.419,477.6855,139.1929,477.6855,256Z" class="color74d1d1 svgShape"></path><path fill="#f7f5fb" d="M239.8791,415.54l-47.2067-34.8729a18.0547,18.0547,0,0,0-10.7278-3.5332H39.13A18.0687,18.0687,0,0,0,21.0669,395.209v69.3873A18.0687,18.0687,0,0,0,39.13,482.6711H183.5727a18.0544,18.0544,0,0,0,10.9-3.6617l45.5786-34.5144A18.0821,18.0821,0,0,0,239.8791,415.54Z" class="colorf7f5fb svgShape"></path><path fill="#e2c061" d="M105.0742,377.1368h-60.25a233.9888,233.9888,0,0,1-10.93-222.11A496.9758,496.9758,0,0,0,105.0742,377.1368Z" class="colore2c061 svgShape"></path><path fill="#e4e3e8" d="M189.7446,481.5768a17.9823,17.9823,0,0,1-6.17,1.09H39.1342a18.07,18.07,0,0,1-18.07-18.07v-69.39a18.07,18.07,0,0,1,18.07-18.07h65.94A501.5789,501.5789,0,0,0,189.7446,481.5768Z" class="colore4e3e8 svgShape"></path></g></svg>