<?xml version="1.0" encoding="UTF-8"?><svg xmlns="http://www.w3.org/2000/svg" viewBox="0 0 370.72 371.13"><defs><style>.d{fill:#509ffe;}.e{fill:#fd4d4d;}.f{fill:#fe4d4d;}.g{fill:#7bbcfe;}.h{fill:#25e472;}.i{fill:#2a2a49;}.j{fill:#2073ee;}.k{fill:#f6ba26;}.l{fill:#4d9cfd;}.m{fill:#447;}.n{fill:#2074ee;}.o{fill:#1663be;}.p{fill:#f5ba26;}.q{fill:#fefefe;}</style></defs><g id="a"/><g id="b"><g id="c"><g><path class="i" d="M241.53,332.51c-1.12,.05-2.24,.14-3.35,.14-68.06,0-136.11,.02-204.17,0-16.98,0-29.5-9.54-33.1-25.1-.65-2.82-.71-5.7-.71-8.56-.01-81.55-.01-163.1,0-244.66,0-.99,.15-1.98,.22-2.97,1.12-.94,2.47-1.13,3.86-1.17,1.25-.04,2.49-.03,3.74-.03,105.45,0,210.9,0,316.35,.03,2.55,0,5.28-.64,7.56,1.22l.23,.16c.34,1.48,.17,2.99,.17,4.48,.01,52.44,0,104.89,0,157.33q0,6.26-6.19,5.36c-1.32-.35-2.64-.61-4.03-.61-27.73,.01-55.46-.02-83.19,.03-.5,0-.99,.05-1.47,.14-3.82,.48-7.62,1-10.26,4.31-6.55,6.98-12.38,14.57-18.58,21.84-4.27,5.01-8.54,10.02-12.66,15.15-1.59,1.98-2.74,4.14-3.24,6.63-.36,.96-.36,1.93-.01,2.9,.26,4.88,3.43,8.21,6.34,11.61,13.55,15.81,26.89,31.8,40.48,47.57,1.03,1.19,2.31,2.35,2.03,4.22Z"/><path class="m" d="M331.92,51.4c-87.71-.01-175.41-.02-263.12-.03-22.8,0-45.6,0-68.4-.01-.11-9.09-1.25-18.26,.84-27.22C4.37,10.71,16.19,1.06,29.9,.24c1.49-.09,2.99-.13,4.48-.13C122.24,.1,210.1,.23,297.96,0c19.01-.05,29.73,12.06,32.93,23.07,1.64,5.64,1.13,11.39,1.19,17.11,.04,3.74-.1,7.48-.16,11.22Z"/><path class="n" d="M241.53,332.51c-9.69-11.53-19.36-23.08-29.07-34.59-5.7-6.76-11.46-13.47-17.16-20.22-2.15-2.54-3.55-5.41-3.38-8.86,.92-1.08,2.2-1.07,3.44-1.07,17.29-.03,34.58-.08,51.87,.02,.5,0,.99,.09,1.47,.21,1.87,.63,1.97,2.41,2.45,3.91,9.9,31.14,19.43,62.39,29.27,93.55,.15,.46,.19,.97,.77,1.52,2.76-8.04,5.15-16.09,7.64-24.09,7.46-23.93,14.88-47.87,22.43-71.78,.37-1.18,.62-2.45,1.97-3.01,1.33-.44,2.71-.34,4.07-.34,16.03-.01,32.05-.01,48.08,0,1.24,0,2.49-.06,3.71,.24,.48,.15,.88,.41,1.22,.78,.09,3.57-1.36,6.52-3.61,9.17-24.85,29.26-49.69,58.54-74.57,87.78-6.17,7.25-15.92,7.2-22.1-.03-8.58-10.05-17.1-20.14-25.67-30.21-.88-1.04-1.88-1.98-2.82-2.97Z"/><path class="g" d="M326.15,217.71c1.87-.2,3.66,.35,5.82,1.01v-4.74c0-52.65,0-105.3,0-157.96,0-1.49,.11-2.98,.17-4.47,.8,1.41,.38,2.94,.39,4.4,.03,52.44,.05,104.89-.05,157.33,0,3.56,.31,6.63,3.39,8.83-.88,4.34-3.37,7.99-5.17,11.92-5.16,11.29-11.05,22.24-16.38,33.47-.89,.74-1.77,.89-2.66,0-7.03-10.02-13.01-20.71-19.7-30.95-3.28-5.02-6.43-10.12-9.5-15.26-1.88-3.15-1.45-3.85,2.2-3.85,13.09-.02,26.18,0,39.27,0,.74,0,1.5-.09,2.2,.26Z"/><path class="d" d="M313.97,267.24c.82-3.83,2.92-7.1,4.59-10.55,5.02-10.4,10.09-20.77,15.17-31.14,.59-1.21,.95-2.59,2.15-3.43,9.09,10.76,18.17,21.52,27.28,32.27,3.13,3.7,6.69,7.12,7.4,12.28,.1,.73,.42,1.46-.26,2.08l-.23,.06c-1.26-.79-2.67-.39-4-.4-16.26-.03-32.53,0-48.79-.08-1.1,0-2.83,1.04-3.32-1.11Z"/><path class="k" d="M140.41,179.1c-24.43,0-48.87,0-73.3,0-1.25,0-2.5,.04-3.74-.09-3.51-.37-5.32-2.56-5.73-5.88-.37-2.97,1.85-5.78,5.03-6.47,1.44-.31,2.97-.34,4.45-.34,48.99-.02,97.98-.01,146.97-.01,.37,0,.75,0,1.12,0,5.42,.06,8.3,2.31,8.3,6.48,0,4.2-2.73,6.31-8.31,6.32-24.93,.01-49.86,0-74.8,0Z"/><path class="d" d="M326.15,217.71c-13.56,.05-27.11,.08-40.67,.16-1.06,0-2.49-.57-3.12,.49-.68,1.14,.71,1.99,1.25,2.86,9.57,15.39,19.21,30.74,28.84,46.1-.89,1.81-2.58,1.75-4.19,1.76-18.04,.05-36.07,.04-54.11,0-1.24,0-2.5,0-3.59-.74-1.7-2.27-.05-4.01,1.03-5.73,7.77-12.48,15.52-24.97,23.34-37.42,.66-1.05,1.31-2.12,1.93-3.2,1.65-2.87,1.56-3.07-1.61-3.14-2.36-.06-4.73-.01-7.09-.01-9.08,0-18.17,.03-27.25-.02-1.68,0-3.53,.43-4.89-1.11,1.04-.61,2.18-.39,3.28-.39,27.86-.01,55.72-.01,83.58,0,1.1,0,2.25-.22,3.28,.41Z"/><path class="k" d="M118.34,243.22c17.7,0,35.4-.01,53.1,.01,4.22,0,6.64,1.76,7.22,5.02,.68,3.79-1.53,6.99-5.36,7.63-1.22,.2-2.49,.12-3.73,.12-34.16,0-68.31,0-102.47,0-.75,0-1.5,.02-2.24,0-4.36-.16-7.29-2.74-7.28-6.42,0-3.71,2.91-6.32,7.28-6.33,17.83-.04,35.65-.01,53.48-.02Z"/><path class="d" d="M191.99,266.43c-.14-2.25,.74-4.25,2.08-5.87,10.64-12.88,21.14-25.88,32.27-38.34,1.87-.2,2.2,1.42,2.72,2.55,6.05,12.96,12.55,25.68,18.86,38.51,.8,1.62,1.83,3.43-.17,5.04-17.81,.2-35.6,.05-53.4,.06-1.14,0-3.16,.62-2.35-1.95Z"/><path class="g" d="M248.2,267.24c-.25-.95-.35-1.96-.77-2.83-6.56-13.49-13.16-26.97-19.78-40.43-.32-.64-.86-1.18-1.3-1.76,2.42-3.24,5.72-4.58,9.67-4.52,13.56,.05,27.12,.09,40.68,.17,1.06,0,2.49-.57,3.12,.5,.66,1.13-.72,1.99-1.26,2.86-8.99,14.45-18.04,28.85-27.06,43.28-.51,.82-.76,1.82-1.13,2.73-.72,1.35-1.44,1.28-2.17,0Z"/><path class="h" d="M127.99,134.48c-1.96-.13-3.48-.95-4.89-2.01-7.87-5.91-15.75-11.81-23.59-17.75-4.73-3.59-4.74-8.17-.05-11.72,7.74-5.87,15.5-11.72,23.28-17.55,3.89-2.91,8-2.69,10.21,.45,2.39,3.4,1.51,6.75-2.62,9.86-4.97,3.75-9.89,7.57-14.97,11.18-2.1,1.49-1.88,2.34,.02,3.74,5.52,4.05,11,8.18,16.39,12.41,2.23,1.75,3.06,4.13,2.03,7.01-1.02,2.86-3.22,3.95-5.82,4.38Z"/><path class="h" d="M204.35,83.27c1.64,.13,3.1,.59,4.47,1.63,8.03,6.1,16.15,12.08,24.15,18.21,4.64,3.56,4.62,7.91,.03,11.4-7.82,5.96-15.68,11.87-23.57,17.74-4,2.98-7.78,2.7-10.13-.58-2.28-3.18-1.41-6.65,2.45-9.57,5.06-3.83,10.1-7.69,15.24-11.42,1.89-1.37,2.16-2.21,.04-3.72-5.47-3.9-10.81-7.98-16.15-12.06-2.39-1.82-3.44-4.26-2.44-7.25,.94-2.8,3.07-4.11,5.93-4.37Z"/><path class="q" d="M162.98,230.42c-9.23,0-18.46,.06-27.68-.02-5.05-.04-8.32-3.55-7.29-7.7,.78-3.13,2.8-5.02,6.12-5.02,19.2-.04,38.41-.07,57.61,.02,3.88,.02,6.39,2.83,6.3,6.43-.09,3.62-2.81,6.22-7,6.26-9.35,.1-18.7,.03-28.06,.03Z"/><path class="q" d="M163.11,192.01c9.35,0,18.7,0,28.05,0,2.83,0,5.08,1.03,6.31,3.79,1.01,2.28,.69,4.39-.71,6.36-1.34,1.89-3.34,2.62-5.53,2.63-18.83,.03-37.65,.07-56.48-.02-4.15-.02-6.9-2.79-6.92-6.36-.03-3.72,2.8-6.34,7.23-6.37,9.35-.08,18.7-.02,28.05-.02Z"/><path class="q" d="M271.47,179.14c-9.35,0-18.7,.09-28.05-.04-5.44-.07-8.52-4.63-6.37-9.07,1.22-2.52,3.4-3.66,6.06-3.66,18.95-.04,37.9-.08,56.85,.03,4.17,.02,6.71,2.87,6.6,6.59-.12,3.72-2.66,6.08-7.03,6.12-9.35,.09-18.7,.03-28.05,.03Z"/><path class="h" d="M178.71,84.02c-.1,.56-.25,1.67-.52,2.75-3.89,15.72-7.8,31.44-11.71,47.15-.24,.97-.49,1.95-.88,2.86-1.31,3.07-4.55,4.6-7.71,3.7-2.95-.84-5.1-4.17-4.32-7.34,4.21-17.18,8.5-34.34,12.87-51.48,.85-3.33,3.34-4.95,6.75-4.63,3.39,.32,5.51,2.94,5.52,6.99Z"/><path class="q" d="M159.28,307.08c-7.98,0-15.95,.03-23.93,0-4.61-.02-7.61-2.64-7.54-6.45,.07-3.68,3-6.3,7.36-6.3,16.32,0,32.65,.06,48.97,.16,4.71,.03,7.52,2.59,7.46,6.53-.05,3.9-2.83,6.22-7.66,6.25-8.22,.04-16.45,.01-24.67,.01v-.19Z"/><path class="q" d="M150.09,281.29c-5.09,0-10.19,.11-15.28-.03-4.68-.12-7.36-2.77-7.17-6.76,.18-3.81,2.87-6.03,7.48-6.01,10.07,.04,20.13,.11,30.2,.22,4.41,.05,7.21,2.56,7.23,6.31,.02,3.72-2.86,6.38-7.17,6.44-5.09,.08-10.19,.02-15.29,.02v-.19Z"/><path class="j" d="M92.9,307.07c-5.1,0-10.21,.04-15.31-.01-4.3-.05-7.28-2.71-7.29-6.36,0-3.63,3.01-6.35,7.3-6.37,10.08-.05,20.16-.06,30.24,0,4.42,.03,7.17,2.6,7.15,6.42-.02,3.93-2.61,6.26-7.16,6.31-4.98,.05-9.96,.01-14.93,.01Z"/><path class="n" d="M92.98,268.77c4.98,0,9.95-.04,14.93,.01,4.41,.05,7.12,2.55,7.08,6.42-.03,3.67-2.71,6.28-6.87,6.31-10.33,.08-20.65,.08-30.98,0-3.97-.03-6.88-2.93-6.83-6.44,.06-3.53,2.95-6.21,6.99-6.27,5.22-.08,10.45-.02,15.68-.02Z"/><path class="j" d="M92.93,217.69c5.09,0,10.19-.06,15.28,.02,4.11,.06,6.61,2.32,6.77,5.9,.16,3.5-2.27,6.63-6.09,6.71-10.8,.23-21.62,.22-32.43,.02-3.69-.07-6.31-3.41-6.1-6.76,.21-3.37,3-5.82,6.9-5.87,5.22-.07,10.44-.02,15.66-.02Z"/><path class="j" d="M92.71,204.88c-5.11,0-10.23,.14-15.34-.04-3.17-.11-5.82-1.37-6.69-4.89-.72-2.9,.26-5.1,2.59-6.84,1.19-.88,2.54-.97,3.92-.97,10.35-.01,20.7-.06,31.05,.02,4.13,.03,6.62,2.36,6.74,5.96,.12,3.64-2.46,6.53-6.57,6.7-5.23,.22-10.47,.05-15.71,.06Z"/><path class="e" d="M224.58,204.96c-3.42-.24-6.05,.2-8.63-.43-3.4-.83-5.07-3.1-5.07-6.46,0-3.28,2.51-5.77,6.04-5.9,4.47-.16,8.96-.16,13.44,0,3.39,.12,5.61,2.4,5.89,5.59,.3,3.37-1.59,6.13-5.05,6.76-2.42,.44-4.95,.35-6.61,.44Z"/><path class="e" d="M47.8,281.59c-1.37-.06-2.76,.04-4.09-.21-3.37-.63-5.35-3.33-5.12-6.75,.21-3.18,2.44-5.54,5.75-5.79,2.23-.17,4.48-.13,6.72-.04,3.95,.16,6.4,2.62,6.42,6.29,.03,3.68-2.41,6.18-6.31,6.43-1.12,.07-2.24,.01-3.36,.01v.06Z"/><path class="e" d="M47.69,307.06c-.99,0-1.99,.05-2.98-.01-3.71-.26-6.07-2.66-6.14-6.18-.07-3.5,2.21-6.15,5.87-6.48,2.34-.21,4.73-.2,7.08,0,3.68,.3,5.98,2.9,5.95,6.4-.03,3.68-2.47,6.08-6.42,6.28-1.12,.06-2.24,0-3.36,0Z"/><path class="e" d="M35.14,243.24c1.12,0,2.24-.05,3.36,.01,3.74,.23,6.12,2.58,6.22,6.09,.1,3.44-2.21,6.2-5.8,6.56-2.34,.23-4.73,.22-7.08,.03-3.85-.32-6.18-3.05-6.01-6.72,.16-3.5,2.54-5.76,6.33-5.97,.99-.05,1.99,0,2.98,0Z"/><path class="e" d="M47.81,204.98c-1.35-.13-2.74-.12-4.06-.4-3.46-.74-5.4-3.32-5.17-6.68,.22-3.31,2.54-5.56,6.11-5.77,1.98-.12,3.97-.1,5.96-.04,4.19,.13,6.62,2.24,6.81,5.83,.2,3.76-2.19,6.42-6.29,6.88-1.1,.12-2.23,.02-3.35,.02v.15Z"/><path class="e" d="M35.13,178.99c-1.24,0-2.49,.11-3.72-.02-3.27-.35-5.21-2.21-5.54-5.49-.35-3.44,1.24-5.79,4.54-6.75,2.9-.84,5.93-.68,8.86-.21,3.66,.59,5.71,3.35,5.42,6.84-.28,3.31-2.58,5.44-6.21,5.67-1.11,.07-2.23,.01-3.35,.01v-.05Z"/><path class="e" d="M48.23,217.66c.62,0,1.24-.01,1.86,0,4.82,.09,7.43,2.37,7.37,6.43-.05,3.76-2.83,6.2-7.24,6.34-1.49,.05-2.98,.05-4.47,0-4.39-.15-7.16-2.63-7.19-6.4-.03-3.94,2.52-6.25,7.06-6.37,.87-.02,1.74,0,2.61,0Z"/><path class="l" d="M248.2,267.24c.72,.54,1.45,.54,2.17,0,.94,1.19,2.27,.79,3.46,.79,18.22,.02,36.45,.01,54.67,.02,1.37,0,2.73,.02,3.96-.73,.55,.81,1.02,.04,1.52-.07,1.2,1.35,2.8,.77,4.21,.77,16.02,.04,32.04,.01,48.06,.05,1.29,0,2.77-.55,3.83,.76-19.19,0-38.38,0-57.57,0-1.44,1.27-3.23,1.17-4.96,1.17-17.64,.03-35.29,.03-52.93,0-1.73,0-3.51,.1-4.96-1.17-19.25,0-38.49,0-57.74,0-.7-.83-.5-1.62,.08-2.4,.22,1.79,1.57,1.61,2.82,1.61,17.01,0,34.02,0,51.04,0,.87,0,1.76,.02,2.35-.8Z"/><path class="i" d="M217.12,31.9c-16.58,0-33.15,0-49.73,0-5.07,0-7.47-2.01-7.52-6.22-.05-3.79,2.99-6.52,7.5-6.52,33.15-.02,66.31-.02,99.46,0,5.24,0,7.53,2.1,7.54,6.62,0,4.18-2.34,6.11-7.52,6.11-16.58,.01-33.15,0-49.73,0Z"/><path class="p" d="M67.13,31.97c-6.39,0-9.51-2.06-9.55-6.31-.04-4.25,3.19-6.46,9.48-6.46,1.12,0,2.25-.06,3.36,.04,3.74,.32,6.44,3.13,6.34,6.55-.1,3.52-2.76,6.01-6.64,6.18-.99,.04-1.99,0-2.99,.01Z"/><path class="h" d="M99.11,31.94c-3.21,0-6.57,.51-8.57-3.02-2.37-4.19,.12-9.15,5.02-9.67,2.09-.22,4.23-.15,6.33-.04,4.1,.22,6.78,2.83,6.81,6.5,.03,3.46-2.92,6.1-6.98,6.23-.87,.03-1.74,0-2.61,0Z"/><path class="f" d="M35.08,31.95c-.99,0-1.99,.05-2.98,0-3.62-.21-5.96-2.34-6.25-5.65-.31-3.57,1.7-6.45,5.31-6.91,2.69-.34,5.48-.34,8.17,0,3.51,.43,5.65,3.47,5.35,6.92-.29,3.32-2.63,5.45-6.25,5.65-1.11,.06-2.24,0-3.35,.01Z"/><path class="o" d="M249.66,268.82c20.95,0,41.9,0,62.84,0-.39,5.3-2.73,10.06-4.24,15.03-6.9,22.62-14.09,45.14-21.16,67.7-1.89,6.02-3.71,12.07-6.3,18.19-1.55-4.74-3.16-9.47-4.65-14.23-4.75-15.2-9.46-30.42-14.2-45.62-3.96-12.71-7.96-25.42-11.9-38.13-.29-.93-.27-1.96-.39-2.94Z"/></g></g></g></svg>