<?xml version="1.0" encoding="iso-8859-1"?>
<!-- Uploaded to: SVG Repo, www.svgrepo.com, Generator: SVG Repo Mixer Tools -->
<svg version="1.1" id="Layer_1" xmlns="http://www.w3.org/2000/svg" xmlns:xlink="http://www.w3.org/1999/xlink" 
	 viewBox="0 0 505 505" xml:space="preserve">
<circle style="fill:#FFD05B;" cx="252.5" cy="252.5" r="252.5"/>
<rect x="175.2" y="317.5" style="fill:#324A5E;" width="93.3" height="42.8"/>
<g>
	<path style="fill:#FFFFFF;" d="M360.7,137.8V311c0,6.2-5,11.2-11.2,11.2H94.2c-6.2,0-11.2-5-11.2-11.2V137.8
		c0-6.2,5-11.2,11.2-11.2h255.3C355.7,126.6,360.7,131.6,360.7,137.8z"/>
	<path style="fill:#FFFFFF;" d="M273.5,352H170.2c-6.4,0-11.7,5.2-11.7,11.7l0,0c0,6,4.9,10.9,10.9,10.9h104.9
		c6,0,10.9-4.9,10.9-10.9l0,0C285.2,357.3,280,352,273.5,352z"/>
</g>
<rect x="105.7" y="148.7" style="fill:#54C0EB;" width="232.2" height="137.8"/>
<path style="fill:#324A5E;" d="M404.9,232.2h-88.4c-5.1,0-9.2,4.1-9.2,9.2v152c0,5.1,4.1,9.2,9.2,9.2h88.4c5.1,0,9.2-4.1,9.2-9.2
	V241.5C414.1,236.4,410,232.2,404.9,232.2z"/>
<rect x="318.7" y="256.7" style="fill:#84DBFF;" width="83.9" height="106"/>
<g>
	<path style="fill:#2B3B4E;" d="M377.1,247h-17.5c-1.4,0-2.6-1.2-2.6-2.6l0,0c0-1.4,1.2-2.6,2.6-2.6h17.5c1.4,0,2.6,1.2,2.6,2.6l0,0
		C379.7,245.8,378.5,247,377.1,247z"/>
	<path style="fill:#2B3B4E;" d="M348.7,247h-4.4c-1.4,0-2.6-1.2-2.6-2.6l0,0c0-1.4,1.2-2.6,2.6-2.6h4.4c1.4,0,2.6,1.2,2.6,2.6l0,0
		C351.3,245.8,350.1,247,348.7,247z"/>
	<circle style="fill:#2B3B4E;" cx="360.7" cy="381.3" r="9.4"/>
</g>
</svg>