<?xml version="1.0" encoding="UTF-8"?><svg xmlns="http://www.w3.org/2000/svg" viewBox="0 0 410.87 410.87"><defs><style>.d{fill:#c69;fill-rule:evenodd;}</style></defs><g id="a"/><g id="b"><g id="c"><g><path class="d" d="M126.45,300.81c-13.84,14.63-17.71,32.99-9.98,37.46,7.15,4.15,23.83-.78,35.76-13.8,3.91-4.27,7.11-8.89,9.49-13.83,.48-.99,.92-1.99,1.33-3,.41-1.01,.79-2.04,1.13-3.08,3.09-9.34,3.42-19.65,.43-30.7-.64,.35-1.26,.69-1.88,1.02l.03,.06s-21.42,10.12-36.31,25.86Z"/><path class="d" d="M205.44,0C91.98,0,0,91.98,0,205.44s91.98,205.44,205.44,205.44,205.44-91.98,205.44-205.44S318.89,0,205.44,0Zm66.98,182.15c-35.61,13.77-65.06,11.59-77.16,7.62-13.75-4.51-21.82-13.58-23.78-18.7-.77-2.01-2.1-5.37,0-6.54,1.29-.72,1.81-.54,5.27,3.27,3.29,3.62,16.49,13.34,41.57,10.53,65.83-7.38,105.48-58.53,92.95-86.05-8.77-19.26-59.52-27.96-122.91,3.63-77.38,38.56-81.58,70.35-82.24,82.42-1.82,33.21,40.98,50.68,64.14,75.38,.55,.58,1.07,1.17,1.59,1.76,7.01-2.61,16.7-4.07,32.13-4.34,37.45-.64,58.6,24.04,57.73,46.11-.68,17.38-16.64,24.54-19.61,25.04-2.15,.37-3.32,.43-3.63-1.26-.21-1.16,.56-1.7,3.09-3.27,2.53-1.56,10.09-6.74,11.44-16.16,1.35-9.42-5.72-31.92-41.76-36.13-12.77-1.49-22.82-.47-31.44,1.8,6.25,13.78,7.45,41.47-6.93,62.92-14.9,22.22-42.63,35.75-69.64,28.23-8.72-2.43-21.89-20.45-10.53-45.57,10.77-23.81,56.79-47.1,63.07-50.19v-.11c-21.32-18.36-73.19-43.1-80.5-80.95-2.07-10.73,2.96-36.4,34.49-65.9,26.52-24.81,63.41-43.81,97.49-55.92,57.26-20.34,117.76-8.35,127.06,28.14,9.15,35.87-22,78.79-61.88,94.22Z"/></g></g></g></svg>