<svg width="24" height="22" viewBox="0 0 24 22" fill="none" xmlns="http://www.w3.org/2000/svg">
<path d="M11.5255 12.1423C11.5255 12.9949 11.4021 13.7792 11.1555 14.4951C10.9142 15.2111 10.5791 15.8294 10.1501 16.3501C9.72118 16.8642 9.2118 17.2678 8.62198 17.5607C8.03217 17.8536 7.39142 18 6.69973 18H1.05362C0.903485 18 0.764075 17.9675 0.635389 17.9024C0.506702 17.8373 0.394102 17.7494 0.297587 17.6388C0.206434 17.5216 0.134048 17.3849 0.080429 17.2287C0.0268097 17.0725 0 16.9033 0 16.7211V5.27894C0 5.10321 0.0268097 4.93724 0.080429 4.78103C0.134048 4.62483 0.206434 4.48815 0.297587 4.37099C0.394102 4.25384 0.506702 4.16272 0.635389 4.09763C0.764075 4.03254 0.903485 4 1.05362 4H6.69973C7.39142 4 8.03217 4.14644 8.62198 4.43933C9.2118 4.73222 9.72118 5.13901 10.1501 5.65969C10.5791 6.17387 10.9142 6.79219 11.1555 7.51464C11.4021 8.23059 11.5255 9.01162 11.5255 9.85774V12.1423ZM9.43432 9.85774C9.43432 9.36309 9.36729 8.91074 9.23324 8.5007C9.10456 8.09066 8.91957 7.74245 8.67828 7.45607C8.437 7.16318 8.14745 6.93863 7.80965 6.78243C7.47721 6.61971 7.10724 6.53835 6.69973 6.53835H2.09115V15.4616H6.69973C7.10724 15.4616 7.47721 15.3835 7.80965 15.2273C8.14745 15.0646 8.437 14.8401 8.67828 14.5537C8.91957 14.2608 9.10456 13.9126 9.23324 13.5091C9.36729 13.099 9.43432 12.6434 9.43432 12.1423V9.85774Z" fill="white"/>
<path d="M23.059 12.2789H16.4558V9.72106H23.059V12.2789ZM24 18H16.4558C16.1662 18 15.8499 17.9382 15.5067 17.8145C15.1635 17.6908 14.8445 17.4891 14.5496 17.2092C14.2601 16.9228 14.0161 16.5551 13.8177 16.106C13.6247 15.6504 13.5281 15.0939 13.5281 14.4365V5.27894C13.5281 5.10321 13.555 4.93724 13.6086 4.78103C13.6622 4.62483 13.7346 4.48815 13.8257 4.37099C13.9223 4.25384 14.0349 4.16272 14.1635 4.09763C14.2922 4.03254 14.4316 4 14.5818 4H24V6.53835H15.6193V14.4365C15.6193 14.7685 15.6917 15.0223 15.8365 15.198C15.9812 15.3738 16.193 15.4616 16.4718 15.4616H24V18Z" fill="white"/>
</svg>
