<svg width="30" height="15" viewBox="0 0 30 15" fill="none" xmlns="http://www.w3.org/2000/svg">
<path d="M13.9941 8.14453C13.9941 8.9974 13.8444 9.7819 13.5449 10.498C13.252 11.2142 12.8451 11.8327 12.3242 12.3535C11.8034 12.8678 11.1849 13.2715 10.4688 13.5645C9.7526 13.8574 8.97461 14.0039 8.13477 14.0039H1.2793C1.09701 14.0039 0.927734 13.9714 0.771484 13.9062C0.615234 13.8411 0.478516 13.7533 0.361328 13.6426C0.250651 13.5254 0.16276 13.3887 0.0976562 13.2324C0.0325521 13.0762 0 12.9069 0 12.7246V1.2793C0 1.10352 0.0325521 0.9375 0.0976562 0.78125C0.16276 0.625 0.250651 0.488281 0.361328 0.371094C0.478516 0.253906 0.615234 0.16276 0.771484 0.0976562C0.927734 0.0325521 1.09701 0 1.2793 0H8.13477C8.97461 0 9.7526 0.146484 10.4688 0.439453C11.1849 0.732422 11.8034 1.13932 12.3242 1.66016C12.8451 2.17448 13.252 2.79297 13.5449 3.51562C13.8444 4.23177 13.9941 5.01302 13.9941 5.85938V8.14453ZM11.4551 5.85938C11.4551 5.36458 11.3737 4.91211 11.2109 4.50195C11.0547 4.0918 10.8301 3.74349 10.5371 3.45703C10.2441 3.16406 9.89258 2.93945 9.48242 2.7832C9.07878 2.62044 8.62956 2.53906 8.13477 2.53906H2.53906V11.4648H8.13477C8.62956 11.4648 9.07878 11.3867 9.48242 11.2305C9.89258 11.0677 10.2441 10.8431 10.5371 10.5566C10.8301 10.2637 11.0547 9.91536 11.2109 9.51172C11.3737 9.10156 11.4551 8.64583 11.4551 8.14453V5.85938Z" fill="white"/>
<path d="M27.998 8.28125H19.9805V5.72266H27.998V8.28125ZM29.1406 14.0039H19.9805C19.6289 14.0039 19.2448 13.9421 18.8281 13.8184C18.4115 13.6947 18.0241 13.4928 17.666 13.2129C17.3145 12.9264 17.0182 12.5586 16.7773 12.1094C16.543 11.6536 16.4258 11.097 16.4258 10.4395V1.2793C16.4258 1.10352 16.4583 0.9375 16.5234 0.78125C16.5885 0.625 16.6764 0.488281 16.7871 0.371094C16.9043 0.253906 17.041 0.16276 17.1973 0.0976562C17.3535 0.0325521 17.5228 0 17.7051 0H29.1406V2.53906H18.9648V10.4395C18.9648 10.7715 19.0527 11.0254 19.2285 11.2012C19.4043 11.377 19.6615 11.4648 20 11.4648H29.1406V14.0039Z" fill="white"/>
</svg>
