<svg width="30" height="15" viewBox="0 0 30 15" fill="none" xmlns="http://www.w3.org/2000/svg">
<path d="M11.9883 8.47444H3.9707V5.91585H11.9883V8.47444ZM13.1309 14.1971H3.9707C3.61914 14.1971 3.23503 14.1352 2.81836 14.0115C2.40169 13.8879 2.01432 13.686 1.65625 13.4061C1.30469 13.1196 1.00846 12.7518 0.767578 12.3026C0.533203 11.8468 0.416016 11.2902 0.416016 10.6326V1.47249C0.416016 1.29671 0.448568 1.13069 0.513672 0.97444C0.578776 0.81819 0.666667 0.681471 0.777344 0.564283C0.894531 0.447096 1.03125 0.35595 1.1875 0.290846C1.34375 0.225742 1.51302 0.19319 1.69531 0.19319H13.1309V2.73225H2.95508V10.6326C2.95508 10.9647 3.04297 11.2186 3.21875 11.3944C3.39453 11.5701 3.65169 11.658 3.99023 11.658H13.1309V14.1971Z" fill="white"/>
<path d="M29.5859 13.1131C29.5859 13.2954 29.5501 13.4647 29.4785 13.6209C29.4134 13.7772 29.3223 13.9139 29.2051 14.0311C29.0944 14.1418 28.9609 14.2296 28.8047 14.2948C28.6484 14.3599 28.4824 14.3924 28.3066 14.3924C28.1504 14.3924 27.9909 14.3631 27.8281 14.3045C27.6719 14.2459 27.5319 14.1515 27.4082 14.0213L18.1309 4.33381V14.1971H15.5918V1.27717C15.5918 1.01676 15.6634 0.782382 15.8066 0.574049C15.9564 0.359205 16.1452 0.1997 16.373 0.0955333C16.6139 -0.00212296 16.8613 -0.0249094 17.1152 0.0271739C17.3691 0.0727468 17.5872 0.189934 17.7695 0.378736L27.0469 10.0565V0.19319H29.5859V13.1131Z" fill="white"/>
</svg>
