<svg width="25" height="22" viewBox="0 0 25 22" fill="none" xmlns="http://www.w3.org/2000/svg">
<path d="M9.91798 12.2434H3.04653V9.75455H9.91798V12.2434ZM10.8972 17.81H3.04653C2.74523 17.81 2.41602 17.7499 2.05892 17.6295C1.70182 17.5092 1.36982 17.3129 1.06294 17.0406C0.761634 16.7619 0.507756 16.4041 0.301306 15.9671C0.100435 15.5238 0 14.9824 0 14.3427V5.43234C0 5.26135 0.0278987 5.09986 0.083696 4.94787C0.139493 4.79588 0.21482 4.66289 0.309675 4.5489C0.41011 4.43491 0.527285 4.34624 0.661199 4.28292C0.795112 4.21959 0.940185 4.18792 1.09642 4.18792H10.8972V6.65776H2.1761V14.3427C2.1761 14.6657 2.25142 14.9127 2.40208 15.0837C2.55273 15.2547 2.77313 15.3402 3.06327 15.3402H10.8972V17.81Z" fill="white"/>
<path d="M25 16.7556C25 16.9329 24.9693 17.0976 24.9079 17.2496C24.8521 17.4015 24.774 17.5345 24.6736 17.6485C24.5787 17.7562 24.4643 17.8417 24.3304 17.905C24.1965 17.9683 24.0542 18 23.9036 18C23.7697 18 23.633 17.9715 23.4935 17.9145C23.3596 17.8575 23.2396 17.7657 23.1336 17.639L15.1825 8.21565V17.81H13.0064V5.24235C13.0064 4.98904 13.0677 4.76105 13.1905 4.5584C13.3188 4.34941 13.4806 4.19426 13.6759 4.09293C13.8824 3.99793 14.0944 3.97577 14.312 4.02643C14.5296 4.07076 14.7165 4.18476 14.8728 4.36841L22.8239 13.7823V4.18792H25V16.7556Z" fill="white"/>
</svg>
