<svg width="29" height="15" viewBox="0 0 29 15" fill="none" xmlns="http://www.w3.org/2000/svg">
<path d="M11.582 8.28125H3.55469V5.72266H11.582V8.28125ZM12.7148 2.53906H2.53906V14.0039H0V1.2793C0 1.10352 0.0325521 0.9375 0.0976562 0.78125C0.16276 0.625 0.250651 0.488281 0.361328 0.371094C0.478516 0.253906 0.615234 0.16276 0.771484 0.0976562C0.927734 0.0325521 1.09701 0 1.2793 0H12.7148V2.53906Z" fill="white"/>
<path d="M28.3105 14.0039H25.7715V10.5664H16.8457V14.0039H14.3066V7.00195C14.3066 5.97982 14.4824 5.03906 14.834 4.17969C15.1855 3.32031 15.6738 2.58138 16.2988 1.96289C16.9238 1.3444 17.6628 0.86263 18.5156 0.517578C19.3685 0.172526 20.2995 0 21.3086 0H27.0312C27.207 0 27.373 0.0325521 27.5293 0.0976562C27.6855 0.16276 27.8223 0.253906 27.9395 0.371094C28.0566 0.488281 28.1478 0.625 28.2129 0.78125C28.278 0.9375 28.3105 1.10352 28.3105 1.2793V14.0039ZM16.8457 8.02734H25.7715V2.53906H21.3086C21.2305 2.53906 21.0645 2.55208 20.8105 2.57812C20.5632 2.59766 20.2734 2.65299 19.9414 2.74414C19.6159 2.83529 19.2708 2.97526 18.9062 3.16406C18.5417 3.35286 18.2064 3.61328 17.9004 3.94531C17.5944 4.27734 17.3405 4.69401 17.1387 5.19531C16.9434 5.6901 16.8457 6.29232 16.8457 7.00195V8.02734Z" fill="white"/>
</svg>
