<svg width="24" height="22" viewBox="0 0 24 22" fill="none" xmlns="http://www.w3.org/2000/svg">
<path d="M9.81856 12.2789H3.01345V9.72106H9.81856V12.2789ZM10.7789 6.53835H2.15247V18H0V5.27894C0 5.10321 0.0275957 4.93724 0.0827872 4.78103C0.137979 4.62483 0.212487 4.48815 0.306313 4.37099C0.405657 4.25384 0.521559 4.16272 0.654019 4.09763C0.786478 4.03254 0.929976 4 1.08451 4H10.7789V6.53835Z" fill="white"/>
<path d="M24 18H21.8475V14.5635H14.2808V18H12.1283V11C12.1283 9.97815 12.2773 9.03766 12.5754 8.17852C12.8734 7.31939 13.2873 6.58066 13.8172 5.96234C14.347 5.34403 14.9734 4.86239 15.6964 4.51743C16.4195 4.17248 17.2087 4 18.0642 4H22.9155C23.0645 4 23.2052 4.03254 23.3377 4.09763C23.4702 4.16272 23.5861 4.25384 23.6854 4.37099C23.7848 4.48815 23.862 4.62483 23.9172 4.78103C23.9724 4.93724 24 5.10321 24 5.27894V18ZM14.2808 12.0251H21.8475V6.53835H18.0642C17.9979 6.53835 17.8572 6.55137 17.6419 6.57741C17.4322 6.59693 17.1866 6.65225 16.9051 6.74338C16.6292 6.8345 16.3367 6.97443 16.0276 7.16318C15.7185 7.35193 15.4343 7.61227 15.1749 7.94421C14.9155 8.27615 14.7002 8.6927 14.5291 9.19386C14.3636 9.68852 14.2808 10.2906 14.2808 11V12.0251Z" fill="white"/>
</svg>
