<svg width="120" height="120" viewBox="0 0 120 120" fill="none" xmlns="http://www.w3.org/2000/svg">
<g style="mix-blend-mode:screen" opacity="0.2">
<path d="M60 120C93.1371 120 120 93.1371 120 60C120 26.8629 93.1371 0 60 0C26.8629 0 0 26.8629 0 60C0 93.1371 26.8629 120 60 120Z" fill="url(#paint0_linear_356_12)"/>
</g>
<g style="mix-blend-mode:screen" opacity="0.2">
<path d="M60.0045 112.548C89.0258 112.548 112.552 89.0213 112.552 60C112.552 30.9787 89.0258 7.45227 60.0045 7.45227C30.9832 7.45227 7.45679 30.9787 7.45679 60C7.45679 89.0213 30.9832 112.548 60.0045 112.548Z" fill="url(#paint1_linear_356_12)"/>
</g>
<path d="M60.0046 106.204C85.5224 106.204 106.209 85.5178 106.209 60C106.209 34.4822 85.5224 13.7959 60.0046 13.7959C34.4868 13.7959 13.8005 34.4822 13.8005 60C13.8005 85.5178 34.4868 106.204 60.0046 106.204Z" fill="#6B7BFE"/>
<path d="M62.8622 106.118C61.2978 105.798 58.5633 104.443 47.2063 98.8134C28.4709 89.5258 27.4116 90.4127 26.7587 92.0879C23.4822 88.7005 20.723 84.8081 18.6043 80.5338C21.3143 81.3714 21.7084 84.5248 25.5393 84.7711C29.5795 85.0298 29.0991 86.6804 32.5604 87.1608C50.4582 89.649 63.4288 105.416 66.6561 105.724C65.412 105.908 64.1556 106.032 62.8745 106.106L62.8622 106.118ZM101.786 72.4903C100.062 72.1947 96.6253 72.3671 90.0353 74.9169C87.4116 75.927 78.5797 79.881 74.7612 88.1216C71.8665 94.379 72.3469 102.312 77.04 102.644C77.3849 102.644 77.6805 102.62 77.9638 102.57C80.9078 101.326 83.6916 99.7865 86.2783 97.9881C84.0611 98.4932 79.3557 95.697 80.2796 91.8662C81.7454 85.7689 95.1964 78.797 97.0318 81.6055C97.9926 83.0713 95.4797 86.2862 97.7216 86.3109L97.8571 86.471C99.9141 83.5394 101.639 80.3614 102.969 76.9863C102.538 75.4466 103.942 72.8598 101.774 72.478L101.786 72.4903ZM19.9839 50.9834C21.4251 52.3876 22.3859 53.2253 25.3791 54.4078C26.4508 54.765 28.0644 55.2946 30.6881 55.578C36.0217 56.1569 37.0564 55.0976 38.0665 54.0629C39.0642 53.0405 40.0989 51.9812 43.2276 52.8188C49.1771 54.4324 54.4984 58.0908 60.8914 58.2756C62.8253 58.3248 65.3381 57.3887 66.188 55.541C67.9741 51.6239 60.6327 48.2735 60.5465 48.2366C60.4479 48.1873 60.3124 48.138 60.2139 48.1011C59.3024 47.7931 58.6002 48.0271 57.9104 48.2612C56.9743 48.5814 54.7694 49.3328 51.111 48.0395C45.7897 46.1548 41.9466 41.548 36.4159 40.0452C35.4428 39.7865 33.4966 39.454 31.304 40.2793C27.9207 41.5439 25.6912 41.9257 24.6154 41.4248C22.1026 40.2669 22.6815 37.0889 20.8216 35.4999C18.8877 38.5794 17.311 41.9052 16.1408 45.4158C17.6066 47.1403 18.3334 49.3698 19.9716 50.9711L19.9839 50.9834ZM24.0488 74.9785C25.3175 75.1386 29.9983 75.9516 36.8963 79.6469C56.7033 90.2649 59.7458 91.8908 62.5419 89.883C63.1086 89.4765 64.1556 88.3433 61.7536 86.6188C60.1277 85.4486 58.1322 85.5595 56.3215 85.0298C53.4145 84.1676 51.7392 81.47 49.0909 80.2136C47.7975 79.5977 30.2816 72.5396 23.7409 71.4433C21.3019 71.0368 18.7891 72.17 16.3748 71.1477C15.685 70.6673 15.18 70.0637 14.7858 69.4355C15.3155 72.0099 16.0669 74.4981 17.003 76.9001C17.8776 76.3334 18.4196 75.3234 19.4789 75.0278C19.7253 74.9539 21.1295 74.6213 24.0611 74.9908L24.0488 74.9785ZM93.3611 91.9155C93.4227 91.8785 93.4843 91.8292 93.5458 91.7923C93.6444 91.6937 93.7306 91.5952 93.8291 91.4967C93.6813 91.6322 93.5335 91.78 93.3734 91.9155H93.3611ZM105.975 64.6931C103.634 64.3606 77.9761 61.0224 65.2026 66.122C58.6988 68.721 55.9889 68.8442 49.3126 64.767C44.9111 62.0818 39.3024 60.6241 32.4865 60.3942C22.7308 60.0616 19.1586 56.3786 17.2371 54.3955C15.8452 52.9666 15.7343 52.9173 15.0568 52.671C14.7858 52.8188 14.5272 53.0282 14.2808 53.2992C13.9605 55.4917 13.7881 57.7336 13.7881 60.0124C13.7881 60.4435 13.7881 60.8746 13.8127 61.3057C14.8844 63.5969 17.0769 65.7155 20.8831 66.7995C23.1989 67.4523 25.1451 67.4154 28.3847 67.0951C32.6343 66.6763 32.9915 66.664 35.3442 66.6393C43.3878 66.5285 48.1178 70.2854 51.2588 72.7736C54.7694 75.5574 56.8758 77.1587 59.5487 77.8485C70.6963 80.7063 73.2584 65.9126 83.2235 66.3314C87.621 66.5162 91.538 68.9674 95.9601 69.0659C98.978 69.1399 101.208 66.2205 104.373 66.7995C104.977 66.9103 105.445 67.1567 105.396 68.7703C105.654 67.4277 105.851 66.0727 105.987 64.6931H105.975ZM40.3329 18.3782C40.4931 18.4398 40.6902 18.5383 40.8503 18.5876L70.6717 27.3332C78.3252 29.4765 82.2956 30.5975 82.583 30.696C86.5617 32.0017 90.1461 34.2928 94.248 35.3029C96.7115 35.9064 97.7585 34.6007 97.7832 33.4182C96.6499 31.8046 95.4058 30.2649 94.0755 28.8114C93.6198 28.602 93.6074 28.602 93.5335 28.6266C92.93 30.0062 92.7821 30.3388 91.4395 30.1294C83.7778 27.8629 78.2348 21.4823 70.4746 19.4129C66.7054 18.4028 62.3079 18.255 56.5062 18.1442C51.148 18.0456 45.1246 17.9224 43.2769 16.9493C42.2299 17.3558 41.1952 17.7993 40.1851 18.2797L40.3329 18.4028V18.3782ZM26.5247 30.0555C30.2816 30.8438 34.5066 28.7621 37.8694 31.9155C42.7349 36.4731 44.0406 37.7048 50.7169 39.3308C59.2777 41.4125 68.085 42.4225 76.4611 45.3049C83.2974 47.6576 89.8136 50.9341 96.9702 52.3507C103.437 53.6317 104.866 51.3283 104.854 48.9263C104.324 46.7831 103.646 44.7013 102.833 42.6935C102.649 43.2725 102.033 44.0855 99.3475 43.679C99.1258 43.642 98.8425 43.6051 98.6208 43.5558C98.6208 43.5558 94.3465 42.3486 85.798 39.9344C77.4342 37.5693 68.6639 37.7911 60.2385 35.8695C54.326 34.5268 50.0517 29.8707 44.3732 28.0477C39.7171 26.5572 34.716 27.6412 30.0722 26.0891C29.8382 26.0152 29.5056 25.8182 29.4194 25.5964C29.3947 25.5348 29.3947 25.4609 29.3947 25.3747C28.5079 26.1631 27.6579 26.976 26.8326 27.826C26.1675 28.7991 25.8472 29.7106 26.5124 30.0555H26.5247Z" fill="#4055FC"/>
<defs>
<linearGradient id="paint0_linear_356_12" x1="0" y1="0" x2="120" y2="120" gradientUnits="userSpaceOnUse">
<stop stop-color="#21D4FD"/>
<stop offset="0.494792" stop-color="#6B7BFE"/>
<stop offset="1" stop-color="#B721FF"/>
</linearGradient>
<linearGradient id="paint1_linear_356_12" x1="7.45679" y1="7.45227" x2="112.552" y2="112.548" gradientUnits="userSpaceOnUse">
<stop stop-color="#21D4FD"/>
<stop offset="0.494792" stop-color="#6B7BFE"/>
<stop offset="1" stop-color="#B721FF"/>
</linearGradient>
</defs>
</svg>
